<mxfile host="Electron" agent="Mozilla/5.0 (Windows NT 10.0; Win64; x64) AppleWebKit/537.36 (KHTML, like Gecko) draw.io/27.0.9 Chrome/134.0.6998.205 Electron/35.4.0 Safari/537.36" version="27.0.9">
  <diagram name="Page-1" id="nxdNTsaaaLEOtJsfNS0T">
    <mxGraphModel dx="868" dy="528" grid="0" gridSize="5" guides="1" tooltips="1" connect="1" arrows="1" fold="1" page="1" pageScale="1" pageWidth="1100" pageHeight="850" background="#FFFFFF" math="0" shadow="0">
      <root>
        <mxCell id="0" />
        <mxCell id="1" parent="0" />
        <mxCell id="sQltPLbZd4ANOyrqDS_2-95" value="" style="rounded=0;whiteSpace=wrap;html=1;fillColor=#FFF2CD;strokeColor=#000000;" parent="1" vertex="1">
          <mxGeometry x="575.22" y="239" width="60" height="40" as="geometry" />
        </mxCell>
        <mxCell id="sQltPLbZd4ANOyrqDS_2-1" value="" style="rounded=0;whiteSpace=wrap;html=1;fillColor=#FAF4FE;strokeColor=#000000;strokeWidth=1;fillStyle=solid;" parent="1" vertex="1">
          <mxGeometry x="205" y="319" width="80" height="100" as="geometry" />
        </mxCell>
        <mxCell id="sQltPLbZd4ANOyrqDS_2-2" value="Memória de Instruções" style="text;strokeColor=none;fillColor=none;align=center;verticalAlign=middle;spacingLeft=4;spacingRight=4;overflow=hidden;points=[[0,0.5],[1,0.5]];portConstraint=eastwest;rotatable=0;whiteSpace=wrap;html=1;fontColor=#000000;fontStyle=1" parent="1" vertex="1">
          <mxGeometry x="205" y="354" width="80" height="30" as="geometry" />
        </mxCell>
        <mxCell id="sQltPLbZd4ANOyrqDS_2-6" value="" style="endArrow=none;html=1;rounded=0;strokeColor=#000000;" parent="1" edge="1">
          <mxGeometry width="50" height="50" relative="1" as="geometry">
            <mxPoint x="285" y="328.96" as="sourcePoint" />
            <mxPoint x="310" y="329" as="targetPoint" />
          </mxGeometry>
        </mxCell>
        <mxCell id="sQltPLbZd4ANOyrqDS_2-9" value="" style="rounded=0;whiteSpace=wrap;html=1;fillColor=#FAF4FE;strokeColor=#000000;strokeWidth=1;fillStyle=solid;" parent="1" vertex="1">
          <mxGeometry x="255.00000000000006" y="452" width="90" height="120" as="geometry" />
        </mxCell>
        <mxCell id="sQltPLbZd4ANOyrqDS_2-10" value="Sinais de Controle" style="text;strokeColor=none;fillColor=none;align=center;verticalAlign=middle;spacingLeft=4;spacingRight=4;overflow=hidden;points=[[0,0.5],[1,0.5]];portConstraint=eastwest;rotatable=0;whiteSpace=wrap;html=1;fontColor=#000000;fontStyle=1" parent="1" vertex="1">
          <mxGeometry x="260.00000000000006" y="497" width="80" height="30" as="geometry" />
        </mxCell>
        <mxCell id="sQltPLbZd4ANOyrqDS_2-13" value="" style="endArrow=none;html=1;rounded=0;strokeColor=#000000;" parent="1" edge="1">
          <mxGeometry width="50" height="50" relative="1" as="geometry">
            <mxPoint x="295" y="338.88" as="sourcePoint" />
            <mxPoint x="310" y="339" as="targetPoint" />
          </mxGeometry>
        </mxCell>
        <mxCell id="sQltPLbZd4ANOyrqDS_2-14" value="" style="endArrow=none;html=1;rounded=0;strokeColor=#000000;" parent="1" edge="1">
          <mxGeometry width="50" height="50" relative="1" as="geometry">
            <mxPoint x="295" y="338.88" as="sourcePoint" />
            <mxPoint x="295" y="328.88" as="targetPoint" />
          </mxGeometry>
        </mxCell>
        <mxCell id="sQltPLbZd4ANOyrqDS_2-15" value="" style="endArrow=none;html=1;rounded=0;strokeColor=#000000;" parent="1" edge="1">
          <mxGeometry width="50" height="50" relative="1" as="geometry">
            <mxPoint x="295" y="348.8" as="sourcePoint" />
            <mxPoint x="310" y="349" as="targetPoint" />
          </mxGeometry>
        </mxCell>
        <mxCell id="sQltPLbZd4ANOyrqDS_2-16" value="" style="endArrow=none;html=1;rounded=0;strokeColor=#000000;" parent="1" edge="1">
          <mxGeometry width="50" height="50" relative="1" as="geometry">
            <mxPoint x="295" y="348.8" as="sourcePoint" />
            <mxPoint x="295" y="338.8" as="targetPoint" />
          </mxGeometry>
        </mxCell>
        <mxCell id="sQltPLbZd4ANOyrqDS_2-17" value="" style="endArrow=none;html=1;rounded=0;strokeColor=#000000;" parent="1" edge="1">
          <mxGeometry width="50" height="50" relative="1" as="geometry">
            <mxPoint x="295" y="358.88" as="sourcePoint" />
            <mxPoint x="310" y="359" as="targetPoint" />
          </mxGeometry>
        </mxCell>
        <mxCell id="sQltPLbZd4ANOyrqDS_2-18" value="" style="endArrow=none;html=1;rounded=0;strokeColor=#000000;" parent="1" edge="1">
          <mxGeometry width="50" height="50" relative="1" as="geometry">
            <mxPoint x="295" y="358.88" as="sourcePoint" />
            <mxPoint x="295" y="348.88" as="targetPoint" />
          </mxGeometry>
        </mxCell>
        <mxCell id="sQltPLbZd4ANOyrqDS_2-19" value="LdStMov" style="text;strokeColor=none;fillColor=none;align=left;verticalAlign=middle;spacingLeft=4;spacingRight=4;overflow=hidden;points=[[0,0.5],[1,0.5]];portConstraint=eastwest;rotatable=0;whiteSpace=wrap;html=1;fontColor=#000000;fontStyle=1;fontSize=8;" parent="1" vertex="1">
          <mxGeometry x="305" y="319" width="50" height="20" as="geometry" />
        </mxCell>
        <mxCell id="sQltPLbZd4ANOyrqDS_2-20" value="BrJump" style="text;strokeColor=none;fillColor=none;align=left;verticalAlign=middle;spacingLeft=4;spacingRight=4;overflow=hidden;points=[[0,0.5],[1,0.5]];portConstraint=eastwest;rotatable=0;whiteSpace=wrap;html=1;fontColor=#000000;fontStyle=1;fontSize=8;" parent="1" vertex="1">
          <mxGeometry x="305" y="329" width="40" height="20" as="geometry" />
        </mxCell>
        <mxCell id="sQltPLbZd4ANOyrqDS_2-21" value="ULA1" style="text;strokeColor=none;fillColor=none;align=left;verticalAlign=middle;spacingLeft=4;spacingRight=4;overflow=hidden;points=[[0,0.5],[1,0.5]];portConstraint=eastwest;rotatable=0;whiteSpace=wrap;html=1;fontColor=#000000;fontStyle=1;fontSize=8;" parent="1" vertex="1">
          <mxGeometry x="305" y="339" width="40" height="20" as="geometry" />
        </mxCell>
        <mxCell id="sQltPLbZd4ANOyrqDS_2-22" value="ULA2" style="text;strokeColor=none;fillColor=none;align=left;verticalAlign=middle;spacingLeft=4;spacingRight=4;overflow=hidden;points=[[0,0.5],[1,0.5]];portConstraint=eastwest;rotatable=0;whiteSpace=wrap;html=1;fontColor=#000000;fontStyle=1;fontSize=8;" parent="1" vertex="1">
          <mxGeometry x="305" y="349" width="40" height="20" as="geometry" />
        </mxCell>
        <mxCell id="sQltPLbZd4ANOyrqDS_2-23" value="" style="rounded=0;whiteSpace=wrap;html=1;fillColor=#FAF4FE;strokeColor=#000000;strokeWidth=1;fillStyle=solid;" parent="1" vertex="1">
          <mxGeometry x="380" y="289" width="95" height="150" as="geometry" />
        </mxCell>
        <mxCell id="sQltPLbZd4ANOyrqDS_2-24" value="Banco de Registradores" style="text;strokeColor=none;fillColor=none;align=center;verticalAlign=middle;spacingLeft=4;spacingRight=4;overflow=hidden;points=[[0,0.5],[1,0.5]];portConstraint=eastwest;rotatable=0;whiteSpace=wrap;html=1;fontColor=#000000;fontStyle=1" parent="1" vertex="1">
          <mxGeometry x="380.00000000000006" y="344" width="95" height="40" as="geometry" />
        </mxCell>
        <mxCell id="sQltPLbZd4ANOyrqDS_2-47" value="" style="endArrow=none;html=1;rounded=0;exitX=1;exitY=0.5;exitDx=0;exitDy=0;fontColor=#000000;strokeColor=#000000;entryX=-0.025;entryY=-0.031;entryDx=0;entryDy=0;entryPerimeter=0;" parent="1" edge="1">
          <mxGeometry width="50" height="50" relative="1" as="geometry">
            <mxPoint x="475.22" y="309" as="sourcePoint" />
            <mxPoint x="644.72" y="308.38" as="targetPoint" />
          </mxGeometry>
        </mxCell>
        <mxCell id="sQltPLbZd4ANOyrqDS_2-49" value="" style="rounded=0;whiteSpace=wrap;html=1;fillColor=light-dark(#FAF4FE,#FAF4FE);strokeColor=light-dark(#000000,#000000);strokeWidth=1;fillStyle=solid;" parent="1" vertex="1">
          <mxGeometry x="645.22" y="299" width="90" height="100" as="geometry" />
        </mxCell>
        <mxCell id="sQltPLbZd4ANOyrqDS_2-48" value="Memória de Dados" style="text;strokeColor=none;fillColor=none;align=center;verticalAlign=middle;spacingLeft=4;spacingRight=4;overflow=hidden;points=[[0,0.5],[1,0.5]];portConstraint=eastwest;rotatable=0;whiteSpace=wrap;html=1;fontColor=#000000;fontStyle=1" parent="1" vertex="1">
          <mxGeometry x="650.22" y="334" width="80" height="30" as="geometry" />
        </mxCell>
        <mxCell id="sQltPLbZd4ANOyrqDS_2-53" value="" style="endArrow=none;html=1;rounded=0;exitX=1;exitY=0.5;exitDx=0;exitDy=0;fontColor=#000000;strokeColor=#000000;entryX=0;entryY=0.5;entryDx=0;entryDy=0;" parent="1" edge="1">
          <mxGeometry width="50" height="50" relative="1" as="geometry">
            <mxPoint x="475.22" y="319" as="sourcePoint" />
            <mxPoint x="645.22" y="319" as="targetPoint" />
          </mxGeometry>
        </mxCell>
        <mxCell id="sQltPLbZd4ANOyrqDS_2-54" value="" style="rounded=0;whiteSpace=wrap;html=1;fillColor=#FFF2CD;strokeColor=#000000;" parent="1" vertex="1">
          <mxGeometry x="550.22" y="329" width="40" height="20" as="geometry" />
        </mxCell>
        <mxCell id="sQltPLbZd4ANOyrqDS_2-55" value="isZero" style="text;strokeColor=none;fillColor=none;align=center;verticalAlign=middle;spacingLeft=4;spacingRight=4;overflow=hidden;points=[[0,0.5],[1,0.5]];portConstraint=eastwest;rotatable=0;whiteSpace=wrap;html=1;fontColor=#000000;fontStyle=1;fontSize=10;" parent="1" vertex="1">
          <mxGeometry x="550" y="329" width="40" height="20" as="geometry" />
        </mxCell>
        <mxCell id="sQltPLbZd4ANOyrqDS_2-56" value="" style="endArrow=none;html=1;rounded=0;exitX=0.989;exitY=0.004;exitDx=0;exitDy=0;exitPerimeter=0;strokeColor=#000000;" parent="1" edge="1">
          <mxGeometry width="50" height="50" relative="1" as="geometry">
            <mxPoint x="475" y="339.08000000000004" as="sourcePoint" />
            <mxPoint x="550.22" y="339" as="targetPoint" />
          </mxGeometry>
        </mxCell>
        <mxCell id="sQltPLbZd4ANOyrqDS_2-57" value="" style="endArrow=none;html=1;rounded=0;exitX=1;exitY=0.5;exitDx=0;exitDy=0;strokeColor=#000000;" parent="1" edge="1">
          <mxGeometry width="50" height="50" relative="1" as="geometry">
            <mxPoint x="475.22" y="349" as="sourcePoint" />
            <mxPoint x="505.22" y="349" as="targetPoint" />
          </mxGeometry>
        </mxCell>
        <mxCell id="sQltPLbZd4ANOyrqDS_2-58" value="" style="rounded=0;whiteSpace=wrap;html=1;fillColor=#FFF2CD;strokeColor=#000000;gradientColor=none;" parent="1" vertex="1">
          <mxGeometry x="575.22" y="359" width="30" height="40" as="geometry" />
        </mxCell>
        <mxCell id="sQltPLbZd4ANOyrqDS_2-59" value="ULA" style="text;strokeColor=none;fillColor=none;align=center;verticalAlign=middle;spacingLeft=4;spacingRight=4;overflow=hidden;points=[[0,0.5],[1,0.5]];portConstraint=eastwest;rotatable=0;whiteSpace=wrap;html=1;fontColor=#000000;fontStyle=1;fontSize=10;" parent="1" vertex="1">
          <mxGeometry x="575.22" y="369" width="30" height="20" as="geometry" />
        </mxCell>
        <mxCell id="sQltPLbZd4ANOyrqDS_2-60" value="" style="rounded=0;whiteSpace=wrap;html=1;fillColor=#FFF2CD;strokeColor=#000000;" parent="1" vertex="1">
          <mxGeometry x="525.22" y="399" width="30" height="40" as="geometry" />
        </mxCell>
        <mxCell id="sQltPLbZd4ANOyrqDS_2-61" value="ULA" style="text;strokeColor=none;fillColor=none;align=center;verticalAlign=middle;spacingLeft=4;spacingRight=4;overflow=hidden;points=[[0,0.5],[1,0.5]];portConstraint=eastwest;rotatable=0;whiteSpace=wrap;html=1;fontColor=#000000;fontStyle=1;fontSize=10;" parent="1" vertex="1">
          <mxGeometry x="525.22" y="409" width="30" height="20" as="geometry" />
        </mxCell>
        <mxCell id="sQltPLbZd4ANOyrqDS_2-62" value="" style="endArrow=none;html=1;rounded=0;exitX=1;exitY=0.5;exitDx=0;exitDy=0;strokeColor=#000000;entryX=0;entryY=0.5;entryDx=0;entryDy=0;" parent="1" target="sQltPLbZd4ANOyrqDS_2-59" edge="1">
          <mxGeometry width="50" height="50" relative="1" as="geometry">
            <mxPoint x="475.22" y="378.77" as="sourcePoint" />
            <mxPoint x="565.22" y="379" as="targetPoint" />
          </mxGeometry>
        </mxCell>
        <mxCell id="sQltPLbZd4ANOyrqDS_2-63" value="" style="endArrow=none;html=1;rounded=0;exitX=1;exitY=0.5;exitDx=0;exitDy=0;strokeColor=#000000;entryX=-0.011;entryY=0.992;entryDx=0;entryDy=0;entryPerimeter=0;" parent="1" target="sQltPLbZd4ANOyrqDS_2-59" edge="1">
          <mxGeometry width="50" height="50" relative="1" as="geometry">
            <mxPoint x="475.22" y="389" as="sourcePoint" />
            <mxPoint x="574.22" y="389.23" as="targetPoint" />
          </mxGeometry>
        </mxCell>
        <mxCell id="sQltPLbZd4ANOyrqDS_2-64" value="" style="endArrow=none;html=1;rounded=0;exitX=0.989;exitY=-0.011;exitDx=0;exitDy=0;strokeColor=#000000;exitPerimeter=0;entryX=0;entryY=0.5;entryDx=0;entryDy=0;" parent="1" target="sQltPLbZd4ANOyrqDS_2-61" edge="1">
          <mxGeometry width="50" height="50" relative="1" as="geometry">
            <mxPoint x="475" y="418.78" as="sourcePoint" />
            <mxPoint x="515.22" y="419" as="targetPoint" />
          </mxGeometry>
        </mxCell>
        <mxCell id="sQltPLbZd4ANOyrqDS_2-65" value="" style="endArrow=none;html=1;rounded=0;exitX=0.989;exitY=-0.011;exitDx=0;exitDy=0;strokeColor=#000000;exitPerimeter=0;entryX=-0.008;entryY=0.332;entryDx=0;entryDy=0;entryPerimeter=0;" parent="1" edge="1">
          <mxGeometry width="50" height="50" relative="1" as="geometry">
            <mxPoint x="475.22" y="429" as="sourcePoint" />
            <mxPoint x="525.22" y="429" as="targetPoint" />
          </mxGeometry>
        </mxCell>
        <mxCell id="sQltPLbZd4ANOyrqDS_2-66" value="" style="endArrow=none;html=1;rounded=0;strokeColor=#000000;" parent="1" edge="1">
          <mxGeometry width="50" height="50" relative="1" as="geometry">
            <mxPoint x="565.22" y="369" as="sourcePoint" />
            <mxPoint x="575.22" y="368.77" as="targetPoint" />
          </mxGeometry>
        </mxCell>
        <mxCell id="sQltPLbZd4ANOyrqDS_2-67" value="OpULA1" style="text;strokeColor=none;fillColor=none;align=left;verticalAlign=middle;spacingLeft=4;spacingRight=4;overflow=hidden;points=[[0,0.5],[1,0.5]];portConstraint=eastwest;rotatable=0;whiteSpace=wrap;html=1;fontColor=#FD91C0;fontStyle=1;fontSize=8;" parent="1" vertex="1">
          <mxGeometry x="525.22" y="359" width="50" height="20" as="geometry" />
        </mxCell>
        <mxCell id="sQltPLbZd4ANOyrqDS_2-69" value="" style="endArrow=none;html=1;rounded=0;strokeColor=#000000;" parent="1" edge="1">
          <mxGeometry width="50" height="50" relative="1" as="geometry">
            <mxPoint x="515.22" y="409" as="sourcePoint" />
            <mxPoint x="525.22" y="408.77" as="targetPoint" />
          </mxGeometry>
        </mxCell>
        <mxCell id="sQltPLbZd4ANOyrqDS_2-70" value="OpULA2" style="text;strokeColor=none;fillColor=none;align=left;verticalAlign=middle;spacingLeft=4;spacingRight=4;overflow=hidden;points=[[0,0.5],[1,0.5]];portConstraint=eastwest;rotatable=0;whiteSpace=wrap;html=1;fontColor=light-dark(#FD91C0,#FD91C0);fontStyle=1;fontSize=8;labelBorderColor=none;" parent="1" vertex="1">
          <mxGeometry x="475.22" y="399" width="50" height="20" as="geometry" />
        </mxCell>
        <mxCell id="sQltPLbZd4ANOyrqDS_2-71" value="" style="endArrow=none;html=1;rounded=0;entryX=0.499;entryY=1.008;entryDx=0;entryDy=0;entryPerimeter=0;strokeColor=#000000;" parent="1" edge="1">
          <mxGeometry width="50" height="50" relative="1" as="geometry">
            <mxPoint x="459.03" y="458.84" as="sourcePoint" />
            <mxPoint x="459" y="439.00000000000006" as="targetPoint" />
          </mxGeometry>
        </mxCell>
        <mxCell id="sQltPLbZd4ANOyrqDS_2-72" value="" style="endArrow=none;html=1;rounded=0;strokeColor=#000000;" parent="1" edge="1">
          <mxGeometry width="50" height="50" relative="1" as="geometry">
            <mxPoint x="459" y="459" as="sourcePoint" />
            <mxPoint x="575" y="459" as="targetPoint" />
          </mxGeometry>
        </mxCell>
        <mxCell id="sQltPLbZd4ANOyrqDS_2-73" value="" style="endArrow=none;html=1;rounded=0;strokeColor=#000000;" parent="1" edge="1">
          <mxGeometry width="50" height="50" relative="1" as="geometry">
            <mxPoint x="575" y="459" as="sourcePoint" />
            <mxPoint x="575.22" y="409" as="targetPoint" />
          </mxGeometry>
        </mxCell>
        <mxCell id="sQltPLbZd4ANOyrqDS_2-75" value="" style="endArrow=none;html=1;rounded=0;strokeColor=#000000;" parent="1" edge="1">
          <mxGeometry width="50" height="50" relative="1" as="geometry">
            <mxPoint x="555.22" y="409" as="sourcePoint" />
            <mxPoint x="575.22" y="409" as="targetPoint" />
          </mxGeometry>
        </mxCell>
        <mxCell id="sQltPLbZd4ANOyrqDS_2-76" value="" style="endArrow=none;html=1;rounded=0;strokeColor=#000000;" parent="1" edge="1">
          <mxGeometry width="50" height="50" relative="1" as="geometry">
            <mxPoint x="625" y="469" as="sourcePoint" />
            <mxPoint x="624.73" y="369" as="targetPoint" />
          </mxGeometry>
        </mxCell>
        <mxCell id="sQltPLbZd4ANOyrqDS_2-77" value="" style="endArrow=none;html=1;rounded=0;strokeColor=#000000;" parent="1" edge="1">
          <mxGeometry width="50" height="50" relative="1" as="geometry">
            <mxPoint x="604.73" y="369" as="sourcePoint" />
            <mxPoint x="624.73" y="369" as="targetPoint" />
          </mxGeometry>
        </mxCell>
        <mxCell id="sQltPLbZd4ANOyrqDS_2-78" value="" style="endArrow=none;html=1;rounded=0;strokeColor=#000000;" parent="1" edge="1">
          <mxGeometry width="50" height="50" relative="1" as="geometry">
            <mxPoint x="438" y="469" as="sourcePoint" />
            <mxPoint x="625" y="469" as="targetPoint" />
          </mxGeometry>
        </mxCell>
        <mxCell id="sQltPLbZd4ANOyrqDS_2-79" value="" style="endArrow=none;html=1;rounded=0;entryX=0.499;entryY=1.008;entryDx=0;entryDy=0;entryPerimeter=0;strokeColor=#000000;" parent="1" edge="1">
          <mxGeometry width="50" height="50" relative="1" as="geometry">
            <mxPoint x="438.06000000000006" y="469" as="sourcePoint" />
            <mxPoint x="438.0000000000001" y="439" as="targetPoint" />
          </mxGeometry>
        </mxCell>
        <mxCell id="sQltPLbZd4ANOyrqDS_2-80" value="" style="endArrow=none;html=1;rounded=0;strokeColor=#000000;" parent="1" edge="1">
          <mxGeometry width="50" height="50" relative="1" as="geometry">
            <mxPoint x="735.22" y="309" as="sourcePoint" />
            <mxPoint x="755.22" y="309" as="targetPoint" />
          </mxGeometry>
        </mxCell>
        <mxCell id="sQltPLbZd4ANOyrqDS_2-84" value="" style="shape=trapezoid;perimeter=trapezoidPerimeter;whiteSpace=wrap;html=1;fixedSize=1;rounded=0;shadow=0;fillColor=#FFFFFF;strokeColor=#000000;rotation=-180;size=10;" parent="1" vertex="1">
          <mxGeometry x="745.22" y="329" width="30" height="10" as="geometry" />
        </mxCell>
        <mxCell id="sQltPLbZd4ANOyrqDS_2-87" value="" style="endArrow=none;html=1;rounded=0;strokeColor=#000000;exitX=0.667;exitY=0.984;exitDx=0;exitDy=0;exitPerimeter=0;" parent="1" source="sQltPLbZd4ANOyrqDS_2-84" edge="1">
          <mxGeometry width="50" height="50" relative="1" as="geometry">
            <mxPoint x="765.22" y="319" as="sourcePoint" />
            <mxPoint x="755.22" y="309" as="targetPoint" />
          </mxGeometry>
        </mxCell>
        <mxCell id="sQltPLbZd4ANOyrqDS_2-88" value="" style="endArrow=none;html=1;rounded=0;entryX=0.499;entryY=1.008;entryDx=0;entryDy=0;entryPerimeter=0;strokeColor=#000000;" parent="1" edge="1">
          <mxGeometry width="50" height="50" relative="1" as="geometry">
            <mxPoint x="415.00000000000006" y="479" as="sourcePoint" />
            <mxPoint x="414.89000000000004" y="439" as="targetPoint" />
          </mxGeometry>
        </mxCell>
        <mxCell id="sQltPLbZd4ANOyrqDS_2-91" value="" style="endArrow=none;html=1;rounded=0;strokeColor=#000000;" parent="1" edge="1">
          <mxGeometry width="50" height="50" relative="1" as="geometry">
            <mxPoint x="760" y="479" as="sourcePoint" />
            <mxPoint x="760.11" y="339" as="targetPoint" />
          </mxGeometry>
        </mxCell>
        <mxCell id="sQltPLbZd4ANOyrqDS_2-93" value="" style="endArrow=none;html=1;rounded=0;strokeColor=#000000;targetPerimeterSpacing=0;jumpSize=6;shadow=0;flowAnimation=0;" parent="1" edge="1">
          <mxGeometry width="50" height="50" relative="1" as="geometry">
            <mxPoint x="415.00000000000006" y="479" as="sourcePoint" />
            <mxPoint x="760" y="479" as="targetPoint" />
          </mxGeometry>
        </mxCell>
        <mxCell id="sQltPLbZd4ANOyrqDS_2-94" value="Move" style="text;strokeColor=none;fillColor=none;align=center;verticalAlign=middle;spacingLeft=4;spacingRight=4;overflow=hidden;points=[[0,0.5],[1,0.5]];portConstraint=eastwest;rotatable=0;whiteSpace=wrap;html=1;fontColor=#000000;fontStyle=1;fontSize=10;" parent="1" vertex="1">
          <mxGeometry x="590.22" y="249" width="30" height="20" as="geometry" />
        </mxCell>
        <mxCell id="sQltPLbZd4ANOyrqDS_2-100" value="" style="endArrow=none;html=1;rounded=0;strokeColor=#000000;" parent="1" edge="1">
          <mxGeometry width="50" height="50" relative="1" as="geometry">
            <mxPoint x="525.03" y="250" as="sourcePoint" />
            <mxPoint x="525.03" y="310" as="targetPoint" />
          </mxGeometry>
        </mxCell>
        <mxCell id="sQltPLbZd4ANOyrqDS_2-101" value="" style="endArrow=none;html=1;rounded=0;strokeColor=#000000;entryX=-0.008;entryY=0.569;entryDx=0;entryDy=0;entryPerimeter=0;" parent="1" edge="1">
          <mxGeometry width="50" height="50" relative="1" as="geometry">
            <mxPoint x="525.22" y="250" as="sourcePoint" />
            <mxPoint x="575.06" y="250.38" as="targetPoint" />
          </mxGeometry>
        </mxCell>
        <mxCell id="sQltPLbZd4ANOyrqDS_2-102" value="" style="shape=trapezoid;perimeter=trapezoidPerimeter;whiteSpace=wrap;html=1;fixedSize=1;rounded=0;shadow=0;fillColor=#FFFFFF;strokeColor=#000000;rotation=90;size=10;" parent="1" vertex="1">
          <mxGeometry x="665.22" y="254" width="30" height="10" as="geometry" />
        </mxCell>
        <mxCell id="sQltPLbZd4ANOyrqDS_2-103" value="" style="endArrow=none;html=1;rounded=0;strokeColor=#000000;entryX=0.163;entryY=1.049;entryDx=0;entryDy=0;exitX=1;exitY=0.5;exitDx=0;exitDy=0;entryPerimeter=0;" parent="1" target="sQltPLbZd4ANOyrqDS_2-102" edge="1">
          <mxGeometry width="50" height="50" relative="1" as="geometry">
            <mxPoint x="635.22" y="249" as="sourcePoint" />
            <mxPoint x="585.22" y="259" as="targetPoint" />
          </mxGeometry>
        </mxCell>
        <mxCell id="sQltPLbZd4ANOyrqDS_2-104" value="" style="endArrow=none;html=1;rounded=0;strokeColor=#000000;entryX=0.163;entryY=1.049;entryDx=0;entryDy=0;exitX=1;exitY=0.5;exitDx=0;exitDy=0;entryPerimeter=0;" parent="1" edge="1">
          <mxGeometry width="50" height="50" relative="1" as="geometry">
            <mxPoint x="635.22" y="269" as="sourcePoint" />
            <mxPoint x="675.22" y="269" as="targetPoint" />
          </mxGeometry>
        </mxCell>
        <mxCell id="sQltPLbZd4ANOyrqDS_2-105" value="" style="endArrow=none;html=1;rounded=0;strokeColor=#000000;exitX=1;exitY=0.5;exitDx=0;exitDy=0;" parent="1" edge="1">
          <mxGeometry width="50" height="50" relative="1" as="geometry">
            <mxPoint x="685.22" y="258.72" as="sourcePoint" />
            <mxPoint x="765.22" y="259" as="targetPoint" />
          </mxGeometry>
        </mxCell>
        <mxCell id="sQltPLbZd4ANOyrqDS_2-106" value="" style="endArrow=none;html=1;rounded=0;strokeColor=#000000;exitX=0.667;exitY=0.984;exitDx=0;exitDy=0;exitPerimeter=0;" parent="1" edge="1">
          <mxGeometry width="50" height="50" relative="1" as="geometry">
            <mxPoint x="765.22" y="329" as="sourcePoint" />
            <mxPoint x="765.22" y="259" as="targetPoint" />
          </mxGeometry>
        </mxCell>
        <mxCell id="sQltPLbZd4ANOyrqDS_2-107" value="LdStMov" style="text;strokeColor=none;fillColor=none;align=left;verticalAlign=middle;spacingLeft=4;spacingRight=4;overflow=hidden;points=[[0,0.5],[1,0.5]];portConstraint=eastwest;rotatable=0;whiteSpace=wrap;html=1;fontColor=#000000;fontStyle=1;fontSize=8;" parent="1" vertex="1">
          <mxGeometry x="50" y="476" width="50" height="20" as="geometry" />
        </mxCell>
        <mxCell id="sQltPLbZd4ANOyrqDS_2-108" value="BrJump" style="text;strokeColor=none;fillColor=none;align=left;verticalAlign=middle;spacingLeft=4;spacingRight=4;overflow=hidden;points=[[0,0.5],[1,0.5]];portConstraint=eastwest;rotatable=0;whiteSpace=wrap;html=1;fontColor=#000000;fontStyle=1;fontSize=8;" parent="1" vertex="1">
          <mxGeometry x="50" y="531" width="40" height="20" as="geometry" />
        </mxCell>
        <mxCell id="sQltPLbZd4ANOyrqDS_2-109" value="ULA1" style="text;strokeColor=none;fillColor=none;align=left;verticalAlign=middle;spacingLeft=4;spacingRight=4;overflow=hidden;points=[[0,0.5],[1,0.5]];portConstraint=eastwest;rotatable=0;whiteSpace=wrap;html=1;fontColor=#000000;fontStyle=1;fontSize=8;" parent="1" vertex="1">
          <mxGeometry x="50" y="386.5" width="30" height="20" as="geometry" />
        </mxCell>
        <mxCell id="sQltPLbZd4ANOyrqDS_2-110" value="ULA2" style="text;strokeColor=none;fillColor=none;align=right;verticalAlign=middle;spacingLeft=4;spacingRight=4;overflow=hidden;points=[[0,0.5],[1,0.5]];portConstraint=eastwest;rotatable=0;whiteSpace=wrap;html=1;fontColor=#000000;fontStyle=1;fontSize=8;" parent="1" vertex="1">
          <mxGeometry x="50" y="426.5" width="30" height="20" as="geometry" />
        </mxCell>
        <mxCell id="sQltPLbZd4ANOyrqDS_2-111" value="" style="endArrow=none;html=1;rounded=0;strokeColor=#000000;" parent="1" edge="1">
          <mxGeometry width="50" height="50" relative="1" as="geometry">
            <mxPoint x="90" y="540.8399999999999" as="sourcePoint" />
            <mxPoint x="120" y="540.84" as="targetPoint" />
          </mxGeometry>
        </mxCell>
        <mxCell id="sQltPLbZd4ANOyrqDS_2-112" value="" style="endArrow=none;html=1;rounded=0;strokeColor=#000000;" parent="1" edge="1">
          <mxGeometry width="50" height="50" relative="1" as="geometry">
            <mxPoint x="100" y="550.84" as="sourcePoint" />
            <mxPoint x="100" y="540.84" as="targetPoint" />
          </mxGeometry>
        </mxCell>
        <mxCell id="sQltPLbZd4ANOyrqDS_2-113" value="" style="endArrow=none;html=1;rounded=0;strokeColor=#000000;" parent="1" edge="1">
          <mxGeometry width="50" height="50" relative="1" as="geometry">
            <mxPoint x="100" y="550.84" as="sourcePoint" />
            <mxPoint x="110" y="551" as="targetPoint" />
          </mxGeometry>
        </mxCell>
        <mxCell id="sQltPLbZd4ANOyrqDS_2-114" value="" style="endArrow=none;html=1;rounded=0;strokeColor=#000000;" parent="1" edge="1">
          <mxGeometry width="50" height="50" relative="1" as="geometry">
            <mxPoint x="80" y="396.3399999999999" as="sourcePoint" />
            <mxPoint x="110" y="396.34000000000003" as="targetPoint" />
          </mxGeometry>
        </mxCell>
        <mxCell id="sQltPLbZd4ANOyrqDS_2-115" value="" style="endArrow=none;html=1;rounded=0;strokeColor=#000000;" parent="1" edge="1">
          <mxGeometry width="50" height="50" relative="1" as="geometry">
            <mxPoint x="90" y="406.34000000000003" as="sourcePoint" />
            <mxPoint x="110" y="406.34000000000003" as="targetPoint" />
          </mxGeometry>
        </mxCell>
        <mxCell id="sQltPLbZd4ANOyrqDS_2-116" value="" style="endArrow=none;html=1;rounded=0;strokeColor=#000000;" parent="1" edge="1">
          <mxGeometry width="50" height="50" relative="1" as="geometry">
            <mxPoint x="90" y="406.34000000000003" as="sourcePoint" />
            <mxPoint x="90" y="396.34000000000003" as="targetPoint" />
          </mxGeometry>
        </mxCell>
        <mxCell id="sQltPLbZd4ANOyrqDS_2-126" value="" style="endArrow=none;html=1;rounded=0;strokeColor=#000000;" parent="1" edge="1">
          <mxGeometry width="50" height="50" relative="1" as="geometry">
            <mxPoint x="90" y="485.51" as="sourcePoint" />
            <mxPoint x="120" y="485.51" as="targetPoint" />
          </mxGeometry>
        </mxCell>
        <mxCell id="sQltPLbZd4ANOyrqDS_2-127" value="" style="endArrow=none;html=1;rounded=0;strokeColor=#000000;" parent="1" edge="1">
          <mxGeometry width="50" height="50" relative="1" as="geometry">
            <mxPoint x="100" y="495.51" as="sourcePoint" />
            <mxPoint x="100" y="485.51" as="targetPoint" />
          </mxGeometry>
        </mxCell>
        <mxCell id="sQltPLbZd4ANOyrqDS_2-128" value="" style="endArrow=none;html=1;rounded=0;strokeColor=#000000;" parent="1" edge="1">
          <mxGeometry width="50" height="50" relative="1" as="geometry">
            <mxPoint x="100" y="495.51" as="sourcePoint" />
            <mxPoint x="110" y="495.67" as="targetPoint" />
          </mxGeometry>
        </mxCell>
        <mxCell id="sQltPLbZd4ANOyrqDS_2-129" value="" style="endArrow=none;html=1;rounded=0;strokeColor=#000000;fontColor=#959FD0;" parent="1" edge="1">
          <mxGeometry width="50" height="50" relative="1" as="geometry">
            <mxPoint x="145" y="512" as="sourcePoint" />
            <mxPoint x="145" y="495.81" as="targetPoint" />
          </mxGeometry>
        </mxCell>
        <mxCell id="sQltPLbZd4ANOyrqDS_2-130" value="" style="endArrow=none;html=1;rounded=0;strokeColor=#000000;" parent="1" edge="1">
          <mxGeometry width="50" height="50" relative="1" as="geometry">
            <mxPoint x="144.5" y="511.81" as="sourcePoint" />
            <mxPoint x="164.5" y="511.81" as="targetPoint" />
          </mxGeometry>
        </mxCell>
        <mxCell id="sQltPLbZd4ANOyrqDS_2-131" value="" style="endArrow=none;html=1;rounded=0;strokeColor=#000000;" parent="1" edge="1">
          <mxGeometry width="50" height="50" relative="1" as="geometry">
            <mxPoint x="135" y="495.81" as="sourcePoint" />
            <mxPoint x="165" y="495.81" as="targetPoint" />
          </mxGeometry>
        </mxCell>
        <mxCell id="sQltPLbZd4ANOyrqDS_2-132" value="" style="endArrow=none;html=1;rounded=0;strokeColor=#000000;" parent="1" edge="1">
          <mxGeometry width="50" height="50" relative="1" as="geometry">
            <mxPoint x="90" y="416.30999999999995" as="sourcePoint" />
            <mxPoint x="110" y="416.30999999999995" as="targetPoint" />
          </mxGeometry>
        </mxCell>
        <mxCell id="sQltPLbZd4ANOyrqDS_2-133" value="" style="endArrow=none;html=1;rounded=0;strokeColor=#000000;" parent="1" edge="1">
          <mxGeometry width="50" height="50" relative="1" as="geometry">
            <mxPoint x="90" y="416.30999999999995" as="sourcePoint" />
            <mxPoint x="90" y="406.30999999999995" as="targetPoint" />
          </mxGeometry>
        </mxCell>
        <mxCell id="sQltPLbZd4ANOyrqDS_2-139" value="" style="endArrow=none;html=1;rounded=0;strokeColor=#000000;" parent="1" edge="1">
          <mxGeometry width="50" height="50" relative="1" as="geometry">
            <mxPoint x="80" y="436.3399999999999" as="sourcePoint" />
            <mxPoint x="110" y="436.34000000000003" as="targetPoint" />
          </mxGeometry>
        </mxCell>
        <mxCell id="sQltPLbZd4ANOyrqDS_2-140" value="" style="endArrow=none;html=1;rounded=0;strokeColor=#000000;" parent="1" edge="1">
          <mxGeometry width="50" height="50" relative="1" as="geometry">
            <mxPoint x="90" y="446.34000000000003" as="sourcePoint" />
            <mxPoint x="110" y="446.34000000000003" as="targetPoint" />
          </mxGeometry>
        </mxCell>
        <mxCell id="sQltPLbZd4ANOyrqDS_2-141" value="" style="endArrow=none;html=1;rounded=0;strokeColor=#000000;" parent="1" edge="1">
          <mxGeometry width="50" height="50" relative="1" as="geometry">
            <mxPoint x="90" y="446.34000000000003" as="sourcePoint" />
            <mxPoint x="90" y="436.34000000000003" as="targetPoint" />
          </mxGeometry>
        </mxCell>
        <mxCell id="sQltPLbZd4ANOyrqDS_2-142" value="" style="endArrow=none;html=1;rounded=0;strokeColor=#000000;" parent="1" edge="1">
          <mxGeometry width="50" height="50" relative="1" as="geometry">
            <mxPoint x="90" y="456.30999999999995" as="sourcePoint" />
            <mxPoint x="110" y="456.30999999999995" as="targetPoint" />
          </mxGeometry>
        </mxCell>
        <mxCell id="sQltPLbZd4ANOyrqDS_2-143" value="" style="endArrow=none;html=1;rounded=0;strokeColor=#000000;" parent="1" edge="1">
          <mxGeometry width="50" height="50" relative="1" as="geometry">
            <mxPoint x="90" y="456.30999999999995" as="sourcePoint" />
            <mxPoint x="90" y="446.30999999999995" as="targetPoint" />
          </mxGeometry>
        </mxCell>
        <mxCell id="sQltPLbZd4ANOyrqDS_2-144" value="Imm1" style="text;strokeColor=none;fillColor=none;align=center;verticalAlign=middle;spacingLeft=4;spacingRight=4;overflow=hidden;points=[[0,0.5],[1,0.5]];portConstraint=eastwest;rotatable=0;whiteSpace=wrap;html=1;fontColor=#959FD0;fontStyle=1;fontSize=8;" parent="1" vertex="1">
          <mxGeometry x="105" y="486" width="35" height="20" as="geometry" />
        </mxCell>
        <mxCell id="sQltPLbZd4ANOyrqDS_2-145" value="Imm2" style="text;strokeColor=none;fillColor=none;align=center;verticalAlign=middle;spacingLeft=4;spacingRight=4;overflow=hidden;points=[[0,0.5],[1,0.5]];portConstraint=eastwest;rotatable=0;whiteSpace=wrap;html=1;fontColor=#959FD0;fontStyle=1;fontSize=8;" parent="1" vertex="1">
          <mxGeometry x="105" y="541" width="35" height="20" as="geometry" />
        </mxCell>
        <mxCell id="sQltPLbZd4ANOyrqDS_2-146" value="Ra1" style="text;strokeColor=none;fillColor=none;align=center;verticalAlign=middle;spacingLeft=4;spacingRight=4;overflow=hidden;points=[[0,0.5],[1,0.5]];portConstraint=eastwest;rotatable=0;whiteSpace=wrap;html=1;fontColor=#959FD0;fontStyle=1;fontSize=8;" parent="1" vertex="1">
          <mxGeometry x="177" y="480.5" width="30" height="20" as="geometry" />
        </mxCell>
        <mxCell id="sQltPLbZd4ANOyrqDS_2-147" value="Rb1" style="text;strokeColor=none;fillColor=none;align=center;verticalAlign=middle;spacingLeft=4;spacingRight=4;overflow=hidden;points=[[0,0.5],[1,0.5]];portConstraint=eastwest;rotatable=0;whiteSpace=wrap;html=1;fontColor=#959FD0;fontStyle=1;fontSize=8;" parent="1" vertex="1">
          <mxGeometry x="159.5" y="502" width="30" height="20" as="geometry" />
        </mxCell>
        <mxCell id="sQltPLbZd4ANOyrqDS_2-158" value="" style="endArrow=none;html=1;rounded=0;strokeColor=#000000;entryX=0;entryY=0.5;entryDx=0;entryDy=0;" parent="1" edge="1">
          <mxGeometry width="50" height="50" relative="1" as="geometry">
            <mxPoint x="555.22" y="269" as="sourcePoint" />
            <mxPoint x="575.22" y="269" as="targetPoint" />
          </mxGeometry>
        </mxCell>
        <mxCell id="sQltPLbZd4ANOyrqDS_2-159" value="Imm1" style="text;strokeColor=none;fillColor=none;align=center;verticalAlign=middle;spacingLeft=4;spacingRight=4;overflow=hidden;points=[[0,0.5],[1,0.5]];portConstraint=eastwest;rotatable=0;whiteSpace=wrap;html=1;fontColor=#959FD0;fontStyle=1;fontSize=8;" parent="1" vertex="1">
          <mxGeometry x="530.22" y="259" width="30" height="20" as="geometry" />
        </mxCell>
        <mxCell id="GPnvoERwja8jPOV7Nugl-3" value="Ra3" style="text;strokeColor=none;fillColor=none;align=center;verticalAlign=middle;spacingLeft=4;spacingRight=4;overflow=hidden;points=[[0,0.5],[1,0.5]];portConstraint=eastwest;rotatable=0;whiteSpace=wrap;html=1;fontColor=#959FD0;fontStyle=1;fontSize=8;" parent="1" vertex="1">
          <mxGeometry x="105" y="396.5" width="30" height="20" as="geometry" />
        </mxCell>
        <mxCell id="GPnvoERwja8jPOV7Nugl-4" value="Rb3" style="text;strokeColor=none;fillColor=none;align=center;verticalAlign=middle;spacingLeft=4;spacingRight=4;overflow=hidden;points=[[0,0.5],[1,0.5]];portConstraint=eastwest;rotatable=0;whiteSpace=wrap;html=1;fontColor=#959FD0;fontStyle=1;fontSize=8;" parent="1" vertex="1">
          <mxGeometry x="105" y="406.5" width="30" height="20" as="geometry" />
        </mxCell>
        <mxCell id="GPnvoERwja8jPOV7Nugl-5" value="Rb4" style="text;strokeColor=none;fillColor=none;align=center;verticalAlign=middle;spacingLeft=4;spacingRight=4;overflow=hidden;points=[[0,0.5],[1,0.5]];portConstraint=eastwest;rotatable=0;whiteSpace=wrap;html=1;fontColor=#959FD0;fontStyle=1;fontSize=8;" parent="1" vertex="1">
          <mxGeometry x="105" y="446.5" width="30" height="20" as="geometry" />
        </mxCell>
        <mxCell id="GPnvoERwja8jPOV7Nugl-6" value="Ra4" style="text;strokeColor=none;fillColor=none;align=center;verticalAlign=middle;spacingLeft=4;spacingRight=4;overflow=hidden;points=[[0,0.5],[1,0.5]];portConstraint=eastwest;rotatable=0;whiteSpace=wrap;html=1;fontColor=#959FD0;fontStyle=1;fontSize=8;" parent="1" vertex="1">
          <mxGeometry x="105" y="436.5" width="30" height="20" as="geometry" />
        </mxCell>
        <mxCell id="GPnvoERwja8jPOV7Nugl-8" value="Rb1" style="text;strokeColor=none;fillColor=none;align=center;verticalAlign=middle;spacingLeft=4;spacingRight=4;overflow=hidden;points=[[0,0.5],[1,0.5]];portConstraint=eastwest;rotatable=0;whiteSpace=wrap;html=1;fontColor=#959FD0;fontStyle=1;fontSize=8;" parent="1" vertex="1">
          <mxGeometry x="355.00000000000006" y="310" width="30" height="20" as="geometry" />
        </mxCell>
        <mxCell id="GPnvoERwja8jPOV7Nugl-9" value="Ra1" style="text;strokeColor=none;fillColor=none;align=center;verticalAlign=middle;spacingLeft=4;spacingRight=4;overflow=hidden;points=[[0,0.5],[1,0.5]];portConstraint=eastwest;rotatable=0;whiteSpace=wrap;html=1;fontColor=#959FD0;fontStyle=1;fontSize=8;" parent="1" vertex="1">
          <mxGeometry x="355.00000000000006" y="300" width="30" height="20" as="geometry" />
        </mxCell>
        <mxCell id="GPnvoERwja8jPOV7Nugl-16" value="Ra2" style="text;strokeColor=none;fillColor=none;align=center;verticalAlign=middle;spacingLeft=4;spacingRight=4;overflow=hidden;points=[[0,0.5],[1,0.5]];portConstraint=eastwest;rotatable=0;whiteSpace=wrap;html=1;fontColor=#959FD0;fontStyle=1;fontSize=8;" parent="1" vertex="1">
          <mxGeometry x="355.00000000000006" y="330" width="30" height="20" as="geometry" />
        </mxCell>
        <mxCell id="GPnvoERwja8jPOV7Nugl-17" value="Rb2" style="text;strokeColor=none;fillColor=none;align=center;verticalAlign=middle;spacingLeft=4;spacingRight=4;overflow=hidden;points=[[0,0.5],[1,0.5]];portConstraint=eastwest;rotatable=0;whiteSpace=wrap;html=1;fontColor=#959FD0;fontStyle=1;fontSize=8;" parent="1" vertex="1">
          <mxGeometry x="355.00000000000006" y="340" width="30" height="20" as="geometry" />
        </mxCell>
        <mxCell id="GPnvoERwja8jPOV7Nugl-18" value="Ra3" style="text;strokeColor=none;fillColor=none;align=center;verticalAlign=middle;spacingLeft=4;spacingRight=4;overflow=hidden;points=[[0,0.5],[1,0.5]];portConstraint=eastwest;rotatable=0;whiteSpace=wrap;html=1;fontColor=#959FD0;fontStyle=1;fontSize=8;" parent="1" vertex="1">
          <mxGeometry x="355.00000000000006" y="365" width="30" height="20" as="geometry" />
        </mxCell>
        <mxCell id="GPnvoERwja8jPOV7Nugl-19" value="Rb3" style="text;strokeColor=none;fillColor=none;align=center;verticalAlign=middle;spacingLeft=4;spacingRight=4;overflow=hidden;points=[[0,0.5],[1,0.5]];portConstraint=eastwest;rotatable=0;whiteSpace=wrap;html=1;fontColor=#959FD0;fontStyle=1;fontSize=8;" parent="1" vertex="1">
          <mxGeometry x="355.00000000000006" y="375" width="30" height="20" as="geometry" />
        </mxCell>
        <mxCell id="GPnvoERwja8jPOV7Nugl-20" value="Rb4" style="text;strokeColor=none;fillColor=none;align=center;verticalAlign=middle;spacingLeft=4;spacingRight=4;overflow=hidden;points=[[0,0.5],[1,0.5]];portConstraint=eastwest;rotatable=0;whiteSpace=wrap;html=1;fontColor=#959FD0;fontStyle=1;fontSize=8;" parent="1" vertex="1">
          <mxGeometry x="355.00000000000006" y="410" width="30" height="20" as="geometry" />
        </mxCell>
        <mxCell id="GPnvoERwja8jPOV7Nugl-21" value="Ra4" style="text;strokeColor=none;fillColor=none;align=center;verticalAlign=middle;spacingLeft=4;spacingRight=4;overflow=hidden;points=[[0,0.5],[1,0.5]];portConstraint=eastwest;rotatable=0;whiteSpace=wrap;html=1;fontColor=#959FD0;fontStyle=1;fontSize=8;" parent="1" vertex="1">
          <mxGeometry x="355.00000000000006" y="400" width="30" height="20" as="geometry" />
        </mxCell>
        <mxCell id="GPnvoERwja8jPOV7Nugl-22" value="op1" style="text;strokeColor=none;fillColor=none;align=left;verticalAlign=middle;spacingLeft=4;spacingRight=4;overflow=hidden;points=[[0,0.5],[1,0.5]];portConstraint=eastwest;rotatable=0;whiteSpace=wrap;html=1;fontColor=#959FD0;fontStyle=1;fontSize=8;" parent="1" vertex="1">
          <mxGeometry x="117.5" y="475" width="25" height="20" as="geometry" />
        </mxCell>
        <mxCell id="GPnvoERwja8jPOV7Nugl-23" value="op2" style="text;strokeColor=none;fillColor=none;align=left;verticalAlign=middle;spacingLeft=4;spacingRight=4;overflow=hidden;points=[[0,0.5],[1,0.5]];portConstraint=eastwest;rotatable=0;whiteSpace=wrap;html=1;fontColor=#959FD0;fontStyle=1;fontSize=8;" parent="1" vertex="1">
          <mxGeometry x="117.5" y="531" width="25" height="20" as="geometry" />
        </mxCell>
        <mxCell id="GPnvoERwja8jPOV7Nugl-24" value="op3" style="text;strokeColor=none;fillColor=none;align=left;verticalAlign=middle;spacingLeft=4;spacingRight=4;overflow=hidden;points=[[0,0.5],[1,0.5]];portConstraint=eastwest;rotatable=0;whiteSpace=wrap;html=1;fontColor=#959FD0;fontStyle=1;fontSize=8;" parent="1" vertex="1">
          <mxGeometry x="107.5" y="386.5" width="25" height="20" as="geometry" />
        </mxCell>
        <mxCell id="GPnvoERwja8jPOV7Nugl-25" value="op4" style="text;strokeColor=none;fillColor=none;align=left;verticalAlign=middle;spacingLeft=4;spacingRight=4;overflow=hidden;points=[[0,0.5],[1,0.5]];portConstraint=eastwest;rotatable=0;whiteSpace=wrap;html=1;fontColor=#959FD0;fontStyle=1;fontSize=8;" parent="1" vertex="1">
          <mxGeometry x="107.5" y="426.5" width="25" height="20" as="geometry" />
        </mxCell>
        <mxCell id="GPnvoERwja8jPOV7Nugl-26" value="op1" style="text;strokeColor=none;fillColor=none;align=left;verticalAlign=middle;spacingLeft=4;spacingRight=4;overflow=hidden;points=[[0,0.5],[1,0.5]];portConstraint=eastwest;rotatable=0;whiteSpace=wrap;html=1;fontColor=#959FD0;fontStyle=1;fontSize=8;" parent="1" vertex="1">
          <mxGeometry x="230" y="472" width="25" height="20" as="geometry" />
        </mxCell>
        <mxCell id="GPnvoERwja8jPOV7Nugl-27" value="op2" style="text;strokeColor=none;fillColor=none;align=left;verticalAlign=middle;spacingLeft=4;spacingRight=4;overflow=hidden;points=[[0,0.5],[1,0.5]];portConstraint=eastwest;rotatable=0;whiteSpace=wrap;html=1;fontColor=#959FD0;fontStyle=1;fontSize=8;" parent="1" vertex="1">
          <mxGeometry x="230" y="492" width="25" height="20" as="geometry" />
        </mxCell>
        <mxCell id="GPnvoERwja8jPOV7Nugl-28" value="op3" style="text;strokeColor=none;fillColor=none;align=left;verticalAlign=middle;spacingLeft=4;spacingRight=4;overflow=hidden;points=[[0,0.5],[1,0.5]];portConstraint=eastwest;rotatable=0;whiteSpace=wrap;html=1;fontColor=#959FD0;fontStyle=1;fontSize=8;" parent="1" vertex="1">
          <mxGeometry x="230" y="512" width="25" height="20" as="geometry" />
        </mxCell>
        <mxCell id="GPnvoERwja8jPOV7Nugl-29" value="op4" style="text;strokeColor=none;fillColor=none;align=left;verticalAlign=middle;spacingLeft=4;spacingRight=4;overflow=hidden;points=[[0,0.5],[1,0.5]];portConstraint=eastwest;rotatable=0;whiteSpace=wrap;html=1;fontColor=#959FD0;fontStyle=1;fontSize=8;" parent="1" vertex="1">
          <mxGeometry x="230" y="532" width="25" height="20" as="geometry" />
        </mxCell>
        <mxCell id="GPnvoERwja8jPOV7Nugl-31" value="BBrJump" style="text;strokeColor=none;fillColor=none;align=center;verticalAlign=middle;spacingLeft=4;spacingRight=4;overflow=hidden;points=[[0,0.5],[1,0.5]];portConstraint=eastwest;rotatable=0;whiteSpace=wrap;html=1;fontColor=#959FD0;fontStyle=1;fontSize=8;" parent="1" vertex="1">
          <mxGeometry x="500.22" y="339" width="50" height="20" as="geometry" />
        </mxCell>
        <mxCell id="GPnvoERwja8jPOV7Nugl-32" value="ABrJump" style="text;strokeColor=none;fillColor=none;align=center;verticalAlign=middle;spacingLeft=4;spacingRight=4;overflow=hidden;points=[[0,0.5],[1,0.5]];portConstraint=eastwest;rotatable=0;whiteSpace=wrap;html=1;fontColor=#959FD0;fontStyle=1;fontSize=8;" parent="1" vertex="1">
          <mxGeometry x="595.22" y="329" width="50" height="20" as="geometry" />
        </mxCell>
        <mxCell id="GPnvoERwja8jPOV7Nugl-34" value="" style="endArrow=none;html=1;rounded=0;strokeColor=#000000;" parent="1" edge="1">
          <mxGeometry width="50" height="50" relative="1" as="geometry">
            <mxPoint x="590.22" y="340" as="sourcePoint" />
            <mxPoint x="600.22" y="340" as="targetPoint" />
          </mxGeometry>
        </mxCell>
        <mxCell id="GPnvoERwja8jPOV7Nugl-35" value="high" style="text;strokeColor=none;fillColor=none;align=left;verticalAlign=middle;spacingLeft=4;spacingRight=4;overflow=hidden;points=[[0,0.5],[1,0.5]];portConstraint=eastwest;rotatable=0;whiteSpace=wrap;html=1;fontColor=#FD91C0;fontStyle=1;fontSize=8;" parent="1" vertex="1">
          <mxGeometry x="345.00000000000006" y="447" width="30" height="20" as="geometry" />
        </mxCell>
        <mxCell id="GPnvoERwja8jPOV7Nugl-36" value="mov" style="text;strokeColor=none;fillColor=none;align=left;verticalAlign=middle;spacingLeft=4;spacingRight=4;overflow=hidden;points=[[0,0.5],[1,0.5]];portConstraint=eastwest;rotatable=0;whiteSpace=wrap;html=1;fontColor=#FD91C0;fontStyle=1;fontSize=8;" parent="1" vertex="1">
          <mxGeometry x="345.00000000000006" y="457" width="30" height="20" as="geometry" />
        </mxCell>
        <mxCell id="GPnvoERwja8jPOV7Nugl-37" value="WELSM" style="text;strokeColor=none;fillColor=none;align=left;verticalAlign=middle;spacingLeft=4;spacingRight=4;overflow=hidden;points=[[0,0.5],[1,0.5]];portConstraint=eastwest;rotatable=0;whiteSpace=wrap;html=1;fontColor=#FD91C0;fontStyle=1;fontSize=8;" parent="1" vertex="1">
          <mxGeometry x="345.00000000000006" y="467" width="40" height="20" as="geometry" />
        </mxCell>
        <mxCell id="GPnvoERwja8jPOV7Nugl-38" value="WEmem" style="text;strokeColor=none;fillColor=none;align=left;verticalAlign=middle;spacingLeft=4;spacingRight=4;overflow=hidden;points=[[0,0.5],[1,0.5]];portConstraint=eastwest;rotatable=0;whiteSpace=wrap;html=1;fontColor=#FD91C0;fontStyle=1;fontSize=8;" parent="1" vertex="1">
          <mxGeometry x="345.00000000000006" y="477" width="45" height="20" as="geometry" />
        </mxCell>
        <mxCell id="GPnvoERwja8jPOV7Nugl-39" value="brzr" style="text;strokeColor=none;fillColor=none;align=left;verticalAlign=middle;spacingLeft=4;spacingRight=4;overflow=hidden;points=[[0,0.5],[1,0.5]];portConstraint=eastwest;rotatable=0;whiteSpace=wrap;html=1;fontColor=#FD91C0;fontStyle=1;fontSize=8;" parent="1" vertex="1">
          <mxGeometry x="345.00000000000006" y="487" width="45" height="20" as="geometry" />
        </mxCell>
        <mxCell id="GPnvoERwja8jPOV7Nugl-40" value="jumpi" style="text;strokeColor=none;fillColor=none;align=left;verticalAlign=middle;spacingLeft=4;spacingRight=4;overflow=hidden;points=[[0,0.5],[1,0.5]];portConstraint=eastwest;rotatable=0;whiteSpace=wrap;html=1;fontColor=#FD91C0;fontStyle=1;fontSize=8;" parent="1" vertex="1">
          <mxGeometry x="345.00000000000006" y="497" width="45" height="20" as="geometry" />
        </mxCell>
        <mxCell id="GPnvoERwja8jPOV7Nugl-41" value="jump" style="text;strokeColor=none;fillColor=none;align=left;verticalAlign=middle;spacingLeft=4;spacingRight=4;overflow=hidden;points=[[0,0.5],[1,0.5]];portConstraint=eastwest;rotatable=0;whiteSpace=wrap;html=1;fontColor=#FD91C0;fontStyle=1;fontSize=8;" parent="1" vertex="1">
          <mxGeometry x="345.00000000000006" y="507" width="45" height="20" as="geometry" />
        </mxCell>
        <mxCell id="GPnvoERwja8jPOV7Nugl-42" value="IBrJump" style="text;strokeColor=none;fillColor=none;align=left;verticalAlign=middle;spacingLeft=4;spacingRight=4;overflow=hidden;points=[[0,0.5],[1,0.5]];portConstraint=eastwest;rotatable=0;whiteSpace=wrap;html=1;fontColor=#FD91C0;fontStyle=1;fontSize=8;" parent="1" vertex="1">
          <mxGeometry x="345.00000000000006" y="517" width="45" height="20" as="geometry" />
        </mxCell>
        <mxCell id="GPnvoERwja8jPOV7Nugl-43" value="WEULA1" style="text;strokeColor=none;fillColor=none;align=left;verticalAlign=middle;spacingLeft=4;spacingRight=4;overflow=hidden;points=[[0,0.5],[1,0.5]];portConstraint=eastwest;rotatable=0;whiteSpace=wrap;html=1;fontColor=#FD91C0;fontStyle=1;fontSize=8;" parent="1" vertex="1">
          <mxGeometry x="345.00000000000006" y="527" width="45" height="20" as="geometry" />
        </mxCell>
        <mxCell id="GPnvoERwja8jPOV7Nugl-44" value="opULA1" style="text;strokeColor=none;fillColor=none;align=left;verticalAlign=middle;spacingLeft=4;spacingRight=4;overflow=hidden;points=[[0,0.5],[1,0.5]];portConstraint=eastwest;rotatable=0;whiteSpace=wrap;html=1;fontColor=#FD91C0;fontStyle=1;fontSize=8;" parent="1" vertex="1">
          <mxGeometry x="345.00000000000006" y="537" width="45" height="20" as="geometry" />
        </mxCell>
        <mxCell id="GPnvoERwja8jPOV7Nugl-45" value="WEULA2" style="text;strokeColor=none;fillColor=none;align=left;verticalAlign=middle;spacingLeft=4;spacingRight=4;overflow=hidden;points=[[0,0.5],[1,0.5]];portConstraint=eastwest;rotatable=0;whiteSpace=wrap;html=1;fontColor=#FD91C0;fontStyle=1;fontSize=8;" parent="1" vertex="1">
          <mxGeometry x="345.00000000000006" y="547" width="45" height="20" as="geometry" />
        </mxCell>
        <mxCell id="GPnvoERwja8jPOV7Nugl-46" value="opULA2" style="text;strokeColor=none;fillColor=none;align=left;verticalAlign=middle;spacingLeft=4;spacingRight=4;overflow=hidden;points=[[0,0.5],[1,0.5]];portConstraint=eastwest;rotatable=0;whiteSpace=wrap;html=1;fontColor=#FD91C0;fontStyle=1;fontSize=8;" parent="1" vertex="1">
          <mxGeometry x="345.00000000000006" y="557" width="45" height="20" as="geometry" />
        </mxCell>
        <mxCell id="GPnvoERwja8jPOV7Nugl-47" value="" style="rounded=0;whiteSpace=wrap;html=1;fillColor=#FFF2CD;strokeColor=#000000;strokeWidth=1;fillStyle=solid;" parent="1" vertex="1">
          <mxGeometry x="145" y="319.5" width="35" height="41" as="geometry" />
        </mxCell>
        <mxCell id="GPnvoERwja8jPOV7Nugl-48" value="PC" style="text;strokeColor=none;fillColor=none;align=center;verticalAlign=middle;spacingLeft=4;spacingRight=4;overflow=hidden;points=[[0,0.5],[1,0.5]];portConstraint=eastwest;rotatable=0;whiteSpace=wrap;html=1;fontColor=#000000;fontStyle=1" parent="1" vertex="1">
          <mxGeometry x="147.5" y="328.5" width="30" height="21" as="geometry" />
        </mxCell>
        <mxCell id="GPnvoERwja8jPOV7Nugl-49" value="" style="endArrow=none;html=1;rounded=0;strokeColor=#000000;exitX=1.005;exitY=0.231;exitDx=0;exitDy=0;exitPerimeter=0;" parent="1" source="GPnvoERwja8jPOV7Nugl-47" edge="1">
          <mxGeometry width="50" height="50" relative="1" as="geometry">
            <mxPoint x="180" y="328.5" as="sourcePoint" />
            <mxPoint x="205" y="329" as="targetPoint" />
          </mxGeometry>
        </mxCell>
        <mxCell id="GPnvoERwja8jPOV7Nugl-50" value="" style="shape=trapezoid;perimeter=trapezoidPerimeter;whiteSpace=wrap;html=1;fixedSize=1;rounded=0;shadow=0;fillColor=#FFFFFF;strokeColor=#000000;rotation=90;size=10;" parent="1" vertex="1">
          <mxGeometry x="105" y="324" width="30" height="10" as="geometry" />
        </mxCell>
        <mxCell id="GPnvoERwja8jPOV7Nugl-51" value="" style="endArrow=none;html=1;rounded=0;strokeColor=#000000;entryX=0;entryY=0.25;entryDx=0;entryDy=0;exitX=0.519;exitY=0.016;exitDx=0;exitDy=0;exitPerimeter=0;" parent="1" source="GPnvoERwja8jPOV7Nugl-50" target="GPnvoERwja8jPOV7Nugl-47" edge="1">
          <mxGeometry width="50" height="50" relative="1" as="geometry">
            <mxPoint x="125" y="329" as="sourcePoint" />
            <mxPoint x="145" y="330.5" as="targetPoint" />
          </mxGeometry>
        </mxCell>
        <mxCell id="GPnvoERwja8jPOV7Nugl-52" value="" style="endArrow=none;html=1;rounded=0;strokeColor=#000000;entryX=0;entryY=0.25;entryDx=0;entryDy=0;exitX=0.519;exitY=0.016;exitDx=0;exitDy=0;exitPerimeter=0;" parent="1" edge="1">
          <mxGeometry width="50" height="50" relative="1" as="geometry">
            <mxPoint x="95" y="333.72" as="sourcePoint" />
            <mxPoint x="115" y="333.72" as="targetPoint" />
          </mxGeometry>
        </mxCell>
        <mxCell id="GPnvoERwja8jPOV7Nugl-53" value="BBrJump" style="text;strokeColor=none;fillColor=none;align=center;verticalAlign=middle;spacingLeft=4;spacingRight=4;overflow=hidden;points=[[0,0.5],[1,0.5]];portConstraint=eastwest;rotatable=0;whiteSpace=wrap;html=1;fontColor=#959FD0;fontStyle=1;fontSize=8;" parent="1" vertex="1">
          <mxGeometry x="50" y="324" width="50" height="20" as="geometry" />
        </mxCell>
        <mxCell id="GPnvoERwja8jPOV7Nugl-54" value="" style="endArrow=none;html=1;rounded=0;strokeColor=#000000;" parent="1" edge="1">
          <mxGeometry width="50" height="50" relative="1" as="geometry">
            <mxPoint x="70" y="320" as="sourcePoint" />
            <mxPoint x="115" y="319.5" as="targetPoint" />
          </mxGeometry>
        </mxCell>
        <mxCell id="GPnvoERwja8jPOV7Nugl-55" value="" style="endArrow=none;html=1;rounded=0;strokeColor=#000000;" parent="1" edge="1">
          <mxGeometry width="50" height="50" relative="1" as="geometry">
            <mxPoint x="70" y="320" as="sourcePoint" />
            <mxPoint x="70" y="245" as="targetPoint" />
          </mxGeometry>
        </mxCell>
        <mxCell id="GPnvoERwja8jPOV7Nugl-57" value="" style="verticalLabelPosition=bottom;shadow=0;dashed=0;align=center;html=1;verticalAlign=top;shape=mxgraph.electrical.logic_gates.logic_gate;operation=or;rotation=90;fillColor=#FFFFFF;strokeColor=#000000;" parent="1" vertex="1">
          <mxGeometry x="106.78" y="293.16" width="25.38" height="18.56" as="geometry" />
        </mxCell>
        <mxCell id="GPnvoERwja8jPOV7Nugl-58" value="" style="endArrow=none;html=1;rounded=0;strokeColor=#000000;" parent="1" edge="1">
          <mxGeometry width="50" height="50" relative="1" as="geometry">
            <mxPoint x="120" y="319.5" as="sourcePoint" />
            <mxPoint x="120" y="309.5" as="targetPoint" />
          </mxGeometry>
        </mxCell>
        <mxCell id="GPnvoERwja8jPOV7Nugl-59" value="" style="endArrow=none;html=1;rounded=0;strokeColor=#000000;" parent="1" edge="1">
          <mxGeometry width="50" height="50" relative="1" as="geometry">
            <mxPoint x="124" y="290" as="sourcePoint" />
            <mxPoint x="135" y="290" as="targetPoint" />
          </mxGeometry>
        </mxCell>
        <mxCell id="GPnvoERwja8jPOV7Nugl-60" value="jump" style="text;strokeColor=none;fillColor=none;align=left;verticalAlign=middle;spacingLeft=4;spacingRight=4;overflow=hidden;points=[[0,0.5],[1,0.5]];portConstraint=eastwest;rotatable=0;whiteSpace=wrap;html=1;fontColor=#FD91C0;fontStyle=1;fontSize=8;" parent="1" vertex="1">
          <mxGeometry x="132.38" y="279" width="32.5" height="20" as="geometry" />
        </mxCell>
        <mxCell id="GPnvoERwja8jPOV7Nugl-62" value="r" style="verticalLabelPosition=bottom;shadow=0;dashed=0;align=center;html=1;verticalAlign=top;shape=mxgraph.electrical.logic_gates.logic_gate;operation=and;rotation=90;fillColor=#FFFFFF;strokeColor=#000000;" parent="1" vertex="1">
          <mxGeometry x="102.74" y="271.27" width="24.09" height="15.47" as="geometry" />
        </mxCell>
        <mxCell id="GPnvoERwja8jPOV7Nugl-64" value="brzr" style="text;strokeColor=none;fillColor=none;align=left;verticalAlign=middle;spacingLeft=4;spacingRight=4;overflow=hidden;points=[[0,0.5],[1,0.5]];portConstraint=eastwest;rotatable=0;whiteSpace=wrap;html=1;fontColor=#FD91C0;fontStyle=1;fontSize=8;" parent="1" vertex="1">
          <mxGeometry x="112" y="251.53" width="45" height="20" as="geometry" />
        </mxCell>
        <mxCell id="GPnvoERwja8jPOV7Nugl-65" value="ABrJump" style="text;strokeColor=none;fillColor=none;align=center;verticalAlign=middle;spacingLeft=4;spacingRight=4;overflow=hidden;points=[[0,0.5],[1,0.5]];portConstraint=eastwest;rotatable=0;whiteSpace=wrap;html=1;fontColor=#959FD0;fontStyle=1;fontSize=8;" parent="1" vertex="1">
          <mxGeometry x="70" y="250.5" width="50" height="20" as="geometry" />
        </mxCell>
        <mxCell id="GPnvoERwja8jPOV7Nugl-66" value="" style="endArrow=none;html=1;rounded=0;strokeColor=#000000;" parent="1" edge="1">
          <mxGeometry width="50" height="50" relative="1" as="geometry">
            <mxPoint x="70" y="245.5" as="sourcePoint" />
            <mxPoint x="160" y="245" as="targetPoint" />
          </mxGeometry>
        </mxCell>
        <mxCell id="GPnvoERwja8jPOV7Nugl-67" value="" style="rounded=0;whiteSpace=wrap;html=1;fillColor=#FFF2CD;strokeColor=#000000;strokeWidth=1;fillStyle=solid;" parent="1" vertex="1">
          <mxGeometry x="160" y="235" width="20" height="20" as="geometry" />
        </mxCell>
        <mxCell id="GPnvoERwja8jPOV7Nugl-68" value="+" style="text;strokeColor=none;fillColor=none;align=center;verticalAlign=middle;spacingLeft=4;spacingRight=4;overflow=hidden;points=[[0,0.5],[1,0.5]];portConstraint=eastwest;rotatable=0;whiteSpace=wrap;html=1;fontColor=#000000;fontStyle=1" parent="1" vertex="1">
          <mxGeometry x="161" y="234.5" width="18" height="21" as="geometry" />
        </mxCell>
        <mxCell id="GPnvoERwja8jPOV7Nugl-71" value="" style="shape=trapezoid;perimeter=trapezoidPerimeter;whiteSpace=wrap;html=1;fixedSize=1;rounded=0;shadow=0;fillColor=#FFFFFF;strokeColor=#000000;rotation=-90;size=10;" parent="1" vertex="1">
          <mxGeometry x="185" y="240" width="30" height="10" as="geometry" />
        </mxCell>
        <mxCell id="GPnvoERwja8jPOV7Nugl-72" value="" style="endArrow=none;html=1;rounded=0;strokeColor=#000000;" parent="1" edge="1">
          <mxGeometry width="50" height="50" relative="1" as="geometry">
            <mxPoint x="180" y="245.25" as="sourcePoint" />
            <mxPoint x="195" y="245" as="targetPoint" />
          </mxGeometry>
        </mxCell>
        <mxCell id="GPnvoERwja8jPOV7Nugl-73" value="" style="endArrow=none;html=1;rounded=0;strokeColor=#000000;exitX=0.325;exitY=0.975;exitDx=0;exitDy=0;exitPerimeter=0;" parent="1" source="GPnvoERwja8jPOV7Nugl-71" edge="1">
          <mxGeometry width="50" height="50" relative="1" as="geometry">
            <mxPoint x="205" y="249.25" as="sourcePoint" />
            <mxPoint x="220" y="250" as="targetPoint" />
          </mxGeometry>
        </mxCell>
        <mxCell id="GPnvoERwja8jPOV7Nugl-74" value="1" style="text;strokeColor=none;fillColor=none;align=center;verticalAlign=middle;spacingLeft=4;spacingRight=4;overflow=hidden;points=[[0,0.5],[1,0.5]];portConstraint=eastwest;rotatable=0;whiteSpace=wrap;html=1;fontColor=#000000;fontStyle=1" parent="1" vertex="1">
          <mxGeometry x="215" y="240" width="15" height="15" as="geometry" />
        </mxCell>
        <mxCell id="GPnvoERwja8jPOV7Nugl-75" value="" style="endArrow=none;html=1;rounded=0;strokeColor=#000000;" parent="1" edge="1">
          <mxGeometry width="50" height="50" relative="1" as="geometry">
            <mxPoint x="205" y="240" as="sourcePoint" />
            <mxPoint x="240" y="240" as="targetPoint" />
          </mxGeometry>
        </mxCell>
        <mxCell id="GPnvoERwja8jPOV7Nugl-77" value="" style="rounded=0;whiteSpace=wrap;html=1;fillColor=light-dark(#FFF2CD,#FFF2CD);strokeColor=#000000;strokeWidth=1;fillStyle=solid;" parent="1" vertex="1">
          <mxGeometry x="240" y="230" width="55" height="20" as="geometry" />
        </mxCell>
        <mxCell id="GPnvoERwja8jPOV7Nugl-76" value="signExt" style="text;strokeColor=none;fillColor=none;align=center;verticalAlign=middle;spacingLeft=4;spacingRight=4;overflow=hidden;points=[[0,0.5],[1,0.5]];portConstraint=eastwest;rotatable=0;whiteSpace=wrap;html=1;fontColor=#000000;fontStyle=1" parent="1" vertex="1">
          <mxGeometry x="241" y="229" width="53" height="21" as="geometry" />
        </mxCell>
        <mxCell id="GPnvoERwja8jPOV7Nugl-79" value="" style="endArrow=none;html=1;rounded=0;strokeColor=#000000;" parent="1" edge="1">
          <mxGeometry width="50" height="50" relative="1" as="geometry">
            <mxPoint x="295" y="239.85" as="sourcePoint" />
            <mxPoint x="310" y="240" as="targetPoint" />
          </mxGeometry>
        </mxCell>
        <mxCell id="GPnvoERwja8jPOV7Nugl-80" value="Imm2" style="text;strokeColor=none;fillColor=none;align=center;verticalAlign=middle;spacingLeft=4;spacingRight=4;overflow=hidden;points=[[0,0.5],[1,0.5]];portConstraint=eastwest;rotatable=0;whiteSpace=wrap;html=1;fontColor=#959FD0;fontStyle=1;fontSize=8;" parent="1" vertex="1">
          <mxGeometry x="305" y="229" width="35" height="20" as="geometry" />
        </mxCell>
        <mxCell id="GPnvoERwja8jPOV7Nugl-81" value="" style="endArrow=none;html=1;rounded=0;strokeColor=#000000;" parent="1" edge="1">
          <mxGeometry width="50" height="50" relative="1" as="geometry">
            <mxPoint x="200" y="265" as="sourcePoint" />
            <mxPoint x="199.87" y="255" as="targetPoint" />
          </mxGeometry>
        </mxCell>
        <mxCell id="GPnvoERwja8jPOV7Nugl-82" value="" style="verticalLabelPosition=bottom;shadow=0;dashed=0;align=center;html=1;verticalAlign=top;shape=mxgraph.electrical.logic_gates.logic_gate;operation=or;rotation=-90;fillColor=#FFFFFF;strokeColor=#000000;" parent="1" vertex="1">
          <mxGeometry x="187.31" y="259" width="25.38" height="18" as="geometry" />
        </mxCell>
        <mxCell id="GPnvoERwja8jPOV7Nugl-83" value="jumpi" style="text;strokeColor=none;fillColor=none;align=left;verticalAlign=middle;spacingLeft=4;spacingRight=4;overflow=hidden;points=[[0,0.5],[1,0.5]];portConstraint=eastwest;rotatable=0;whiteSpace=wrap;html=1;fontColor=#FD91C0;fontStyle=1;fontSize=8;" parent="1" vertex="1">
          <mxGeometry x="170" y="277" width="32.5" height="20" as="geometry" />
        </mxCell>
        <mxCell id="GPnvoERwja8jPOV7Nugl-84" value="" style="endArrow=none;html=1;rounded=0;strokeColor=#000000;exitX=0.027;exitY=0.778;exitDx=0;exitDy=0;exitPerimeter=0;" parent="1" edge="1">
          <mxGeometry width="50" height="50" relative="1" as="geometry">
            <mxPoint x="205.00399999999996" y="280.01473999999996" as="sourcePoint" />
            <mxPoint x="220" y="280.01" as="targetPoint" />
          </mxGeometry>
        </mxCell>
        <mxCell id="GPnvoERwja8jPOV7Nugl-86" value="r" style="verticalLabelPosition=bottom;shadow=0;dashed=0;align=center;html=1;verticalAlign=top;shape=mxgraph.electrical.logic_gates.logic_gate;operation=and;rotation=-180;fillColor=#FFFFFF;strokeColor=#000000;" parent="1" vertex="1">
          <mxGeometry x="218" y="271.53" width="26.59" height="17.05" as="geometry" />
        </mxCell>
        <mxCell id="GPnvoERwja8jPOV7Nugl-87" value="IBrJump" style="text;strokeColor=none;fillColor=none;align=left;verticalAlign=middle;spacingLeft=4;spacingRight=4;overflow=hidden;points=[[0,0.5],[1,0.5]];portConstraint=eastwest;rotatable=0;whiteSpace=wrap;html=1;fontColor=#959FD0;fontStyle=1;fontSize=8;" parent="1" vertex="1">
          <mxGeometry x="240" y="274" width="45" height="20" as="geometry" />
        </mxCell>
        <mxCell id="GPnvoERwja8jPOV7Nugl-88" value="ABrJump" style="text;strokeColor=none;fillColor=none;align=center;verticalAlign=middle;spacingLeft=4;spacingRight=4;overflow=hidden;points=[[0,0.5],[1,0.5]];portConstraint=eastwest;rotatable=0;whiteSpace=wrap;html=1;fontColor=#959FD0;fontStyle=1;fontSize=8;" parent="1" vertex="1">
          <mxGeometry x="240" y="264" width="50" height="20" as="geometry" />
        </mxCell>
        <mxCell id="SpXCf4IYQGdQFlAL4Hk8-1" value="" style="shape=image;verticalLabelPosition=bottom;labelBackgroundColor=default;verticalAlign=top;aspect=fixed;imageAspect=0;image=data:image/jpeg,/9j/4AAQSkZJRgABAQEASABIAAD/2wBDAAQDAwQDAwQEAwQFBAQFBgoHBgYGBg0JCggKDw0QEA8NDw4RExgUERIXEg4PFRwVFxkZGxsbEBQdHx0aHxgaGxr/2wBDAQQFBQYFBgwHBwwaEQ8RGhoaGhoaGhoaGhoaGhoaGhoaGhoaGhoaGhoaGhoaGhoaGhoaGhoaGhoaGhoaGhoaGhr/wgARCALHBLQDASIAAhEBAxEB/8QAHAABAAMBAQEBAQAAAAAAAAAAAAQFBgMHAgEI/8QAGQEBAAMBAQAAAAAAAAAAAAAAAAECAwQF/9oADAMBAAIQAxAAAAH38AAAAAAAAAAAAAAAAAAAAAAAAAAAAAAAAAAAAAAAAAAAAAAAAAAAAAAAAAAAAAAAAAAAAAAAAAAAAAAAAAAAAAAAAAAAAAAAAAAAAAAAAAAAAAAAAAAAAAAAAAAAAAAAAAAAAAAAAAAAAAAAAAAAAAAAAAAAAAAAAAAAAAAAAAAAAAAAAAAAAAAAAAAAAAAFFA7dr9UNMX3hpghpghpghpghpghpghpghpghpghpghpghpghpghpghpghpghpghpghpghpghpghpghpghpghpghpghpghpghpghpghpghpg/NDl9RlwhFAAAAAAAAAAAAAAAAAAAAAAAAAAAAAAAAAAAAAAAAMz249te4c79PRWlbJWiyVoslaLJWiyVoslaLJX2CQSAAIiJatIslaLJWiyVoslbKTICQBzOitK2StFkrRZK0WStFkrRZK0WStFkrZKZISABH1GX1GHmBGYAAAAAAAAAAAAAAAAAAAAAAAAAAAAAAAAAAAAAAAGZ7ce2vcqbapttrUlh5cZJEZJEZJEZJEZJEZJGXkfP1p2hp1AAIM6LTn0KSy4IyT5fD0dmqKY9CSSY2V2ePttYDb0QFNc06moSGfmx0gR0gR0gR0gR0gR0gR0gR85q8tOtiL+gABH1GX1GHmBGYAAAAAAAAAAAAAAAAAAAAAAAAAAAAAAAAAAAAAAAGZ7ce2vcqbapttthh5bx32Lzys8J9DztXTqeTE39b9VtZ+d35T6hpnaiL536+frTtDTqAARZUGnPrkdlwSM7dIZq3nJiQjkyMfqMpbazG3ogKe4p1NgM/NYzZ5as+Z+hZCUpeSqTvFu/HjLtSdcedbSL5vY4HVzXYibMtqctOtiL+gABH1GX1GHmBGYAAAAAAAAAAAAAAAAAAAAAAAAAAAAAAAAAAAAAAAGZ7ce2vcqbaptttsJu/Kufy9NofCJkvVrLwmaeo2nk/er1ek8o+bR7h+eK28T6vM8J9TmvX6+frTvDTqAAUd5FrlQvSGfJ5u9IHm70gebvSB5vabTH20sBp2AKe4p1NgM/NAfH3ypPmPoPivC1PZ/3ySbWfW5XhHqN41QWAZbU5adbEX9AACPqMvqMPMCMwAAAAAAAAAAAAAAAAAAAAAAAAAAAAAAAAAAAAAAAMz249te5U21TbbbDDy1VaoVdoSAAAAzv18/WnaGnUAAiyotOfVDLgxHnXucarBwPS/qYnfRMsfsMfbawG3ogKe4p1NgM/NAAAAAAAZbU5adbEX9AACPqMvqMPMCMwAAAAAAAAAAAAAAAAAAAAAAAAAAAAAAAAAAAAAAAMz249te5UW6+4Z8wAAAAAFRbltgtqAAp7hGYUwAAAU9wm4X6AFPcEcXZXm4uw4uw4uw4uw4uw4uw4uw41lyWC3QABH1GX1GHmBGYAAAAAAAAAAAAAAAAAAAAAAAAAAAAAAAAAAAAAAAGZ7ce2vcKy3RZuKvP2cR2cR2cR2cR2cR2cR2VFvOoW0AAFPGdw/VMPx+j8fo/H6Px+003uBfoAFYizRFcJaIJaIJaIJaIJaIJaIJaIJaJEm1sJ2AAj6jL6jDzAjMAAAAAAAAAAAAAAAAAAAAAAAAAAAAAAAAAAAAAAADM9uPbXuVNtU222ww8sZWGqV1jMAkcId0KbMAnO/Xz9adoadQACLKi059UMuB556Hj4TKr7mzGpCWP2GPttYDb0QFPcU6mwGfmithZM3o5j9CSH8QniRXWIAy2py062Iv6AAEfUZfUYeYEZgAAAAAAAAAAAAAAAAAAAAAAAAAAAAAAAAACvRYIf5KaIkAADM9uPbXuVNtU222ww8t417LUw8T/AD3H4mPHpnrn5E4Cl9b5w8C9tm2V6/Qi2d+vn607Q06gAEWVX1y2DEqcu2YkbZiRtmJG2x/GTbSaL9YCnuKdTYDPzXnvoUaJ/mfTe0/ani0v13rW3j336v0tXxD0DUTYn+ffRtn3mJQmzLanLTrYi/oAAR9Rl9Rh5gRmAABk6fS9bz8L1SKJeiiXool6KJejASrnledCKQBluvS4tNGvFpo14KNeCjXgo14KNeCjrtbSxGiFIAyc9elEvRRL0US9FEvRRL0US9FEvRRL0US9FFS7eiK6xXpRRtNU3rU/mqpdK3qss8bhEgAZntx7a9yptqm2228M9zo+fzPH9Re16M9Y/d/MZC0vu1Zy9Bt/20UHS+sonE+iU95NYP18/WneGnUAAqLeLXCS0LHgzz5pIXr4+JdmhGeqNxj77WA19ABT3FOpsBn5oDl1+Kz/ADvrrmXNc7Iuu9WX9Bqbu0WgmwDLanLTrYi/oAAR9Rl9Rh5gRmAARvuFRe5mg2t6Kx1bZ6HByvLKZM3zG7jL06ZkddEglRXtEXoAM/cU9xaQtIAAAACluqWI0QpAFFe0V6GY6Q0bB2stOq6pGpYuzToWMmw0zJXZZKahmNupPmJvWA3Ux1or2iTV2nzflFH0tPeO1Lps/enxqaa5rYM7AAZntx7a9yptqm222GHlgAAAAAZ36+frTtDTqAARZUWnPqhlwUeL9QQwMb0cj8/SZY/YY+21gNvRAU9xTqbAZ+aAAAAAAAy2py062Iv6AAEfUZfUYeYEZgAca63RGS1uS0UzLAgzkItFp0ocwQCVFe0RegAz9xT3FpC04D88k+839EcvFI16++1njNlS3ptn4X0tH9A/WW1N4Ut1S1nRCkAUV7RXp5jlfUelZxfxeW96eV33pFVE5fzb2e0PMrH0dWfMqf02ys8bnep00Md09J+TwX+gY1tasmivaKLVlmvSi6XNDetlUaDN2ddFmNPAM7AAZntx7a9yLKX6KtaIpVrQVa0FWtBVrQVa0FWtBU2wsE2AAV1iiKtaFKtaCrWgq1oKvtOJCbgI0kiqWqKVS1FUtRVLUVS1FUtRVLUVS1FV2nkhNwAI+oy+ow8wIzAAAyWgh8y9UQvVEL1RC9UQvVEL2ifBoAAZ+4p7i0haQCh8zq9qeJ+2WgEgKW6pYjRCkAUV7RXoAAAAAAAAAor2iK2y/L4ol7T2jtXXuevX70mY08SGdgAMz249te5W2VTbae07Hzsw04zDTjMNOMw04zDTjMNOMRb/AD9adYX6QAFPcRa4SmgY8GfaDEwtnStmJzQE5+n3GPvtYDX0AFVa1kZyGjU4M40YzjRjONGM40YzjRjONGM40YzkbWZGd7YX7AAI+oy+ow8wIzAAAAAAAAAAAAz9xT3FpHn0z6Cz0cscl9aCIpN9S8JaF5zoDTMzojpS3VKaIUgCivc/9l6oheqIXqiF6oheqIXqiF6oheqIXqiF7RJJR2a9KLpc09omVHeXatZpKrhK8cO+VwAMz249te5U21TbbbDDy2V1XjUT6pY/z7+TX+g3hMxPtXDzilrPrc3+cfbb00Ii2d+vn607Q06gAEWVFpz6oZcDBb1DAytomASx+wx9trAbeiArLOsjLVinnqS78drPo93/ADlbqe7fHgUuZ9r5eK3kPXfnx2cn0ef/ADr69ausCzI67IzvbC/cABH1GX1GHmBGYAAAAAAAAAAAGfuKe4tLwH35M+Z5T3cjwPXenDwHS+rVkT5NWf0EmPDvWrdJS3VLDRCkAAAAAAAAAAAAVHG9FF93SYyU++XjMNOIkszkEgZntx7a9yptqm222PDOfzPc6nxnUTX0L48ssT0n88qtIn0Pn55QTHr9l5P0ifVnkfokxF+vn607g06gAFdY1EZ/q0Z81WtBVrQVa0FXJl1Vr24v1AKyzrIy1Yp56LKQrfufhonU/vlkuaejdvGL6J9C6+c+oSgTuiQJZHXZGd7YX7gAI+oy+ow8wIzAAAAAAAAAAAAz9xT3FpC0gAAAAKW6pYjRCkAAAAAAAAAAAAAAAAAAAZntx7a9yptqm222o7xh5eIr/R0PK7/apjG9tYicH+7tLD2WmQx95aJjO/Xz9adwadQACLKi059UMuDOUmixdWs+KiNMejvz9mWP2GPttYDb0QFZZ1kZasU88BU2yGMj7sjAyNsMdregCZAZHXZGd7YX7gAI+oy+ow8wIzAAAAAAAAAAAAz9xRrTeKNM3ijF4oxeKMXijF4oxeUvzCRsRSAAAAAAAAAAAAAAAAAAAMz249te5U20W+2qYtlxbRixtGLG0YsbRixtGLG0YsWX1U21+kLbgAIsqtrlsmLU5NoxY2jFjaMWNpj+fa2s4X6wFZZwYppmSV5NayQ1rJDWskNayQ1rJDWskNayQ1uR/ZU6SxbqAAj6jL6jDzAjMAAAAAAAAAAAAAAAAAAAAAAAAAAAAAAAAAAAAAAADM9uPbXuEK/RNQFcp6AJ6AJ6AJ6AJ6AJ6AJ6ptpuE3AAFTFLZyVx6uQ6uQ6uQ6uVdNrYW3AFcixVyM7FXCxVwsVcLFXCxVwsVcLFXCxV32mcJ0AAj6jL6jDzAjMAAAAAAAAAAAAAAAAAAAAAAAAAAAAAAAAAAAAAAADM9uPbXuVNtU222ww8sAAAAADO/Xz9adoadQACLKi059UMuBltT5rDaws51mPQAlj9hj7bWA29EBWWdZGWrFPPAAAAAAAZHXZGd7YX7gAI+oy+ow8wIzAAAAAKuEaFnktCzw0LPDQs8NCzw0LPDQqC/gAIxJAQpKegQAAAAAAAAAAAAAAAAAAAAABme3Htr3Km2qbbbYYeW8N9yxtZw8vTLVorC44RP5UaeHWfO/Xs9rdM5gi+d+vn607Q06gAEWVW1y2THKcmxY4bFjhsWOGxx/59TpPGnYArLOsjLVinnvF/aKKs+N6q/lKYubp+acjPvppnZs3pDzT1Wp014sAsyOuyM72wv3AAR9Rl9Rh5gRmABG+Imc2pumK6mokYaxhKtslraaBaQAAAAM1Yc9DSuUnL2FFG00ZplWzW6MjqOyMQjEAAAAAAAAAAAAAAAAAAAAADM9uPbXuVNtU2223k/rGI5vLpL7I8ZX9rgLuYsLCplVmfRRf20aHrnLGJsdP5zuJjl9fP1p3Bp1AAKu0i1xNUy4sqtuBAaoZVqhlY+yx9tbAa9wCss6yMtWKeeAymrzdJyl7VU1qTL7MyInSa7y30+Y6ibAMjrsjO9sL9wAEfUZfUYeYEZgAPz9AAFDbVNtaQtIAB8fYABTaHPaGlctMXsKKPpYDXO6GP923tUCFGF4hTYzBAAAAAAAAAAAAAAAAAAAAAGZ7ce2vcqbapttthh5YAAAAAGd+vn607Q06gAEWVFpz6oZcGT849zQ8gh+1pj5+hLH7DH22sBt6ICss6yMtWKeeAAAAAAAyOuyM72wv3AAR9Rl9Rh5gRmAAAABQ21TbWl4D79hU+a3WjlK5m2mWEWx9t935g9rSaG9NUF6bQ57Q0rlZq9hRfN/DaUfe0mztkumg4Tf5sokuvKCgAAAAAAAAAAAAAAAAAAAAGZ7ce2vcr7BfoiJauMRLERLERLERLERLERLFRbk6BNwAFXaIrES0ZREsREsREsROFkWC2oCss0VgJ5nATxATxATxATxATxATxATxA/LAsE6AAR9Rl9Rh5gRmAAAABQ21TbWkLSBnKOiyVI95sMLurgSBTaHPaGlctMXsKKHqa1tmOl/Lt153nedlaDtNs0SEaTXhAAAAAAAAAAAAAAAAAAAAAzPaLx17bBXr9NgrxYK8WCvFgrxYK8WCvFgrxYK8WCvFgrxYK8WCvFgrxYK8WCvFgrxYK8WCvFgrxYK8WCvFgrxYK8WCvFgrxYK8WCvFgrxYK8WCvFgrxYK8SNRkddh5gRQAAAAChtqm2tL4+/MpnfT8Jj4j2v48sy8vfnltND2GV4hoJeniZptDntDSuWmL2FFw0kBrnulp9264fxcRGVfxv+sTSaQc4RmAAAAAAAAAAAAAAAAAAABy4TBDTBDTBDTBDTBDTBDTBDTBDTBDTBDTBDTBDTBDTBDTBDTBDTBDTBDTBDTBDTBDTBDTBDTBDTBDTBDTBDTBDTBDTBDTBDTBDTBDTBx7AAAAAABQ21TbWlU2yZxsTekUNLuCaPPb0jK/WoATNNoc9oaVy0xewovm/rmlR3sO1t6Je8Ymk+NemAryAAAAAAAAAAAAAAAAAAAAAAAAAAAAAAAAAAAAAAAAAAAAAAAAAAAAAAAAAAAAAAUNtU21pC0gAAAAU2hz2hpXLTF7Ci46Pg0ooWkW6af4vpUU/P0jlAAAAAAAAAAAAAAAAAAAAAAAAAAAAAAAAAAAAAAAAAAAAAAAAAAAAAAAAAAAAAAAobaPXyuFOmbhTi4U4uFOLhTi4U4/NDS3VYys1elF+X3BfPLiwt0YzZkZBGIAAAAAAAAAAAAAAAAAAAAAAAAAAAAAAAAAAAAAAAAAAAAAAAAAAAAAAAAAAAAAAAAAAAAAAGWmL0ovy+r2nC3qfyb26hkIthGIAAAAAAAAAAAAAAAAAAAAAAAAAAAAAAAAAAAAAAAAAAAAAAAAAAAAAAAAAAAAAAAAAAAAAAGWmL0ovq7r2lb9yfyenjE7zpmzR5FeEAAAAAAAAAAAAAAAAAAAAADP8ulpya064Y3p1wKdcCnXAp1wKdcCnXAp1wKdcCnXAp1wKdcCnXAp1wKdcCnXAp1wKdcCnXAp1wKdcCnXAp1wKdcCnXAp1wKdcCnXAp1wKdcCnXAp1wKdcCp0ed0XdgF4AAAAAAAAAAAAAq416KL6uy2d+79OtB0uyI0kjIEAAAAAAAAAAAAAAAAAAAAAZ60q7Ti2Dn0AAAAAAAAAAAAAAAAAAAAAAAAAAAAAAAAqtFndF6PMGkAAAAAAAAAAAAAAAAAAAAAAAAAAAAAAAAAAAAAAAAZ60q7Ti2Dn0AAAAAAAAAAAAAAAAAAAAAAAAAAAAAAAAqtFndF6PMGkAAAAAAAAAAAAAAAAAAAAAAAAAAAAAAAAAAAAAAAAZ60q7Ti2U9xS427NC9DDPNCM80IzzQjPNCM80IzzQjH6OtsuXUOfRntDVbU/WhdmOeX+XhJTYMx+tCTnuOnzWNrgce4D5+vky9j93fq89CvkzQr4UK+FCvhQr4UK+FCvhQxdRQ5zcjzdgAAAKrRZ3RejzBpAAAAAAAAAAAAAAAAAAAAAAAAAAAAAAAAAAAAAAAAGetKu04tlLdUuNtOPT52V1XjUT6pY/z7+TX+g3hMxPtXDzilrPrc3+cfbb00Ii1BZVtlx7BzaKq1qtqaId+Hz5t6Wh5vN3aYBLNaXNYXuBw7gPn6+Sru6S79nnRpNBSeV1/NNvan9EvEOifX/zxT7rPuX34H6LaunsP5+0kvXQsob6hym5Hl7gAAAVWizui9HmDSAAAAAAAAAAAAAAAAAAAAAAAAAAAAAAAAAAAAAAAAM9aVdpxbKW6pcbac8M9LD3Op8Z1E19C+PLLE9J/PKrSJ9D5+eUEx6/ZeT9In1Z5H6JMcLKtsuPcObRTXOb0pLd3Tnwdxwdxwdxw7oedr4c2oD5+vkq7uku/Z53LqhW/lmmIfz47MpPqrAZ+0etzPM9SXHScmQFDfUOU3I8vcAAACq0Wd0Xo8waQAAAAAAAAAAAAAAAAAAAAAAAAAAAAAAAAAAAAAAABnrSrtOLZS3VLjbT0d49PnxFf6Oh5Xf7VMY3trETg/3dpYey0yGPvLRMUFlW2XHuHNoqrWq2poh34Ziqv8XVrvij+pj0ATLNaXNYXuBw7gPn6+Sru6S79nnAAwM7YIYb93BGOtL0BMgKG+ocpuR5e4AAAFVos7ovR5g0gAAAAAAAAAAAAAAAAAAAAAAAAAAAAAAAAAAAAAAADPWlXacWyluouF7dmHZjp2YGnZgadmBp2YGnZgadmBIsqW659AyuqrWp0ro2YdOWnZgadmBp2YGnzXzMztOHNqA+fr8Kq7zf3346FnhoWeGhZ4aFnhoWeGhZ4aFnhoaH47Um2HHqAAABVaLO6L0eYNIAAAAAAAAAAAAAAAAAAAAAAAAAAAAAAAAAAAAAAAAz1pV2nFsHPoAAAAAAAAAAAAAAAAAAAAAAAAAAAAAAABVaLO6L0eYNIAAAAAAAAAAAAAAAAAAAAAAAAAAAAAAAAAAAAAAAAz1pV2nFsHPoAAAAAAAAAAAAAAAAAAAAAAAAAAAAAAABVaLO6L0eYNIAAAAAAAAAAAAAAAAAAAAAAAAAAAAAAAAAAAAAAAAzthIg4X7OLO3ZxHZxHZxHZxHZxHZxHZxHZxHZxHZxHZxHZxHZxHZxHZxHZxHZxHZxHZxHZxHZxHZxHZxHZxHZxHZxHZxHZxHZxHZxHZxHZxEPSQ5nTkFgAAAAAAAAAAAAAAAAAAAAAAAAAAAAAAAAAAAAAAAAAAAAAAAAAAAAAAAAAAAAAAAAAAAAAAAAAAAAAAAAAAAAAAAAAAAAAAAAAAAAAAAAAAAAAAAAAAAAAAAAAAAAAAAAAAAAAAAAAAAAAAAAAAAAAAAAH//EADUQAAEDAgQGAgIDAQABAgcAAAQAAwUCFQEGExQQIDAzNDURYBJAFiRQMXAlNhchIiMygJD/2gAIAQEAAQUC/wD5VSJTwy15Fa8iteRWvIrXkVryK15Fa8iteRWvIrXkVryK15Fa8iteRWvIrXkVryK15Fa8iteRWvIrXkVryK15Fa8iteRWvIrXkVryK15Fa8iteRWvIrXkVryK15Fa8iteRWvIrXkVryK15Fa8iteRWvIrXkVryK15Fa8iteRWvIrXkVryK15Fa8iteRWvIrXkVryK15Fa8iteRWvIrXkVryK15FAFvvPfUpXvfQ4/2P1KV730OP8AY/UpXvcK3KWqbgIrgIrgIrgIrgIrgIrgIrgIrgIrgIrgIrgIrgIrgIqThq6ug4UwxjcBFcBFcBFcBFcBFcBFcBFcBFcBE080/hy110t03ARXARXARXARXARXARXARXARXARXARXARXARXARXARXARXARXARNENP88f7H6lK97hIYfLOg0tBpaDS0GloNLQaWg0tBpaDS0GloNLQaWg0tBpS7VFI3QEoprldBpaDS0GloNLQaWg0tBpaDS0Gk1ThSfyyng6Da0G1oNrQbWg2tBtaDa0G1oNrQbWg2tBtaDa0G1oNrQbWg2vxwol+aP9j9Sle9wkOz1pnxegF7XixKl1gQp1b8JlmbdkneNHsOWT8H9HH2/NH+x+pSve4SHZ4zkw8LOReYHLPjmkOkWjM4eI2GZg9CPmmZF2WzAyDUFmTCiOFKaNH4TPi9AL2vFuEAaJoy5HN0UxwtD/Gj2HLJ+DxzQaRHw8nmSQaiXsyCjuk5rEFeZzKG4gswN11Y5hbMVOZBcSpKTZi2Q8y/2I+VZkauOPt+aP8AY/UpXvcJDs8TY2UpnP42dSCPlgxmgzLb5RBURJyYkdGmYSR0NIb7HKT9NMeJsQ+Ez4vQErpolddpa7S12lrtLXaWu0tdpa7S12k1VhUfyyfg8cwRrsrGFZSKexfyq5UYVl0l5g7Ljh5NkkS3cYQjEPDLEhupqNfOwdyuaZhCRNUdjxx9vzR/sfqUr3uEh2UbNlNSsZOtGibsfBguVaaFrOGaeangXDK5ENtuswdtkCabMpuAmLFcgI1Q8aMNTTVhXhM+L0Cqw8X/AOgv6C/oL+gv6C/oL+gv6C/oIOsarDlk/B5asfxpZzaRUJXICNuSUozHMNyg+zeMGHopqpcp5cfb80f7H6lK97hIdlFxLh+abaZgHjGuMB4MVERswA/cZEMjWPjtuhAiGQmY0jaFxz5Ak1E4sSRUU4OPAUOtREz4vQC9r0aPYcsn4PK5/wDgNiZXlqYjysVIBu/ntaxn64olgDLrbzURy4+35o/2P1KV73CQ7PE2PGkWwwB49rozPi9AL2vDNVTtERRPE4HX8pjH+SyOOPGj2HLJ+D+jj7fmj/Y/UpXvcJDs9aZ8XoBe14Ostv00gi0Y0gC0M1BjOVcaPYcsn4P6OPt+aP8AY/UpXvcJLH8Rr0Er0Er0Er0Er0Er0Er0Er0Er0Er0Er0Er0Er0Er0EpCRHKa6FBbQcnegleglegleglegleglegleglegkK9SQXyyng3kNXkNXkNXkNXkNXkNXkNXkNXkNXkNXkNXkNXkNXkNXkNXkNXkNMv0FSXNH+x+pSve+hx/sfqUr3vocf7H6lK97gdXXQxa3la3la3la3la3la3la3la3la3la3la3la3la3la3kWM+FR0GxGTJSygKygKygKygKygKygKygKygKygIVmgcvlkHK2hLa8ra8ra8ra8ra8ra8ra8ra8ra8ra8ra8ra8ra8ra8ra8ra8ra8mcHWTuaP9j9Sle9wkOz1pnxegF7XizOEOBQ8hWdFwMy7KV8aPYcsn4P6OPt+aP9j9Sle9wkOzxOzDHRhAZrEgxyOOUtNjEtGMcZnxegF7Xi1l4Zl9nLtDIwkCEAVxo9hyyfg8Tjh40cidjxBeLJLb9ZBjItXBk1h8jkx9vzR/sfqUr3uEh2eMli5hm0UzSh2jjHgSDTI6kwzEEKFfxompkrF6RaLLxYhXXn4vhM+L0Ava9Gj2HLJ+Dxzp6CT+axC5A+o2ReMRBh0VXSVWK+zUUwG3KPVSWZinGKMS3Q8ctuk4vccfb80f7H6PiW3Q9gUxUsCmKujK97hIdniRGBFuVAC1MYRweC2jHy2GOyyOIwJS8EMTXXHBuN4YfGHCZ8XoOhNPOW5lW5lW5lW5lW5lW5lW5lW5lW5lMDNjc0n4PF5holuqPErVQQ1b1QI1eG2Z1GgBWKdoP+OMaHjU8y2Q3QAI3SwOyLRxx9vzR/segaKwVKjhCVKyxqssarLGqyxqssarLGqyxqssarLGqyxqrBExVYQbJHJKMNEk2aNVmjVZo1WaNVmjVZo1WaNVmjVZo1WaNVmjVZo1WaNVmjU/HBikcjgQxkxZY1WWNVljVZY1WWNVljVZY1WWNVljVZY1WWNVljVZY1WWNVljVZY1WWNVljVZY1WWNUW88yG1uDire4re4iI9x12qMrWMXV+PQle9wkOyptoV3NUZMVxUZRmUx0Y+XJIjJDMhYcnXJnhGkTUmwOzmQs4aMlCQqCsyHBDnZgPDfKzQY2PGlYmgzPi9CgWgySsoqsoqsoqsoqsoqsoqsoqsoqsoqGawYK5ZPweVztjRYzWUj80GCYzEqYawLJnVUP5qIxCizKjwOXH2/NH+x6DnuGI6hirpERjRGJlP4Pch3m9Y/u8jfuf1IjwRvZ8HjqWXMMfnBqTodxaMbeI55XvcJDsrCNaplP4wLpyMH+IMdlupwIvLY5rpOXBSXCoJgqvDKolItGVQqBf4uJiLIQzJ77uXmK6QQmY0SZ8XoBe14TcnjEAUZnaqkGpwB9X+P5KPYcsn4PLjh+WDWTxG6C8rCGVlZXEKcey4M6qsujaUeAzGCcuPt+aP9j0K/c8hRLQQ4ua4c18/MEbFujktFs8h/k8h3m9Y/u8jfuf1IjwaRa3ZXYPrYPosFx7Gh3BuliMqYQ8c8w5zyve4SHZ60z4vQC9rwlALkNRk5vDCvL1b7VWVGfz40ew5ZPwf0cfb80f7HmedwYaorwcoIqwu4ddDIjhbzWO8cxqrIebdna668rNCSc2FlvRuUBjHbbkP8nkO83rH93kb9ypKfjolwecjyhG84wrrh+YI2LcwkBcRAcxRkk8VmqICIcmQWhi81RIBA89HlVlZligiHjR2BGpMV8AfNsMS7ISocVQHLhSDGGdIPHGiulylRHgjY4XPg8boV0Y41UMSdTtTB2DxXPK97hIdnrTPi9AL2vRo9hyyfg/o4+35o/2PNXRqUVxwz2DQTAkzyFDNGjsM0DMn5fjZR0cZoRnkP8nkO83jF5mpkpaCzNTNENHCv0USYTmLRTD7QEjSajZllgN08Udf9w4H93kb9yjf/e0j+F3y7fNhlvRuUpjG7DNm30oL8b9/8rQPcv5ObuP5JlTZWKdPjqISGOHxjS9D/wCH4Px/KHNP+VsYyuGTY2huiOUR4OAVD8ra6Fa6EQDg/ji5V8tRdLODMXgxXzyve4PsUkt7JbJbJbJbJbJbJbJbJbJbJbJbJbJbCmrHoOh0uPbJbJbJbJbJbJbJbJbJMDUj48r7NJDWxWxWxWxWxWxWxWxWxWxWxWxWxWxWxWxWxTAlDFfNH+x6BbrjcywQ2TR0z/J5DvN41u1AVVAPs0BNNOPNRwuIz4te1aqDLl9kw1kOcraqNy5X+cFwP7vI37lSUBHSzg8HHiiU5MhKKj8vxsm5hHi4CA5djI14rKsQaQ5DAujMx4w5TseO8YVlqKNIwixKSn4gMkgfKUMK7IRIcrQHEBR7FMOFRHMs0DsqI8Eb2fAiQ0X8MfnBmTqdxEld05zyve+hx/segW29VMjjUDU9M/yeQ7zesf3eRv3P6kR4OAmvK21W1EA1PqjHFqlqLoZQ0ZUzVzyve4HV1tsW0hW0hW0hW0hW0hW0hW0hW0hW0hW0hW0hW0hW0hW0hFsEh0dCgRoyTsoSsoSsoSsoSsoSsoSsoSsoSsoSFZpHL5SsXan7eSreSreSreSreSreSreSreSreSreSreSreSreSreSreSreSreSgK662OaP8AY9AkNx4jamramramramramramramramramramramramrAF+p/kO83lmJHCJjnXz6swt54rqc5j+7yN+5/UiPBGx/9T4PG6FdGONVDMnU7iJK7pznle9wkOz1pnxegF7Xi1PagsWfco+Gm6ZfHjR7Dld9h+jH9rmj/Y/tHebyycc3KAsZaIwOFy68HjzH93kb9z+pEeDgCyTK2gVWgVEAUv44uVfLUXQyhoypmrnle9wkOzxOzDHRhAZrEgxyOOUtNjEtGMcZnxegF7Xixl7Fp0aEOGBj8vtxhnGj2HK77DidLBxtbksG0fwxxwpwHfoKZ3jO7WOPxgGYyePyR/a5o/2P7R3m8BMx0/IU5HyDo+Yowt8DNgpDTc7HvOYSoeNQM5HySjp/Aw93MEayWbPxse/RXS5Qj+7yOsFUnfMkvmSXzJL5kl8yS+ZJfMkvmSXzJL5kl8yS+ZJfMkvmSXzJL5kl8yS+ZJfMkvmSUePWKKN7Pg8XXS9hKDfhvWNWmQGqwbkma8W3KXaOWV73CQ7PGSxcwzaKZpQ7RxjwJBpkdSYZiCFCv40TUyVi9ItFl4sQrrz8XwmfF6AXtejR7Dld9hxzoNuzGiqjZqHOOdfB3jjNJ5WAxBxNIpb70VJZdMfxmZcrGuZEKJwjsuvPvxfGP7XNH+x/aO83gXHlVhmBuY5jjRjGzigy7ZNDOCFEiGliVPjz6oZKObxiCKVLBvsGRdL1Eej+7+09HMPu2lhWlhOB1amMbXS7RH6VVq/KiqK1MWGtBrlle9wkOzxIjAi3KgBamMI4PBbRj5bDHZZHEYEpeCGJrrjg3G8MPjDhM+L0HQm3Xbe2re2re2re2re2re2re2re2re2mBWxuZ32HGsdp1ygARtNhDNOUgjUYbIbT2IujUMzW40AIxU8IOTjjHiVMU00t08Y/tc0f7H9o7zeerD8qQQKAKeU/u/5Er3uEh2VNtCu5qjJiuKjKMymOjHy5JEZIZkLDk65M8I0iak2B2cyFnDRkoSFQVmQ4Ic7MB4b5WaDGx40rE0GZ8XoUDUmSVmGVmGVmGVmGVmGVmGVmGVmGVmGQzegVyu+w5c4f+3XQGIMwbM5NR50kbKMO5jOwaksylCSFOP5U8sf2uaP9j+0d5vWP7v+RK97hIdlYRrVMp/GBdORg/xBjst1OBF5bHNdJy4KS4VBMFV4ZVEpFoyqFQL/ABcTEWQhmT33cvMV0ghMxokz4vQC9rwm5PGIAozO1VINTgD6v8fyUew5XfYcskA3KBC5bHHIYyqIO5hlIOmp3K4brxmXRzXKKcKKeWP7XNH+x/aO83rH93/Ile9wkOz1pnxegF7XhKAXIajJzeGFeXq32qsqM/nxo9hyu+w/Rj+1zR/sf2jvN6x/d/yJXvcJDs9aZ8XoBe16NHsOV32H6Mf2uaP9j+1JVaT91ZV1ZV1ZV1ZV1ZV1ZV1ZV1ZV1ZV1ZV1ZV1ZV1ZV1ZTxVJZH+RK97gQxSS1tK1tK1tK1tK1tK1tK1tK1tK1tK1tK1tK1tK1tK1tK1iD+WPQcE/N7aVraVraVraVraVraVraVraVraVpgbBjHlIGwIx2dS2dS2dS2dS2dS2dS2dS2dS2dS2dS2dS2dS2dS2dS2dS2dS2dSHHpGa5o/2P1KV730OP8AY/UpXvcCn8R2f76/vr++v76/vr++v76/vr++v76/vr++v76/vp18ofo4M1FyFoVoVoVoVoVoVoVoVoQ2FTRPKSRW1X8nr5PXyevk9fJ6+T18nr5PXyevk9fJ6+T18nr5PXyevk9fJ6EfxIa5o/2P1KV73CQ7PWmfF6AXteNE4O4PHnNyIkZMDy3JR7Dld9h+jH9rmj/Y/UpXvcJDs9aZ8XoBe14jwRjdQIEuHGRME/EmcaPYcrvsP0Y/tc0f7H6lK97hIdnjNiYF5qi5J6Pgqc0G1h1ZkMFoJl5OMEjpIzGSlZQ154PMD4YEaZUeDwmfF6AXtejR7Dld9hxzzRVWU8ZgRmqOzQUW+NmOXfopzEY8NeyYsGo18eYhZ4k2QkJQzGQjJx2PiIY+uSB4x/a5o/2PUPJqEH15Ja8kteSWvJLXklryS15Ja8kteSWvJLXklryS15JMFk4mclTtFLnDEhulU44VU/50r3uEh2eJ2X2zTv4uHgM3lcRrB/LwhFWGWQ9vHwrMc6dlwY8n+MDYNjsUCscJnxehWNXiRpFLSKWkUtIpaRS0ilpFLSKWkUhx8WauV32HEyKZOKFysEJgJl4YNxjLwzDdWWxKmv4yJtzIQY4kLL7AJZ0COeVTlkWgYMRsEfjH9rmj/Y8zr1DFDJLZGHCp2ilxS/idUklkWWvICqksSi9OSWnJIkch3C3V0q21LbE00N0/hR/nSve4SHZUpIk4T8XmFygDHMoeAhWY2n49/MgrBWGZamjf5Kxi1VmUPaR2ZcNvjmkOgOvMg9GDmZg6aRSaDB5nxeh/ZfM2UgtlILZSC2UgtlILZSC2UgtlILZSCHre1uV32HLmQx4CFwLkoosfMgpBR+aNWp3NAbT5OYxhisMfnDlj+1zR/seY1mtzAtlyuvZPfhWG/i9SARqBCvMNyNB2DPVx9ynfc8KnaKXP9KV73CQ7Kcg8CJ/HKb+3OjMYkMKPKmQJTLZhppsAY87JQpZWIuW5AEdvLR1LRGXDjGJrL9Z55mWn3BokN0CPmfF6AXteBxw8aNTKCVGctHsOV32HLPAOSkVRESZhQ2VzqCacuSdLDuXD8WpXLZRhbdP4Ucsf2uaP9j1JfxOrj7lG4P3b8ZJfjJIlgh3DEB2jAWjTa/0JXvcJDs9aZ8XoBe14ZgCckI+jL8r+dMMXS1jlsumvjR7Dld9h+jH9rmj/AGPUl/E5/wAqfy5cfcp33PB0ilmtuQacVR7NGLhTVFOEk2mH8H8P82V73CQ7PWmfF6AXtejR7Dld9h+jH9rmj/Y9SX8ThmCrFnN2t+ecx87OVvEZmlG6WswlsGNS5jDrUvIGHBS7wcBl2XrmA+GPuUa265LbY5bY5EhuvjVxtWKcCrxcwi68KaozFCtVt/50r3uBjNb7O5kVuZFbmRW5kVuZFbmRW5kVuZFbmRW5kVuZFbmRW5kVuZFP70vDoY0ktF7mRW5kVuZFbmRW5kVuZFbmRW5kVuZFDtvYO8pLT1TuvIrXkVryK15Fa8iteRWvIrXkVryK15Fa8iteRWvIrXkVryK15Fa8ig2a2GeaP9j1JfxOB+XKTjhsqUsVh5ffDxcyzqBOwNL57OVq6cQ4faOt5UrYZhIjGHb4Y+5TvueDpDbNTRDb1aqdooqbLZdVT1FGP+bK976HH+x6kv4nKfOARtcdmVqqHDNYPY5cfco2h6uW0JBaEgixSHcNg+q492qhwJ2lvGPcwT8fUmg3KTf8yV730OP9j1JfxOUmggCbGizWBMshbVjlx9ynfc8CC6BnGz2nKsSGcE8bQy3QTRUrjRhVg63jVQ827/mTFdLbm+GW+GW+GW+GW+GW+GW+GW+GW+GW+GW+GW+GW+GW+GW+GW+GW+GW+GW+GW+GW+GW+GW+GW+GW+GW+GW+GW+GW+GW+GW+GW+GW+GW+GW+GW+GW+GW+GW+GW+GW+GW+GW+GW+GW+GW+GW+GW+GW+GW+GW+GW+GW+GW+GW+GW+GW+GW+GW+GW+GW+GW+GW+GW+GW+GW+GW+GUW5Q6f1JfxOFVWFFI5oxfHGqmnHhQQ047xx9yjWq3ZbYkLYkIgB12nCKdVUZVi3WDVi0+C45Xbcfm21YYR1Fep/l1t0uYbVhbVhbVhbVhbVhbVhbVhbVhbVhbVhbVhbVhbVhbVhbVhbVhbVhbVhbVhbVhbVhbVhbVhbVhbVhbVhbVhbVhbVhbVhbVhbVhbVhbVhbVhbVhbVhbVhbVhbVhbVhbVhbVhbVhbVhbVhbVhbVhbVhbVhbVhbVhbVhbVhbVhbVhbVhbVhbVhbVhbVhbVhbVhbVhbVhbVhbVhUN0N9WX8Thm7/AO7U5ERQEheZauLcNkzpd0oqXbYPknpa8SzUaRJ1xUhDSMnVI8Mfcp33PB0ilmtuQacVR7NGO4a+HTqW3GymnKdZv8/vsv4nCRjh5QYHLYoRNWUganW4pls/+LiYBCxbIhNGUgKHXIAR1wCDYAf4Y+5Rrbjsrsy1sy0QE48NXG1YpwKvFzGOq07X81YRlfyyy5gd99l/E6uPuU77ngQTgxU0Y05TuGVuGvw3bWr9/l/E6uPuUa265LbU1bU1EBOu4MAV0VWx/HCsGvWrjq6qfv8AL+J1cfcp33PByvBpukhuqjdMLXa/L/wBL+J1cfco1jF6Wt7it7ieGI0qgHvnCNqVALtVf/gAwXAxi3PK3PK3PK3PK3PK3PK3PK3PK3PK3PK3PK3PK3PJgDRITvueDleDTbBNL9X/AISNZreltg+tg+nhidIUWodz/wAJO+54FkbZmgzCuqsz8McT6sVhIj/+EDR8CJa10K10KsDCvDCOrbTgFdeNQOOGNvqxc/zpKt7CrbFLbFLbFLbFLbFLbFLbFLbFLbFLbFLbFLbFLbFLbFLbFLbFLbFLbFLbFLbFLbFLbFLbFLbFLbFLbFLbFLbFLbFLbFLbFLbFLbFLbFLbFLbFLbFLbFLbFLbFLbFLbFLbFLbFLbFLbFLbFLbFLbFLbFLbFLbFLbFLbFLbFLbFLbFLbFLbFLbFLbFLbFLbFLbFLbFLbFLbFICt7Ar9x33PAsjbM0GYV1VmfhjcflzfMJp2l6j/ADZHyfoYns/3CQqCXLaraqwPzwwjq204BXXi9HayxB/+lqiqij/NkfJ+hiez+pSPk/QxPZ/UpHyfoYns/qUj5P0MT2f1KR8nhJV10DW11W11W11W11W11W11W11W11W11W11W11W11W11W11FMPh08mm8VIW11W11W11W11W11W11W11W11W11AYuYV8uP8AwAYgoG3vK3vK3vK3vK3vK3vK3vK3vK3vK3vK3vK3vK3vK3vK3vK3vLCh4aQ6Qns/qUj5PCU8brS/j8gns+Lc6O4wCa3IBxUwPL0cQ/K5cf8AkP6j9An2fSE9n9SkfJ4SnjcTswx0YQGaxIMcjjlLTYxLRjHGX8fkE9nxFgjG8RI+XGiImEeiTOIflcuP/If1HB96gZnCej8Y8chspjhuW9yUU0ExTj+VK3rGBnIT7PpCez+pSPk8JTxuMli5hm0UzSh2jjHgSDTI6kwzEEKFfxompkrF6RaLLxYhXXn4vhL+PyCez6IflcuP/If1HCc9NTh/6bQYXi3XWYcTGkmtkCSD3441l2abk3sHJ058XL7r+IUnl4gvGQ4k+z6Qns/qUj5PCU8biRGBFuVAC1MYRweC2jHy2GOyyOIwJS8EMTXXHBuN4YfGHCX8fkrDc3O3LW3LW3LW3LW3LW3LW3LW3LW3LQo2I/Nj/wAh/UcK6KXaLeIq48RyjEVmpykMejGkIah/ZDaTkeI9VpUaTMeIPUwGOLyE+z6Qns/qUj5PCU8ZTbQruaoyYrioyjMpjox8uSRGSGZCw5OuTPCNImpNgdnMhZw0ZKEhUFZkOCHOzAeG+VmgxseNKxNBl/H5MBGjJOzBqzBqzBqzBqzBqzBqzBqzBqzBqPbwZd5cf+Q/qOUWGDka2MwnURTOYTJBQkmSxHuZkNbCgpOuUF5SfZ9IT2f1KR8nhKeMsI1qmU/jAunIwf4gx2W6nAi8tjmuk5cFJcKgmCq8MqiUi0ZVCoF/i4mIshDMnvu5eYrpBCZjRJfx+QT2fCclcYcGnMzOMkzNgv1Uz0fVyB+Vy4/8h/UcruVB3XX8uCPV4ZWFpbpysHQJhlwWgWNi2YyjlJ9n0hPZ/UpHyeEp43Wl/H5BPZ8JSPuTLeT6KaH8t1lMuZYYqK4h+Vy4/wDIf1H6BPs+kJ7P6lI+TwlPG60v4/IJ7Poh+Vy4/wDIf1H6BPs+kJ7P6lI+TwIHoKatbKtbKtbKtbKtbKtbKtbKtbKtbKtbKtbKtbKtbKtbKwi2Py5HY9l521sq1sq1sq1sq1sq1sq1sq1sq1socVsWnmohxm6LUwrUwrUwrUwrUwrUwrUwrUwrUwrUwrUwrUwrUwrUwrUwrUwmY5lh3pCez+pSPk/QxPZ/UpHyfoYns/qUj5P0MT2f1KR8n6GJ7P6lJY/BGpQtShalC1KFqULUoWpQtShalC1KFqULUoWpQtShalC1KFqULUoWpQtShalC1KFqULUoWpQtShalC1KFqULUoWpQtShalC1KFqULUoWpQtShalC1KFqULUoWpQtShalC1KFqULUoWpQtShalC1KFqULUoWpQtShalC1KFqULUoWpQtShalC1KFqULUoWpQg8cMZP6k8O0TTaQFaQFaQFaQFaQFaQFaQFaQFaQFaQFaQFaQFaQFaQFaQFaQFaQFaQFaQFaQFaQFaQFaQFaQFaQFaQFaQFaQFaQFaQFaQFaQFaQFaQFaQFaQFaQFaQFaQFaQFaQFaQFaQFaQFaQFaQFaQFaQFaQFaQFaQFaQFaQFaQFaQFaQFaQFaQFaQFaQFaQFaQFaQFaQFaQFaQFaQEyKwN/wDuV//EADMRAAECAwYDCAICAgMAAAAAAAABAgMREhATIDEyUSFB8AQUMEBQYbHRoeFgcVKRcIHB/9oACAEDAQE/Af8Aj+FDa5vEuWFywuWFywuWFywuWFywuWFywuWFywuWFywuWFywuWFywuWFywuWFywuWFywuWFywuWFywuWFywuWFywuWD0k6XpUDTZNCaE0JoTQmhNMU0JoTQmhPBNCaE0JoTQmhNCaE8ETWvpUDSP0r4HZ8lwR9FuXGyDrtdl4MLWmCJrX0qBpH6Vs5GSde/6sbnxE5WdnyXBH0YYOu12ViW8ZdbfZzUWyFrTBE1r6VA0j9KnJTr5s6+Ps5de9mx2fJcEV1LZl8uxfLsXy7F8uxDiK50rXZWpnZ18YIWtMETWvpUDSP0r4HZ8lwR9FnX5OVkHXa7LwYWtMETWvpUDSKk0kd3Tc7um53dNzu6bnd03O7pud3TcYyjA9taSO7pud3Tc7um53dNxkGhZ2qk0LhNzu6bnd03O7pud3Tc7um53dNzu6bjYNKzwRNa+lQNIqyQv2l+0v2l+0v2l+0v2jHo/LA91CTO8ex3j2O8ex3j2GRq1lK1VkX7S/aX7S/aX7S/aX7S/aNitcssETWvpUDSP0r4HZ8lwR9FnIWyDrtdl4MLWmCJrX0WeGBpH6Vs5SOvn7sTgSs7PkuCI2tsi4cXDi4cXDiHCVrp2uywcyXCXWRzVRbIWtMETWuHliWXmV4pxFRuGBpH6VOSnXz+jr8nPr2/Z1829nyXBG0E1JuKlJqQVWu12VqZnX5OvjBC1pgia1wokymYjZrInwn5TIyOcj3wqcBJYIGkfpXwOz5Lgj6MMHXa7LwYWtMETWvgZeAuap7k+E+uRLjLrOQnGXXOQizSeGfGf9fgROEhePX9juM/+/iQq8XdbfR+/yZLP+/yN4fj8S+iWVqylxFkJLlggabKG7FDdihuxQ3YobsUN2KG7CIiZYFRFzKG7FDdihuxQ3YRqJlgobsUN2KG7FDdihuxQ3YobsUN2KGpgia18jyOfk+AkuWCBpH6VK3blbtyt25W7crduVu3K3bkBVVOOCPoJqTUmpNSDrticGlbtyt25W7crduVu3K3blbtyt25Bcqu44ImtfIr5NcjgpwTBA0j9K2cpmXX9/VicVEWzs+S4I+i3OyDrtiaFslMmdfP0e3WchOPW5OyDqwRNa+Py69/sVJi8V/3+TnMly664nPyNKFKYIGkfpU5TsyOZ18/VvZ8lwRFRreJew/8AEvYf+Jew/wDEvYf+Ix7XLwS2JoW1EmshFOuv9YIOrBE1r6VA0j9K+B2fJcEfRZ1+fo5WQddsTQuCWGDqwRNa+lQNI5JpIuHlw8uHlw8uHlw8uHkJisTjgiNVzZIXDy4eXDy4eQ4Tmumtr0qbIuXFy4uXFy4uXFy4uXFy4hw1as1wRNa+lQNIqyL1m5es3L1m5es3L1m5es3L1m41yOywOdQky/aX7S/aX7RsVHLK1VkXrC9YXrC9YXrC9YXrC9YI9rssETWvpUDSP0r4HZ8lwR9FnIXKyDrtiaF8GDqwRNa+QlOxUVM/MQNI/StnJTr5/VjVksxElKzs+S4IrVc2SFy8uXly8uXkOE5rprbE0LZw5nudfP6Ovz9Ce9sHVgia1wKsiak1n4UNysdNp3yKRIqxM/MQNI/SpyU6+Tr8nPr2/Zy69/1ZsdnyXBFVUbwLx+5eP3Lx+5eP3IT3K7jbE0LamYmQvX5/Rztg6sETWvkISua+bSIsaIlKtEhRHcUQVFRZL5eBpH6V8Ds+S4I+iyZylZB12xNC+DB1YImtfAzaqDuM1OfW6f8AkxM/9dfByTrfBDVzXIrMxY8VF4neI68Ryq5Zr5eBpFSZcsLlhcsLlhcsLlhcsGtRuWBzUcklLlhcsLlhcsGw2tWaWqk0kXLC5YXLC5YXLC5YXLC5YNhtblgia18Jev8AQmGCr2vmzMXtMdF4oJGjtScuuH0Oix2tkqElTPy0DSTQmhNCaE0JoTQmhNCaE0JoTQmhNCaE0JoTQmhNCaE0JoTQmhNCaE0JoTQmhNCJrXweJPhPrKf/AKLwF4YISva6bMy97VPIbEjT4dZfov46ER946r+CZ4ISuR6KzMvY6LxL6Od6eqLP+Ew3OY6bcxI8ec5fg7xFSX8KYqtdNBY8ZvBSLFdFz/hUOqtKcxzIj3cc+kLmJt/CodVSUZlUefv/ANb/AGT7Qwy8u1EVClClClClClClClClClClClClClClClClClClClClClClClClClClClClClClClClClBc/INcrFmh3iJOZfxJSmKs/Lsy9CXP0pmXoS5+lMyFyJqTUmpNSak1JqMsdkTUmpMmo3PBNSak1JqTUmpNSaiLxxLn6UzIXKzlMy6/v6sTioi2Mysflb7WMzwtSayE5HXx9iZ9e/0Jx4E7EzxLn6UzIXI5TsyOZ18/VrMrHZE0JoTQmg1Unj59exPmZWpniXP0pmQuXgMysflYvX+7WZ4+c8KZ4lz9KZkKUKUKUKUKUKUKUKNSVjkmhQpQpQpQo1slwUqUqUqUqUqUqUqUqI3EufpTMvQlz9KZl6EufpSOkVlZWVlZWVlZWVlZWVlZWVlZWVlZWVlZWVlZWVlZWVlZWL/w3//EADQRAAECAwYEBQMEAwEBAAAAAAABEQISMRATICFBUQMyYfAwQFCh0RQisXGBkeFgcMFCUv/aAAgBAgEBPwH/AF/CjkqEqEqEqEqEqEqEqEqEqEqEqEqEqEqEqEqEqEqEqEqEqEqEqEqEqEqEqEqEqEqEqEqC19Khp6EtfSoaGngQ4IqW6tZDXxEwLX0qGhpZqhVe+n9iEVBWzshwRUww1wqJZ3+TRBLEwLX0qGhoaod/gTv+B8u+vwd/g072NyHAuRMTExMQrniiyhU1Hy76m9qYFr6VDQ08CHBFSxMu+jGtkNfETAtfSoaWSEhISEhISCI2BcyQkJCQSFsDDDDDDDDDYFr6VDSyZCZCZCZCZCZCZBFfAuROTk5OJE+Bxxxxxxxx8C19KhoaeBDgipbk9kNfETAtfRGVRlww0NLNXO/xYqOKr2Q4FRyRSRSRSRRIWwqIN3+xr31GyRBMrEwLXDDK2eKKVsrU8tBMi/aJHxFoKipXBDQ0NUH7/gTv+DTvr/Rk/fQ072+TLMhwRUsd+/3thriiR4VQ1NO+v9G9qYFrhhgmRxODEpxYV4cLjZ/ziTxqlTRzVsMDv9pDNnKRrEq/dghoaeBDgiphhr4iYFrjrjSyFckXp75Grd6/BNk/dH/4L9r96OKjK2Fvtb9fcVXVxMl/d/x8EOTLs3srmiJ3Rfk6/p7FUb9PYiz9/d/kVc1tgmf7SGb/AMnEnf78ENLGQZBkGQZBkGTEyDIMgyYWGGGGGGGwrXxktfM08lC75CTq7HEnf78ENLHUdR1HUdR1HUhwRUsc1ayGtq+CmBa+MhrZr5OF3yPvhohEnEjzVMENDSzVEOid0+SoqsgqM9kOCKmGGtq0sVWY0OnfeY/f7ORK3v7G9iYFr4yGr91Rf+CZd9XEy9vZGG072NXEp5BFYXiRKXse5W2GhoatYmZoMr2w4FHQdB0HQRUtWlsSsjinf4+TramBa+MnnIaGngQ4IqWJ3/HyZPZDW1aWqj4kwLXxk85DSyVSVSVSVSVSVSVREbAqOhKpKpKpKokLLgYYYYYYYYRMC19KhpZMhMhMhMhMhMhMg+BcidCdCdCdBInwOg6DoOg6DoOg6YVr6VDQ08CHBFS3WyGtq08FMC18BlGUZRlGUZfOw0NLNUO/x/dkSOjCqivZDgVHQlUlUlUlUhhVFtWlivkqGjHf4/sXv+PkiR8v1N7EwLXBBBDElSSH/wCiKCFEdxMa1tmUVX8xDQ0NUMu/2E695GnfX+jLv9UO/b5MsyHBFQmUmUmUmUhVXtWlsTtkKJ37f2JS1MC1xpjWtuajeYhoaeBDgipYzWw1tWngpgWuNCkSLsQ5MglO9vkVMl/fv8mq2LW11HXzENLJUJUJUJUJUJUJUGbBUlQlQlQlQRETAwwwwwww2Fa40thV+/1wLWxKjqOo6+Xhp6EtcaHQc1buqp/wRX73EzsWtuY6mYufr6FbGspYtbXUzH/wBMa1tdR1/wABQcccccfAqqKr/wCFqMv+GZp5jixRQxZF5FuXkW5eRbl5FuXkW5eRbl5FuXkW5eRbl5FuXkW5eRbl5FuXkW5eRbl5FuXkW5eRbl5FuXkW5eRbl5FuXkW5eRbl5FuXkW5eRbl5FuXkW5eRbl5FuXkW5eRbkCvCnkXHXzHH5vQuHyJ6Vx+b0Lh8ielcfmIeYkh2JIdiSHYkh2JIdiSHYkh2OMiIuVnCR4iSHYlh2JEdmJIdjiwokOC7g2JINiSDYkg2JINiSDYkg2JINjiQQpAuWLh8ielcfmIOZLNUQ6J3T5KiqyCoz2ceqWcHnsY1ezjcmGJWhVTc7/PwPl30+RcsxO/f4s4nIuLh8ielcfmIOZDVrEzNBle3j1SzhoqxZEke5JHuSR7kke5xIYkhzXG+Xep37lbeJyLi4fInpXH5iDmTwOPVLODz2IJZxuTG2mHici4uHyJ6Vx+YRWUv4S/hL+Ev4S/hL+Ev4TiRpHSzhxSxOX8Jfwl/CX8JxOIkULYPqIT6iE+ohPqIT6iE+ohPqIT6iEj48MULYuHyJ6Vx+b0Lh8ielcfm9C4fInpUfCnVy46lx1LjqXHUuOpcdS46lx1LjqXHUuOpcdS46lx1LjqXHUuOpcdS46lx1LjqXHUuOpcdS46lx1LjqXHUuOpcdS46lx1LjqQpKjf6b//EAFcQAAECAwEHDwgHBgUCBQUBAAIBAwAEERIFEyExNJPSEBQgIjIzNUFRdJGSlLKzMERhcXKBwtEjQlJgc6KxJEBQocHhBhVilaNwgiVDU+LxVGOAkMPw/9oACAEBAAY/Av8A9VUsMsgW3nbG3xJtVX+kea9Uo816pR5r1SjzXqlHmvVKPNeqUea9Uo816pR5r1SjzXqlHmvVKPNeqUea9Uo816pR5r1SjzXqlHmvVKPNeqUea9Uo816pR5r1SjzXqlHmvVKPNeqUea9Uo816pR5r1SjzXqlHmvVKPNeqUea9Uo816pR5r1SjzXqlHmvVKPNeqUea9Uo816pR5r1SjzXqlHmvVKPNeqUea9Uo816pR5r1SjzXqlHmvVKPNeqUea9Uo816pR5r1SjzXqlHmvVKPNeqUea9Uo816pR5r1SjzXqlHmvVKPNeqUea9Uo816pR5r1SjzXqlHmvVKPNeqUea9UomGppG6toKordeOvy+6dzecL4R/cSe9hr4vunc7nC+Ef3EnvYa+L7p3O5wvhHqqThIApxqtIypjOJGVMZxIypjOJGVMZxIypjOJGVMZxIypjOJGVMZxIypjOJGVMZxIypjOJGVMZxIypjOJGVMZxIQQmWiJcSI4nkaPPNtryEaJGVMZxIypjOJGVMZxIypjOJGVMZxIypjOJGVMZxIypjOJGVMZxIqy4LiJxiVdkpOEgimNVWMqYziRlTGcSMqYziRlTGcSMqYziRlTGcSMqYziRlTGcSMqYziRlTGcSMqYziRlTGcSMqYziRlTGcSMqYziRlTGcSMqYziQt4dB2mOyVdnPew18X3TudzhfCPVbri1wz4oxvYdWN7DqxvYdWN7DqxvYdWN7DqxvYdWN7DqxvYdWN7DqxvYdWN7DqxvYdWN7Dqw2ogKLrhrEn+tPIzVsUL9naxp/qcjew6sb2HVjew6sb2HVjew6sb2HVjew6sb2HVjew6sXQQURNuGL2E2Tnu/VI3sOrG9h1Y3sOrG9h1Y3sOrG9h1Y3sOrG9h1Y3sOrG9h1Y3sOrG9h1Y3sOrG9h1Y3sOrG9h1Y3sOrEzYRETW7WL1ubOe9hr4vunc7nC+Eeq3zhjxR8u3zhnvp5Gb5u13nNhcpxXdu/PK04tlMI1LB/KGpudctFQlMqUxKsTDc0826SojzaBTaAv1cHJ/XYXQ9sO4myc936p+5TPN2v1c2c97DXxfdO53OF8I9VvnDHijsFllut/lktrdDRdbo5Uq+qG5mfE5kzeVtq8N7Z3kWnFAvq1M4ZjW6t3vbifpSJl50X2FlyQTacbodVxYImHXxflil6W2nW6HhxYIcZRp+WfbS0rT4WSpyw/LgLzkwDSmStN2ka5FKJLXIPzc25L31xGW60T7Sw3MS5W2nEqK6rfOGe+nkZvm7Xec2GuW5dEdqpbpaIq8dMUEANOIBioqOuHKUXHgrDb7bIg62CgKjgwbC6Hth3E2Tnu/VNg6/JOXt5CFEKiLx+mLnHLPWJkkJZhbCLuVQf1g2zB8gaVBeeFuoNqvKsTDZszRJLkguuA3URrx1rEzfReltbhfCvzdmo8qRM651yBWFfbbdZQPo0+zyxIOSyzUu27MCFSYSjlUxYf1SAYVmZETdvQPE1QCLkrAuTFsrZWABsakS8iRdR2bV0ZdomxaZVqhoSpuactYdAAdZeZVL408Nkk5NhM83a/VzZz3sNfF907nc4Xwj1W+cMeKOwK6FzFk1QpdGqPkXLXiSEAZhhXjm1mHmtsLRV+rgw0gAUpZEG6IzW0qiWeREpF0nRdbBXnWXWOOign1odG6E0wL1sDYFodoCj/Naw7dG6psX9WkZEGK2USteOJ565r0ujc80gOo8i1GiUwUiUJBkph0JZGXBfRVGqfWSGWNrtE+oNlOjVb5wz308jNWyQf2drGv8AqcjfA60b4HWjfA60b4HWjfA60b4HWjfA60b4HWjfA60XQUVRduGL2E2Tnu/VNgctLqAmpCu3XBgWLpWHWaPql4RVXapbtFXBEwbYyTjUw5bU3m1Iw5UTii7LbZspr0m1aqq4KcuCJwjcAGn5QWUpjQkWvRCu3SdlrbcsbLKM1pUkpVaxcRm23akXAJzCuGicUMOuOSrqtTd9vpKV8Ma4q8XqiVdknACYlXb4F83K+hYnznXZZXn3W3Qsotio8S+iHjdblGTcpQJYKIietcewmebtfq5s572Gvi+6dzucL4R6rfOGPFHUK58hc7XjgtI6q64RvB0Q8/NCkirDqtOo44lBJPTF/V9u8f8AqW0s9MG9KHLzKgQoqa4EUSvpgWXZhkHixNq4iEvuiclleFspSlsjNEH9eLji+OTbAt1s2lcSlYR9x9oGVxOKaIPTE6blhhqVfVq2rmBaccX/AFyzeK0vl8Sz0whuzTAAq0QicREVYEpiYaZEtypmiVhCFUVFxKkN84Z76eRsTDCvuoKLtZYnaJ7kXkWOD3P9uc0Y4Pc/25zRjg9z/bnNGOD3P9uc0Y4Pc/25zRjg9z/bnNGOD3P9uc0Y4Pc/25zRjg9z/bnNGHBlG71ZXbirKt4fUqbJz3fqmyVYCefuUQSClRXhmEKmGm5pAtuTLIOHuRJxEVYdMzbV0G1MWlcRFKkS0zNOtSt/BCRHHETGkCcxMNNAWIjNERYQgVCFcSpx7KZ5u1+rmznvYa+L7p3O5wvhHqt84Y8UdRwlOclWdaJ9MwShVa4rUMCTExYlZ523Ri0ZpxHRd1Es6srMvS2vr65LOANokpjsJ+kXbCTlHG6zraiygYRTBxJE2UrJTDrjrgrZcl0cbc9NvGEf4iFJR1VmWG1aIG1VFomFK8sXLbl7nLeb2tsmpdHCQ1ROJcHvWLjHOXPmJhiWN5HWL1UkVcS2eODP/LnklwunfilVDCTdOJOOLrOysg/Ly8w8zepe90LAu2KymKGDl5d3WKS6tiMtLC5ZKv2VTj5Yuf8As87bbYIRW8jMUqu5If6xKjMsDLOIOFseKG+cM99PIzfN2u855K6Hth3E2Tnu/VNkXqhLjhcydSZcVRU3GbICilWtVifaCReIkRtGzal7V8RKYVLH7ki66TFy35x2aAVlnRatWdr/ACiUfn7mvTzC3PBpAFq2rZ8aKnFFzdcMTV+aA6K2ykwgVXckES4zLCSziV+jRKUw8mymebtfq5s572Gvi+6dzucL4R6rfOGPFHYIE43fBFbQ4aKi+hUhW5Nu9iq2lw1qvpXyTfOGe+nkZvm7Xec1S1s6bDhOtihgVFSpJCTltw2m5QkVm0tlXBEar0l/KHNca1cBg2lecarZvZ+/GkN0lWd7F0rRIG1IsGEiTi9eHYXQ9sO4myc936p+5TPN2v1c2c97DXxfdO53OF8I9VvnDHij5dvnDPfTyM3zdrvOatl4BcGtaElYqMuyK4cTacePpg2QlmRZPdAjaWV90NkbDRE1vaqCbX1bC6Hth3E2Tnu/VP3KZ5u1+rmznvYa+L7p3O5wvhHqiS1oLzRLRK4EcGN9XNl8o31c2XyjfVzZfKN9XNl8o31c2XyjfVzZfKN9XNl8o31c2XyjfVzZfKN9XNl8o31c2XyjfVzZfKN9XNl8o31c2XyhptgyM7+0tL2X208jMLMKoIbDdlbKrWin8431c2XyjfVzZfKN9XNl8o31c2XyjfVzZfKN9XNl8o31c2XyjfVzZfKN9XNl8onnWqqBGNFUVSu0TZO41xYk9Mb6ubL5Rvq5svlG+rmy+Ub6ubL5Rvq5svlG+rmy+Ub6ubL5Rvq5svlG+rmy+Ub6ubL5Rvq5svlG+rmy+Ub6ubL5Rvq5svlG+rmy+Ub6ubL5Rvq5svlEy4zUm7y0NbKphqfz2c97DXxfdO53OF8I/uJPew18X3TudzhfCP7iT3sNfF907nc4Xwj1UvR2CJ1sLVMVTRP6xwjMdRvRjhGY6jejHCMx1G9GOEZjqN6McIzHUb0Y4RmOo3oxwjMdRvRjhGY6jejHCMx1G9GOEZjqN6McIzHUb0Y4RmOo3oxwjMdRvRjhGY6jejDbiTrrv0oCokAUVFJE4k8jMJMto4gMNWa8W2OMmCMmCMmCMmCMmCMmCMmCMmCMmCJ5tlLAIY0Tk2ibJwmisngovvjhB/qN6McIP9RvRjhB/qN6McIP9RvRjhB/qN6McIP9RvRjhB/qN6McIP8AUb0Y4Qf6jejHCD/Ub0Y4Qf6jejHCD/Ub0Y4Qf6jejHCD/Ub0Y4Qf6jejHCD/AFG9GOEH+o3ow+w6+T4i02aKSImNS5PVs572Gvi+6dzucL4R6rfOGPFHy7fOGe+nkZvm7Xec2FznlFq1MzasngXAlSxdENTczYEitKVnFgVYfGabFpUo4zT6zS4l/lsLoe2HcTZOe79U/cpnm7X6ubOe9hr4vunc7nC+Eeq3zhjxR2F4nZi9u2bVm9kWD3JAvybiOtFiJNibji0EEqsNvy5W2nEqK0pXYN84Z76eRm+btd5zYA4Lj6ttuK42yp7QSXjTpg5YJ+d1uQkFi0FEr/2wExJN63JAUFQMRJ6ejYXQ9sO4myc936psCmJ070yOMqKv6QxMvzFlmY3srCra2DotLaVorJ4OOGRfKyrx2A2qrVdV+XaOrrFL4lFwVxbGZ5u1+rmznvYa+L7p3O5wvhHqt84Y8Udg5ebot3MLWSfSOChV22LDAsg+42R3QMCeZNAR702vqpDTaTzyf+LIwjgu2lsU+19aLrSoTj5NtPsijzhWjbE8eGJwLnXXdmwRxoSMturCLjW3x/0iYk5eecuhJowjltxy+WSritRdVmaui5IhLS6Kw2J2UcqmGv2uSLnywPrLsjII4P7VeKrXHWi19USrk0YuuqGEwxF6dVvnDPfTyM3zdrvOeSuh7YdxNk57v1TYPe2Heg5QsVy7Q9Z1KfyieIZtJcpd5AaEpmwKJ+HTbVi7kyM9NNFKONXtsHNphpxRdRtiafmVSTB5L6tqySrhVIJqQuk9PNuyLjrik7bvZUwKi8UXBeKemXTm5hu3aPBSmKJR5mdeNHZ29qBv/Vr/AOlxeuJFpHylGZiYQHXhWiinr4ouwshNk+JTDDazCnhs4frfyrE409MC+0FmymuL8QLyKVE2Ezzdr9XNnPew18X3IJs1sWRRVVcWGNq82uCu6TFG1ebWq03aeRudzhfCPVb5wx4o7C+TUnLvnitONISwjBSzKsjibvaWU90YJVhNvb3tN1y+uHVvLdXt82ibf18sKyyw020uMBBERfdCjKMNsCuGjYIMIcxLtOkOJTBFpDbbkqwTbe4FWkoPqiiYtVvnDPfTyN8O2h0s1B0hwe5fTG6mO0ufON1Mdpc+cbqY7S5843Ux2lz5xupjtLnzjdTHaXPnG6mO0ufON1Mdpc+cbqY7S584K9WqmtSUjUlXp2Tnu/VNhe5hoHW/smNUhy3KsFfaXyrabamKsC8cu0Tw4jUEqnvh1Dl2SR7fKtpt/XywriNN3xRsqVnDTkgxZlmWxc3aC2iWvXDQ3hqyzhbSwm09XJCksoxaUrdb0m65YUJhsXQX6pjVIMW5ZkRNKGiNptvXFiWaBkPsgNlNhM83a/VzZz3sNfF5GXGaZbfFJZxURwEL6wRLE/c6QsP4Esy6IqLHB8pmBjg+UzAxwfKZgY4PlMwMcHymYGOD5TMDHB8pmBjg+UzAxwfKZgY4PlMwMPmxcyQvTC0W0wlSi5T0nKMsEb2MGkFaXo9jc9uYaB5tXC2pjVNwscHymYGOD5TMDHB8pmBjg+UzAxwfKZgY4PlMwMcHymYGOD5TMDHB8pmBjg+UzAxwfKZgY4PlMwMcHymYGOD5TMDEgctKMMnriloGkFdyWxf13LtP2ZZqzfAQqbZyOD5TMDHB8pmBjg+UzAxwfKZgY4PlMwMcHymYGOD5TMDHB8pmBjg+UzAxwfKZgY4PlMwMcHymYGOD5TMDHB8pmBjg+UzAxwfKZgY4PlMwMcHymYGOD5TMDHB8pmBhG2JAibE3EFRMUTdrEwjjr8ne7NGwUV9+JY4Qm/yaMcITf5NGFW0hCqNptsa0WFs3tKm4vuJMELS91ston/bj8jc7nC+Eeq3zhjxR1HEnpCYugGtBo2wNVRa48aQ2EqiftM24jIOoR3gE4lRMNfRDLYSwDPPTF5C2JC2vHbw4aRdIboy0sZSsy23YS1ZXCmHHDjChLstCSIF/tCrqcdC3KR/iJ6+tuhLgBA2VpUSqYOPpiVUxkmXZipJVTOg0T6qYVWLmjJsMpOTlvfFWwKBj9MTogy2s9NXUJpBVdoJUw+6J9t9mX19KG2m1rYNDhqUJuWCaVpXTVBccFErgTa4ffEk6MsMoLwKrjkwBqIlWlnBDD5WKmNVvZ2h6Yb5wz308i+LxO2QYbUUB4gxqdcS+hIxzPa3dKMcz2t3SjHM9rd0oxzPa3dKMcz2t3SjHM9rd0oxzPa3dKMcz2t3SjHM9rd0onWgI1bAxs23FKm1Tl2Tnu/VNkfqhLqsorM+0qkjomv24IwCWVtsQUg2xGtfVgH3xddqTaZ1pLNWXVNVtrVOKJKQuS2xfG5EHXCfrTFiSkSUwyy2wL1q+uuiRgCpgptYZfO92jTDeztDspnm7X6ubOe9hr4vIsc2c7wQ2t8ccve4QlwJ5M1UnAt7pBXAqxcsU4pj/APkexud+IfcXy8hzlO6WxmubM95z91H8RzvrE96m/wBF1VCw44opaKwlaJFUhv6J0RcWgkqJRYdYGttvH5C53OF8I9VvnDHijqFdBCO/E1eqV2tK1hRF2YAtcE+DgmiEBLjpghpuUbemnBevqua4su1+0hLgrE61dG+tJMvo5S+oRpTlLlhwnX5pGnStOMC7tCX1ROGrjzeu20bdECSmDEuKJZy+vsuS4WBJpyyqjyLEuw29MtrLERNOidDGuNK0hxi3MLaev6OXzbgfKiw8ybswZPmJuPEdTJUxYaQD9+flnxGxfGDsqo8kNIzMTcrewvdWnt0nprDctKpRptMFVhvnDPfTyM3zdrvOapzQs39UIUsWrNarSAllbQWVlr+r6ngHBWlIG9v4SNG0RQJNsuLigf2jdcdgqJhphwYMOwuh7YdxNk57v1TZKnLANHNTr0sC1vBu7ToRImSJ6ZbGYorgNuUGvLSHiV6abvwoLqNuURyiY1SGLD0zLuMtXm+MuWSIORYYblnZmTvI2RVlylU9MBLSyLew5Vqq7KZ5u1+rmznvYa+LyLHNnO8GxcmJkrDTaVJaVpAsy84hOHgFFAhr0pCNT00LTi/Voqr/ACgXpZwXWixEK7G5nOV8I9jc78Q+4vl5DnKd0tjNc2Z7zn7qP4jnfWJ4mpt+X2rdUCwtcC/aRY4Tm+q1oRwnN9VrQja3s9rS2e1JF5cECBXwiTApXssMS5CqXwCW3UlpDLqu2ySt8T14/IXO5wvhHqt84Y8UfLt84Z76eRm+btd5zVvNu9/SAdaVxLWCRyaUhUXB3FFoVKdFmJlZictTT17svI1ZsWMWCsMq2bdAaBsr5Li4q2eNK4l2F0PbDuJsnPd+qfuUzzdr9XNnPew18WzNw62RSq2UqsCY4iSsNjx6zdX8wQTjRy9+RlaWR28GBvcYUKymCsA6r17cvC/VraW1ih5Ro2pGFtV+rtInCdVFJWVwpFx2DueErLMXs9cK8hKQonEnFF3NeWNd65WtvHe+L3Q7/kyKkvfirjpa46V2NzOcr4R7G534h9xfLyHOU7pbGa5sz3nNQW7oTF5MktIlglwe5Idm5eZFxhlKuKiLtfdjgW25ypktES9Hj6IRqemhacX6tFVf5RrtH29bUrfLWCLzJzYOO/ZoqV6YOXmZuw8C0JL0S/0hmZKYG8PEgNmKKtV90OS83N3t5vdDeiX+kSwsP2imrSs7QttTHxRreZnQB1MaUVaeukFNOujrcRtW0wpSFnmXbUqgqVui4kx4IFpmeG2S0S0BD+qQhz74soWKuNfdBvycwLrYbqnF7ook9/xH8oEgVCFUqipqD+I531ifSuFEb/RdV0TDcNXxMO6hFJLKqmFIZtMoIulZRUcqvRDrFmljEVd1y+QudzhfCPVb5wx4o+Xb5wz308jN83a7znkroe2HcTZOe79U/cpnm7X6ubOe9hr4tmQriJKQCPNo5YGyirDWt20Css5WntBsXGJkbbTiUJK0rDbLKWW2xQRTkSEdnpUXHE+tVRX+UCzLNi00OIRTY3M5yvhHsbnfiH3F2E1IFL3lWLVDvlbVFpyRNN63vAMJW2rlbSdEGbEyy4AbtRcRbPrigTkuS2bVEdTFyxfWHm3Gk+uJoqRMFbYvbZUGw8h7XlWmKDfkzl5okRFQdciCKlaVtQCTUwywRpgQ3ESsYNWQ5yndLYzXNme85qXM5qf9Y/xDrSl6/wAuW/WcVuLn2f8ALtY2B+3fLH6Vi7mvLGu9crW3jvfF7ok/8tRUuX/mP7Tjs/z4oubrG9691yGt73StPlH+I75SzfArX1LC3nJv86S88lIu3/k+tLVW7eubXJxUi4Wub3rm8O2r3ua0XFWJpZ693y2eu7eP3xcyTkTJqQmXcKrawNouH044/wAQyMo5blwBx1haU2ipDN/s2r0N7rjtV4oZ/wA2pfNYN3i+fa4/fjib/wAvs2NYFrmxitcXvxRgSTW5tFrur7S3h9ESgsVvSMjYtY6U1B/Ec76xPFbdbWy3W9uKNcCxlE32goyib7QUMVNUvS4eO0kUvJ+uo/OGVbIUcbVVU7G6hkxdNTCtquJa48HF5C53OF8I9W9uVpVF2q0WqLVIymb7QUZTN9oKMpm+0FGUzfaCjKZvtBRlM32goymb7QUZTN9oKMpm+0FGUzfaCjKZvtBRlM32goymb7QUZTN9oKBvjsw5ZJCoTxKlU8jfUN5s1FBW9uKNUT/5WMpm+0FGUzfaCjKZvtBRlM32goymb7QUZTN9oKMpm+0FGUzfaCjKZvtBQaipkTi1JTNSXZE25WyWOi0jKZvtBRlM32goymb7QUZTN9oKMpm+0FGUzfaCjKZvtBRlM32goymb7QUZTN9oKMpm+0FGUzfaCjKZvtBRlM32goymb7QUZTN9oKMpm+0FBmhOGZoiKpmpYE/+V2c97DXxeRYvTV+pLHaRFotLQ4otMlVMS4KKi+lOLylzOcr4R7G534h9xdhPT7SbYJ59nB/rH5xdqVlUVTCXl7SDjVKJaiYfkpm+iEkYuXqSvIbnEq1xx/hdVl26vuLfdru/Xyx/iJiRbW9hNhVttPqcdEht3/D7N7l25RxJkhbsDiwJ64WYbbRH3aWz41+ki6AOsg07rYbBKwTpu7Xi4hi561r9CmrIc5TulsZrmzPec1BcuhL34xSyi2yTB7lh2Ul5YW2Hko4iKu29+OEIZKipi+mP5wjs9Ki64n1qqK/yjWiS7etqUvdnBF+kpQG3ftVUqdMHMTMpbeNakt9JP6wzLFLjeGSQ2wFVGi+6H5lluy/MUvhWlw0hmbcbrMMIqNlaXBWNcTMmBurjWqpX10hqaRhEeabvbaoq0EfQmKDmHmaum0rJFaVKgvFAusyQ2xWqWjIv1WEC6DAvIOKuBU98GzJy4tNnuqcfvhbnizSTVKXu0vLXHjgGmko2A2RStcGoP4jnfWJ71N/ouregbQlQbWE7NfVyxXFDVplBB1VRKOVXohsb2KW67ly0qetPIXO5wvhH9xJ72Gvi8ixrc0brLGilSqolocUKjdcK1IlWqkvKq+UuZzlfCPY3O/EPuL5eQ5yndLYzXNme85+6j+I531idW/PtbVvezpxLGWTedjLJvOxS/bSzZVDC174FsWXFQcFaj84ZUFFDbVVI0DdQzbdQka3NG6L0+QudzhfCPVS9FYInWwrStLRon9Y4QPNDHCB5oY4QPNDHCB5oY4QPNDHCB5oY4QPNDHCB5oY4QPNDHCB5oY4QPNDHCB5oY4QPNDHCB5oYbc12rqX0BUVbTEpInkZgZhFNAYbspaVKVU/lG9LnC+cb0ucL5xvS5wvnG9LnC+cb0ucL5xvS5wvnG9LnC+cb0ucL5xvS5wvnE801VGxMaIpKtNomylWWXL1fSVFKzX6qrGXnmhjLzzQxl55oYy880MZeeaGMvPNDGXnmhjLzzQxl55oYy880MZeeaGMvPNDGXnmhjLzzQxl55oYy880MZeeaGCvxWyF1wLVKVoap/TZz3sNfF5Ft9h+8GAEG4tVRafKMv/4EjL/+BIy//gSMv/4EjL/+BIy//gSMv/4EjL/+BIy//gSMv/4EjL/+BIy//gSGHJibvqMnbQb2iYbKp/XY3O/EPuLsnpsht2MQ8qxcUrrtMNqguGN5VcVnEteOG3TSV1sbti9IS34U+0vFs5DnKd0tjNc2Z7zn7qP4jnfWJ/1N/ouq6JhuGr4mHdQikllVTCkNWmUEHVVEo5VeiGxvYpbruXLSp608hc7nC+Eeq3zhjxR8u3zhnvp5Gb5u13nNhIv63prqZvFLe5wrhxeiGppQvVuu1rWlFpEwiMqzei2tVrbBcRbC6Hth3E2Vz/bPuL+5Pc5f8QtnPew18X73c78Q+4uydlHlVBc404ok5qdumU3rZFFBJlE2tKQDTN03hkAO2LAiiL6rfJs5DnKd0tjNc2Z7zn7qP4jnfWJ4nUOtlvcuEPEvIsf+f2lz5x/5/aXPnDG2UUaX11Tkil5P11H5wyoKiG2qqRoG6hm28JI1uaN0Xp8hc7nC+Eeq3zhjxR2F4nZi9u2bVm9kWD3JAvybiOtFiJNibji0EEqsNvy5W2nEqK0pXYN84Z76eRm+btd5zYMIs2pyjDyvNM3vChYfre+Ckgui3eVAhH9m2yV9Nr0wD8q+7ZRm9EDhKVU4qcmwuh7YdxNlc/2z7i7BkJ169E8tG9qq1huQcepNuJUQsr+uLVVSwIkA8wqq2aVFVFU/WNaWvp7F8s2V3Pr1KrxQExKHfGjxLSmxe5y/4hbOe9hr4v3u534h9xdW6Z3TUGWZWZvIkIr/ADhxuTmgcNvCSYsEXiXmxN3kouH1csTrs19A3LO2a2SWo8S4v5Q02zMoZOmQBQVwqmOJpL+ia03+qKlmD1lMi4oJUsY4PfAy+v5J3HVAAxVfQlcC+uNauzYC/WlMNEX14ovE5NC27yUVaeumKBNskISSqKmpIc5TulsTmJW8qhtCCo4q8SlpRuZTrF8o3Mp1i+UbmU6xfKNzKdYvlG5lOsXyjcynWL5RuZTrF8o3Mp1i+UbmU6xfKNzKdYvlG5lOsXyjcynWL5RuZTrF8o3Mp1i+UbmU6xfKNzKdYvlG5lOsXyjcynWL5RuZTrF8o3Mp1i+UC26qKdSVbOLCqrE96m/0XVvUuzfjQbRbalIEiJQUkrRRxRe74lr/AP3HBKjqUFKrg4oc4hEkFMC1LByQhtraFcS7K53OF8I9VvnDHijsHLzdFu5hayT6RwUKu2xYYFkH3GyO6BgTzJoCPem19VIabSeeT/xZGEcF20tin2vrRdaVCcfJtp9kUecK0bYnjwxOBc667s2CONCRlt1YRca2+P8ApExJy885dCTRhHLbjl8slXFai6rM1dFyRCWl0VhsTso5VMNftckXPlgfWXZGQRwf2q8VWuOtFr6olXJoxddUMJhiL06rfOGe+nkZvm7Xec8ldD2w7ibK5/tn3F2FzWh3Sg+o+tBqkSV1G0tG4ZiCey0n9VWJJ0pxCV+1fWymrVr1BTa0i4zi3TnazrhtufS1oicnp9MBKvzzzcv/AJibBzKlt0BMSWv6xOsSk+86yzOMgzMW6rhxpXjh9op2aNtq5pHaJbS2reOmKsIws04+ycrfFQ5i/bav8vVDstM3QO57DMrfG7J2bZenl9UXGlmnVZZcbdJVSYvFpUJcFqkNlNvDMHVURwVraT17B7nL/iFs572Gvi/e7nfiH3F1btjrV5VcuihAl7XbDXHAG3LE4z/l5AtEoKr9msSLcrKzostubducaQgaT/QcXdldZzCuHOX0KNKqGKkmKLjTUrJuPMyqlbbYCqpVOSP8QOazfaV51pwWzHCQpEw3cuUK+azVvXKooIP/ANuLjSQXNflHJJwSdeMKClMdF46xOSMyxdJ5XphTS8qKMmlcakqLSJlZWWuiDptiNtoUfaewfXTiiWGaAG3kbS2IJREXUkOcp3S/e1dK/CapRb2+YV6FjfJvtrulG+TfbXdKL5LPK0VmytUtVSEBk7Dd4sKSpWtVwwqNuqjKrVQp6KY4sm/WwFlva4sP88UETromanawt4MVMUC2lMHINNlc7nC+Eeq3zhjxR2F8mpOXfPFacaQlhGClmVZHE3e0sp7owSrCbe3vabrl9cOreW6vb5tE2/r5YVllhptpcYCCIi+6FGUYbYFcNGwQYQ5iXadIcSmCLSG23JVgm29wKtJQfVFExarfOGe+nkb4quidmzVt4wqnuX0rG+zfbHdKN9m+2O6Ub7N9sd0o32b7Y7pRvs32x3SjfZvtjulG+zfbHdKN9m+2O6Ub7N9sd0oO921U1qSm4pqvvXZXP9s+4uwBxxoDcDcEo1UfVDd7lWQvVVbo2iWa46QbrUu0Dh7ohBEVYaQJdkUaWraI2m09XJBt63Zvbi2jGwlCXlWEZSWZvIrVAvaURfVCuEy2rihYUlFK2eT1QJMSrDRClBUW0SkCUww06oblTBFpAsFKsKwOJtW0sp7oQQRBFMSJsHucv+IWznvYa+L97ud+IfcXyCpVUrxpDiNkZ3w7RWqY/dg2UhzlO6X8JudzhfCPVb5wx4o6jiT0hMXQDWg0bYGqotceNIbCVRP2mbcRkHUI7wCcSomGvohlsJYBnnpi8hbEhbXjt4cNIukN0ZaWMpWZbbsJasrhTDjhxhQl2WhJEC/2hV1OOhblI/xE9fW3QlwAgbK0qJVMHH0xKqYyTLsxUkqpnQaJ9VMKrFzRk2GUnJy3virYFAx+mJ0QZbWemrqE0gqu0EqYfdE+2+zL6+lDbTa1sGhw1KE3LBNK0rpqguOCiVwJtcPviSdGWGUF4FVxyYA1ESrSzghh8rFTGq3s7Q9MN84Z76eRfB43rAMNqKA8QY1OuJfQkbqa7W7pRuprtbulG6mu1u6Ubqa7W7pRuprtbulG6mu1u6Ubqa7W7pRuprtbulG6mu1u6UTrIkZABjZtuKdNqnLsrn+2fcXZTvqHvJFxXrmIrKzDiNvAhrQ0VIl23xlil3zIforSqFP9W5X3RcyZdaYCSdnwvVlVtpReOJmeZl5dbnS716JFVb4WGlU4oNkQl2WEs2FmEJL7XkLEnvhF5dk9zl/xC2c97DXxfvdzvxD7i+XkOcp3S/hNzucL4R6rfOGPFHUK6CEd+Jq9UrtaVrCiLswBa4J8HBNEICXHTBDTco29NOC9fVc1xZdr9pCXBWJ1q6N9aSZfRyl9QjSnKXLDhOvzSNOlacYF3aEvqicNXHm9dto26IElMGJcUSzl9fZclwsCTTllVHkWJdht6ZbWWIiadE6GNcaVpDjFuYW09f0cvm3A+VFh5k3ZgyfMTceI6mSpiw0gH78/LPiNi+MHZVR5IaRmYm5W9he6tPbpPTWG5aVSjTaYKrDfOGe+nkZvm7Xec1TmhZv6oQpYtWa1WkBLK2gsrLX9X1PAOCtKQN7fwkaNoigSbZcXFA/tG647BUTDTDgwYdhdD2w7ibK5/tn3F2TsrMEQtuY1DHAPuzE1OONjZb1w7aseqJYgfmlSWNSaAnKiNeKlIbsvTSNtO31tq+7QV9CQZqcwjLjl8OXRz6Mi5aQ6RzE0Db1L40Du0L3QIglBRKJsnucv+IWznvYa+L97ud+IfcXy8hzlO6X8JudzhfCPVb5wx4o+Xb5wz308jN83a7zmrebd7+kA60riWsEjk0pCouDuKLQqU6LMTKzE5amnr3ZeRqzYsYsFYZVs26A0DZXyXFxVs8aVxLsLoe2HcTZXP9s+4v7k9zl/xC2c97DXxfvdzvxD7i+XkOcp3S/hNzucL4R6rfOGPFHy7fOGe+nkZvm7Xec8ldD2w7ibK5/tn3F/cnucv+IWznvYa+L97kXVBwwBwrV7bI6bVeJI3ub7E7oxvc32J3Rje5vsTujG9zfYndGN7m+xO6Mb3N9id0Y3ub7E7oxvc32J3Rje5vsTujG9zfYndGN7m+xO6Mb3N9id0Y3ub7E7oxvc32J3RiSFluZ2r9pbUs4CIlleNU/hNzucL4R6tg1VEqi1FaKiotUjLJrORlk1nIyyazkZZNZyMsms5GWTWcjLJrORlk1nIyyazkZZNZyMsms5GWTWcjLJrORlk1nIG+zEw4gkhWScwVTyKvC680aigreypVEr81jLJrORlk1nIyyazkZZNZyMsms5GWTWcjLJrORlk1nIyyazkOLbNwnFqRGVV2TaqZtk2tRUCpGWTWcjLJrORlk1nIyyazkZZNZyMsms5GWTWcjLJrORlk1nIyyazkZZNZyMsms5GWTWcjLJrORlk1nIyyazkZZNZyLAKSpVSqS1WqrVdnPew18X3TudzhfCP7iT3sNfF907nc4Xwj1bYhbW0IolaYSVE/rGRhn/AO0ZGGf/ALRkYZ/+0ZGGf/tGRhn/AO0ZGGf/ALRkYZ/+0ZGGf/tGRhn/AO0ZGGf/ALRkYZ/+0ZGGf/tGRhn/AO0ZGGf/ALQCzEqgtkYhVHa0qtPIvN64dZBtlskRumNVP0ehIy2b6w/KMtm+sPyjLZvrD8oy2b6w/KMtm+sPyjLZvrD8oy2b6w/KMtm+sPyjLZvrD8onGSdN4WzGyp0ruU2TIMtX1x0lREtWeKsZGGf/ALRkYZ/+0ZGGf/tGRhn/AO0ZGGf/ALRkYZ/+0ZGGf/tGRhn/AO0ZGGf/ALRkYZ/+0ZGGf/tGRhn/AO0ZGGf/ALRkYZ/+0ZGGf/tGRhn/AO0ZGGf/ALRbIL2SGQKNa4RWn9NnPew18X3TudzhfCPVb5wx4o+Xb5wz308jN83a7zmwlXkB2zMv3kMCY8OPD6IbmWUJAOtELHjiY1ra+gOwtpMfpT0bC6Hth3E2Vz/bPuL+5Pc5f8QtnPew18X3TudzhfCPVb5wx4o+Xb5wz308jN83a7zmwlWDcY1nKzCvgSVtljwLxccFJCkngA0BxHSrVf8At9MAYzN/YVi9GhIgqlNzSiYePHsLoe2HcTZXP9s+4v7k9zl/xC2c97DXxfdO53OF8I9VvnDHijsDBbm/5nSTFb3fr3TDjrCC0TaPJNk0oTBKt5/08pe6GyBlhZjX6Sq1QhFfThwpE81NsMFOsOttBe1VAJTxY4eW6EqwT1sAYJo9oal/NKQ7c66oMI8jSPCbFbKpWnHF0ZS57TCtSrFX1dVarVMQxc+TkwbtDKI4RONmdfQln9YYmDaJgnBwgXEuq3zhnvp5Gb5u13nPJXQ9sO4myuf7Z9xdhcy9bsEdcT/tRF/pErdDGyNRH/tbtL3oYty4qw/XcNnVvkqS4F90XPO8yVmdIm28JJRU419EAwjLP+YOTRyuNUbwYy5YelQlpcZmTebashWwQlyccGU4xK66C5xOKQmqJu8VV4vdGtJtGCQmL6JsiSJjxbbH60hyRuY0wStMX11XlXD6EpFy5WVEL46DhqTgEaIlpeIcMA++yrDlVQhVFT9dg9zl/wAQtnPew18Xlb42COHbAEFSsptiQcfvjJZTtRaEZLKdqLQjJZTtRaEZLKdqLQjJZTtRaEZLKdqLQjJZTtRaEZLKdqLQjJZTtRaEZLKdqLQjJZTtRaEZLKdqLQjJZTtRaEJLzTDTdptTRW3VLEqf6U5diAEu2Pc6rtS3pKngxQijiX+H3O5wvhHqt84Y8UdhrxJuclXr3e/oHEHB0Q2yDkwBtu35Hkc+kt8tYREemFpNJNbY0Xbp7onievi68UFLbblRxKMTDT5PzJTFLbrrlTwYsMOPo6/MvuJZV187RU5IcfV2YYN0LDqMuWUcT0xLiy/NMEy1er405ZIg5FwQDLVbAJRKrXVb5wz308iTzM07LkQIJWEFa0rTGi8qxwlMdRrQjhKY6jWhHCUx1GtCOEpjqNaEcJTHUa0I4SmOo1oRwlMdRrQjhKY6jWhHCUx1GtCHSN5x83VqRHTkpxImyuf7Z9xdhLTDynal7VlEXAtpKLWJS9k8SSxGQ2lTbWkw1wQJNvTJA3W9tG7UG68iRIADjtJE1Nuqphry4IcC28ilMLMI4h0IDXkgmicfIjeF43SOpkScqw6/MKaq5L63IUXBZrXpgJoJiZddBq9fSuWqj0RrlXH2HbF7JWXLNseRYlWmXplkpa0jboHQ6LjTFAss2lEeMyqq7B7nL/iFs572Gvi2dt0rIwqslapj4tUAJdse51A5yx4o+WlymHEbFZdxKr7QRlTfTDcvct9hatmZkQKdKKPpT7X8oymU7MWnGUynZi04at2HDQHEVQSymFMGBVhVBuipe7OHj+tCVax321turDgo3bvzIiq2tytKQI8iU/h9zucL4R6rfOGPFHUKTS64XLl0l0cqYAtSr/qi1dFSm3FmSZl1ZbwvonGiYov9HlK+3m8Xv6S39mkTTssUzKFLug2aqyKlVVxUVYdYvUy5eVQXXG2qiCryxdcZqWPW0iIkiiKV/Xohs2pSddV1VsALGEkT63qiWmGhfe1yqo0023U1pjwRPTE6Trg68VqXbRvb+gacsPzDjcw2suYi60QUMa4sEN2ZaccdcFTRoWdugou6VOSJdZcH5spgFcAGG6rZSG32a2DSqWkosN84Z76eRcYlnGWhbaA1U2lOtVL/AFJ9mMrlezFpxlcr2YtOMrlezFpxlcr2YtOMrlezFpxlcr2YtOMrlezFpxlcr2YtOMrlezFpxMtTJAZNEiIQBZrVK8q7K5/tn3F2U1MSp3t4ESyVK8cXO19OpPS04VhasoCgVPRDTF5mW0dVUadcboB05IlBuZfwE5sW78TW0cGuFEWDBQmFabcvZzCN/RiXIqw4xeph280vptt2hCvLFU2T3OX/ABC2c97DXxbNomkQiact2VXHCPPNWb46Ao3ax0rAWmb43U/obe5riitjbVCy5b3CJjSE+jsOUctO290q4odsfRGSJS+UJK+oaQ1rh6XJvXLFUBlUXfR/1eWY5s53g1JTmz3ea1QAl2x7n+J3O5wvhHqt84Y8UdRydmm2HpZZdG0A0tLarjpSBD9lNWJpxxppyqtq2X1V5IlHyOVlpluaviWGVvKYKUWmH3xdaybSlMTYmLlFECpStPRDjrKyjVokUZhLQOh0YC98XXvLjKtz7ICimqoqEMSN6Ng22G7DjL1bCrTHRMcXOKXdltdyZObqtghL9INwn2NepPa6bXDYX0LE85Muy+vJpxpVQa2BEIbnGAlXivV7JuaRbPrSkSrTTcg8jQKioYK3Qq1qKjhhiXmXlmHQTbGsN84Z76eRm+btd5zVKYnXL2yOMqKv6QEoLtZg274g2V3PLXZXQ9sO4myuf7Z9xdlMSsuoi44iUU8WOJM7rOyoNSmFsZe0tSpgVaxJuzByrl5cJTcqV8cReVV/SJKUv8qUpKTKOgu2QySvHEzIsvy6XOmHr6Sqi3wcNackG5L60CtLD+2B1vo3XvgRVbSomNePZPc5f8QtnPew18XlQ5yx4o+WY5s53g1JPWpNiWt3t8FVTdNxvkpmy+cb5KZsvnDVuwZoLiEoYEwpgijYbSw3bG1ulTHFL3esK7W1Wn8RudzhfCPVb5wx4o+Xb5wz308jN83a7zmreGQviq62qpWmBCSsKdL27eHGRO2mJEFB6aLD70pKa1Js2nJeXvqLtx3XoSqLEvVHXPox2zboDe3K1Jaqirx/V2F0PbDuJsrn+2fcX9ye5y/4hbOe9hr4vKhzljxR8hZqlrk2THNnO8GpKc2e7zWqInXbIq19UN4xtja22CmGkUIkxolapxw4tpCVtKkIrhhb4Dje1tbZMaQVEUVFaKhY0/h1zucL4R6rfOGPFHy7fOGe+nkZvm7Xec8ldD2w7ibK5/tn3F/cnucv+IWznvYa+Lyoc5Y8UdUJpMUs20Zeq1Rf1gZ01+ivroJ6gCGDdSV1u85YvQEt9BOVeKLovtsShSslMK2VbVokrSDauqwwDayqzIXklVUTkWvHErdWdk5YZaeUWkICJXAHi9HRF0ZcZeXWVlTITNaotmn6xc1ZJqSlhdt1J51UAMPJW0sOOPAAuNuq2titlfTh1WObOd4NST1u7eS1u9hsWvrNxlw5hPnGXDmE+cABOoToru6WcH/xD+EaGo2E5ErVYM27CbcCFPVDibTckgkpFx/pC3taIraJhVV21aw6T1m24VpbOL+HXO5wvhHq2WlRDQwNLWLaki/0jFK/mjFK/mjFK/mjFK/mjFK/mjFK/mjFK/mjFK/mjFK/mjFK/mjFK/mjFK/mjFK/mjFK/mgAe1uII4BrZrXAtfIuPyt5VHGxBUcrxKWlGKV/NGKV/NGKV/NGKV/NGKV/NGKV/NGKV/NGKV/NGKV/NEw7M2LbpIu0xYEpspd2WULbRKu348FIxSv5oxSv5oxSv5oxSv5oxSv5oxSv5oxSv5oxSv5oxSv5oxSv5oxSv5oxSv5oxSv5oxSv5oxSv5oxSv5oxSv5oVHlFTJwzWzi2xKv9dnPew18XlQ5yx4o6s1Mm/RH5XW9ixuf9WOLnKUzfNao5bq3vtv34IaaC6j2sWjtAwIoK+pS40i6ktrqmvn77ave4w1pjww3Muu2m0lFlibs7pOWsSzc1dFyYkpY7bTCtolOSpccXSO/W9ena3FLHzi52tp9Wn5K0iOXlFqiryLEwGuFmL88rlVGi4dVjmzneDUlObPd5rVbFwqK4tB9MOA2VSbWhYMWoAktFPcw3YOt8rZwckLaWlKcXL/Drnc4Xwj+4k97DXxeVDnLHijskam5kG3iTaisMT113G5cnSJKAi4aLxJhWEek3RdbXjTZMc2c7waknrZ0Wi1u9hILX1m/TGWsdm/90Zax2b/3QxVRdcC0tpEs4eLBWDtCu2ISJEVMOOv6xuFVUZoFTxFWH9bjRUcQmkr6MMTAiNRvdlrDxrj/AEhxAaQhshRK8i4YvhIW7VbVpKU5OX+G3O5wvhH9xJ72Gvi8qHOWPFHZXTcO5z083OtCLRNjapgxLyJFx5hxmdAWb6LgsB9KFVWi0WJhxW5lm/u26TBopL6aIiU2THNnO8GpKc2e7zWqyBov0q0SkPJWxeVoSlgSEq6CVxbaL4iK8CY1botIG39ERYhNUrCorTtlDsKdEpWFFDG0mNK4o+iMT9la/wAMucThII64XCq0/wDLOMpZziRlLWcSMpaziRlLWcSMpaziRlLWcSMpaziRlLWcSMpaziRlLWcSMpaziRlLWcSMpaziRlLWcSMpaziRlLWcSMpaziRlLWcSMpaziRlLWcSMpaziRlLWcSMpaziRlLWcSMpaziRlLWcSMpaziRlLWcSMpaziRlLWcSMpaziRlLWcSMpaziRlLWcSMpaziRlLWcSMpaziRlLWcSMpaziRlLWcSMpaziRlLWcSMpaziRlLWcSMpaziRlLWcSMpaziRlLWcSMpaziRlLWcSMpaziRlLWcSMpaziRlLWcSMpaziRlLWcSMpaziRlLWcSMpaziRlLWcSMpaziRlLWcSMpaziRlLWcSMpaziRlLWcSMpZziRPK0YmlhrCK1+15UOcseKOqpEqCKY1WF1rMNP0x3s0LVS0SIq4vTqm026BON7sELCPr2DHNnO8GpJo2+bC63ewgiL9ZvlRY4Tmeo1oxwnM9RrRhpL9fCC1tzoi14sSRVSFVqJbpUqtFr+sEiXvC1ZTHgWtYmwCyl+3PRDllQsuWaquMackEaKl8v9tNstKV5IdrTEdCtEq4fRih4zbvaEgolBVMXr/hlHBQk9KRvLfUSN5b6iRvLfUSN5b6iRvLfUSN5b6iRvLfUSN5b6iRvLfUSN5b6iRvLfUSN5b6iRvLfUSN5b6iRvLfUSN5b6iRvLfUSN5b6iRvLfUSN5b6iRvLfUSN5b6iRvLfUSN5b6iRvLfUSN5b6iRvLfUSN5b6iRvLfUSN5b6iRvLfUSN5b6iRvLfUSN5b6iRvLfUSN5b6iRvLfUSN5b6iRvLfUSN5b6iRvLfUSN5b6iRvLfUSN5b6iRvLfUSN5b6iRvLfUSN5b6iRvLfUSN5b6iRvLfUSN5b6iRvLfUSN5b6iRvLfUSN5b6iRvLfUSN5b6iRvLfUSN5b6iRvLfUSN5b6iRvLfUSN5b6iRvLfUSN5b6iRvLfUSPowEfUnlQ5yx4o6ty5RxVGWmJpBdw405Ik32lGRfSqADaoN99Cpxw5dsJloZcXMEpek3NabrHWJqXkJwZVkZYHRtMoVKpH+HJl1+9um+o7UEwEi7qLpprgUkpI0VQvaWlSmJIZu05MtHLuOYZVGkwDWm6x1j/Ek0yNpxLwg15VSBYnBmZiXcbrfXJNWbBcnq1WObOd4NSU5s93mtUROu2RVr6obxjbG1tsFMNIoRJSqJWqccKt9CiY1tYosC246tm3tKYobVDRL4lRRVwrFi+Db+zXD9/g5yx4o6qy84FsFw+lF5UgZknZibeFKAUw7bseqFW3MIwR3xZZHfolX1Q/OiR3x5tGyTiREiVlhdmB1q4rjTgmiEi9ETj4EZFNqiuIWKBW3MKwJ3wZZXfokX1RPm9bc18go6KrgSnJF+v0xMu2bIk+5aspyJqsc2c7wakmjLysLrd7bIKL9ZvljhFzNB8o4RczQfKAC+23BXdklMHHih/CNDUbCciVqsGbdhNuBCnqgaWbaOES4VStfSkJapZRmztSJMNYC3YLaghbYkpT0JAbTag4ZKVleP0/f4OcseKPlmObOd4NSU5s93mtVsbBuEeJBhFtWK4KFgWC+lDa49tii3fQsYq2sEK2pIi0RUVVx1/wCgAc5Y8UfLMc2c7wakneHryWt3sNm19ZuMv/4EjL/+BIYtq3MK2q2raWa9EMqdhUC3g+zXkgkJW8IWcC/6qwrjd73y0gri3NIc3qqtiKUSlKL/ANAA5yx4o+WY5s53g1JTmz3ea1SNcQpWEK2iYsa4q4oX6ZvBj26RZvgWuS1/0BDnLHij5ZjmzneDUk0F5xhUl3tsFPtN8qRwhN/k0Y4Qm/yaMI20/fEUSEr7x19SQqAQWFvda49rA1veC+fmxQ42qAifR1OnInF/0BvRGTe2EkIKVRRWqY/VHCU30NaEcJTfQ1oRwlN9DWhHCU30NaEcJTfQ1oRwlN9DWhHCU30NaEcJTfQ1oRwlN9DWhHCU30NaEcJTfQ1oRwlN9DWhHCU30NaEX9yZemDQFBL5ZwItORE5NSU5s93mtUjXEKVgkBFSyiLh9P8A0Tk0bfcl11u9tm0H7TfKixwnN9VrQjhOb6rWhCNtv32okJK6iYa+pIcVVRUJBRPcn/ROU5s93mtW2g2yrQR5ViWsjgfFVrXFE0ljeBtY8cFeWFcQERT21IT6SlURcXL/ANEJMVNwP2d7C2aiu6bjKJvtBRlE32goZC+uWG1VcJLaVfXDd5fpe1KzaGuBffB/T0vo2Xdpj+UHeHlaE0oSWaw6CLe2FEBxbpE/h8m2w8rN9eskSIirSwS8fqjhJ/Nt6McJP5tvRjhJ/Nt6McJP5tvRjhJ/Nt6McJP5tvRjhJ/Nt6McJP5tvRjhJ/Nt6McJP5tvRjhJ/Nt6McJP5tvRjhJ/Nt6McJP5tvRjhJ/Nt6McJP5tvRjhJ/Nt6McJP5tvRjhJ/Nt6McJP5tvRjhJ/Nt6McJP5tvRjhJ/Nt6McJP5tvRjhJ/Nt6McJP5tvRjhJ/Nt6McJP5tvRjhJ/Nt6McJP5tvRjhJ/Nt6McJP5tvRjhJ/Nt6McJP5tvRjhJ/Nt6McJP5tvRjhJ/Nt6McJP5tvRjhJ/Nt6McJP5tvRjhJ/Nt6McJP5tvRjhJ/Nt6McJP5tvRjhJ/Nt6McJP5tvRjhJ/Nt6McJP5tvRjhJ/Nt6McJP5tvRjhJ/Nt6McJP5tvRjhJ/Nt6McJP5tvRjhJ/Nt6McJP5tvRjhJ/Nt6McJP5tvRjhJ/Nt6McJP5tvRjhJ/Nt6McJP5tvRjhJ/Nt6McJP5tvRjhJ/Nt6McJP5tvRjhJ/Nt6MTTL75PoAgoqQomOvJ6v32U5s93mtW2g2yrQR5ViWsjgfFVrXFE0ljeBtY8eCLANVxV2+HDyJxwf0m4Wi4FxwhtrUV/h1zecL4R/cSe/Da+L99bcU3G3ARUQmypgWlf0SMsm87GWTedhkSecUW1VcJbZV9cN3l+l7UrNoa4F98H9PS+jZd2mP5RZvv0WDAoVVPUsLQ6Ffr6K0xRQztlxrSn8OubzhfCP7iT34bXxfdO5vOF8I/uJPfhtfF907m84Xwj+4k9+G18X3TubzhfCP7iT34bXxfdO5vOF8I9X6E1aInWwtJSqVNEXH644Sm+hrQjhKb6GtCOEpvoa0I4Sm+hrQjhKb6GtCOEpvoa0I4Sm+hrQjhKb6GtCOEpvoa0I4Sm+hrQjhKb6GtCOEpvoa0I4Sm+hrQjhKb6GtCGnBn5hz6ZsVE0boqKSJxDsZgEm3mG2wCiNoHHXlFeSOEpvoa0I4Sm+hrQjhKb6GtCOEpvoa0I4Sm+hrQjhKb6GtCOEpvoa0I4Sm+hrQjhKb6GtCJxp14n709ZEjRK0sCvEicuzlX3LozVt1oTWgt41T2I4Sm+hrQjhKb6GtCOEpvoa0I4Sm+hrQjhKb6GtCOEpvoa0I4Sm+hrQjhKb6GtCOEpvoa0I4Sm+hrQjhKb6GtCOEpvoa0I4Sm+hrQjhKb6GtCOEpvoa0I4Sm+hrQiXbKbefbcA6o4gcVOQU5fJz34bXxfdO5vOF8I9UOcMeKPl2ucs99NjO/htfFsJJ4QdszZqAYEwUrjw+iGpplCFtxKpaxw8Urao0dhbSU9/q2F0ucp4QbOQ5u33f3GS/Dd+Hyc9+G18X3TubzhfCPVDnDHijsLxOzF7ds2rN7IsHuSBfk3EdaLESbE3HFoIJVYbflyttOJUVpSuwa5yz302M7+G18WwkmHXGNaybhG2Q1tlWuPkxwtz/ANjGjKgDoulWvLuYUhmb/LmwLZIQoKoo7nEnJsLpc5Twg2chzdvu6rjzy2W2xtEvohboJMfsiLZt2Fx+rHDb8uVttxLQrTi1dbov0qDbVKYkg35krDQY1oq/pCEmJdRJO3+0KF8s0Xc7GS/Dd+Hyc9+G18X3TubzhfCPVDnDHijsHLzdFu5hayT6RwUKu2xYYFkH3GyO6BgTzJoCPem19VIabSeeT/xZGEcF20tin2vrRdaVCcfJtp9kUecK0bYnjwxOBc667s2CONCRlt1YRca2+P8ApExJy885dCTRhHLbjl8slXFai6rM1dFyRCWl0VhsTso5VMNftckXPlgfWXZGQRwf2q8VWuOtFr6olXJoxddUMJhiL06rXOWe+mxnfw2vi8ldLnKeEGzkObt93Vn+bn+kf5b9QwSc9150kiVlxmFlmmpADD9qvGHlxLa9UILs++0o3Lvy63cUUIq44uO8U2/MLOsOK42ZbWqJgokXNmwuk6/PTMzYellOooNcO14qRdidWfmrTb7jbY3zAO2SJomJ19tyWBug3+9pVU+z9eDmZcrLqgG3RNzWlViZcubPHdA27mqouGdtRWvL/OGxKbR5lxi0YFNX5a/axbX1bCS/Dd+Hyc9+G18X3TubzhfCPVDnDHijsL5NScu+eK040hLCMFLMqyOJu9pZT3RglWE29ve03XL64dW8t1e3zaJt/XywrLLDTbS4wEERF90KMow2wK4aNggwhzEu06Q4lMEWkNtuSrBNt7gVaSg+qKJi1Wucs99NibzE0bCmKISIIri9frjhBzNB8o4QczQfKOEHM0HyjhBzNB8o4QczQfKOEHM0HyjhBzNB8o4QczQfKOEHM0Hyh5TdJ43TtkRIicSJxerZyHN2+7qkDgoYElFRUqixkrGAL3vabj7Pq9ENg5KsELe4RW02vqhXFZbU1GwpWUrZ5PVDVhhoVZwN0BNp6uSFfCXZF9cbiNpaX3wbWt2r0a1MLCUJfSkWnZVgys2ak2i4OSL3YG90pYpgpFpiVYaKlmoNomCC1qw0zax2AQa7CS/Dd+Hyc9+G18X3TubzhfCPVDnDHijqOJPSExdANaDRtgaqi1x40hsJVE/aZtxGQdQjvAJxKiYa+iGWwlgGeemLyFsSFteO3hw0i6Q3RlpYylZltuwlqyuFMOOHGFCXZaEkQL/aFXU46FuUj/ET19bdCXACBsrSolUwcfTEqpjJMuzFSSqmdBon1UwqsXNGTYZScnLe+KtgUDH6YnRBltZ6auoTSCq7QSph90T7b7Mvr6UNtNrWwaHDUoTcsE0rSumqC44KJXAm1w++JJ0ZYZQXgVXHJgDURKtLOCGHysVMareztD0w1zlnvpsZrXCESA23Z26pTdRvZZ0vnG9lnS+cb2WdL5xvZZ0vnG9lnS+cb2WdL5xvZZ0vnG9lnS+cb2WdL5xPtt1sBMbVFWtPow2chzdvu7K770yH0zUy5YcQlRR44ueoKwrpsKRK9aIiotNyOH3xJNXNYYSYel7+5fVWyiVpRKRJyki20s3NTD2+qtkERcOKHqyreupeZvLxChE2KfbwYaQbjpMGonZtMFgX3LhTZSX4bvw+Tnvw2vi+6dzecL4R6oc4Y8UdQroIR34mr1Su1pWsKIuzAFrgnwcE0QgJcdMENNyjb004L19VzXFl2v2kJcFYnWro31pJl9HKX1CNKcpcsOE6/NI06VpxgXdoS+qJw1ceb122jbogSUwYlxRLOX19lyXCwJNOWVUeRYl2G3pltZYiJp0ToY1xpWkOMW5hbT1/Ry+bcD5UWHmTdmDJ8xNx4jqZKmLDSAfvz8s+I2L4wdlVHkhpGZiblb2F7q09uk9NYblpVKNNpgqsNc5Z76bGd/Da+LV1yLOuFtoNi1ZxwcsQIDAS9+V9TwcS0p70gBbf2xlZRFBUw0rx4sEN0mN8RFFbBceKuDB79hdLnKeEGzkObt93ZTBa8nmwmTU3WgdRBKvuhomyel721eaMnZqHIsSwtvzTRy4qAuA5ZJRVcS4IZYbcmAVk1Nt0ToY1x4YvLTsy2d8vqvC79IpcqrDiNE44bp23HHCqRLspL8N34fJz34bXxfdO5vOF8I9UOcMeKPl2ucs99NjO/htfFqttqdhAeBzFWtFxQonNkVWyCtjDjGnHxWUiYV6d/bHiAkeFqlmzgwDX0rAOtq0goIConLi4tB+yq4thdLnKeEGzkObt939xkvw3fh8nPfhtfF907m84Xwj1Q5wx4o+Xa5yz302M7+G18Xkrpc5Twg2chzdvu/uMl+G78Pk578Nr4vunc3nC+EeqrbyKoqqLgJRxLVMKRvk3213SjfJvtrulG+TfbXdKN8m+2u6Ub5N9td0o3yb7a7pRvk3213SjfJvtrulG+TfbXdKN8m+2u6Ub5N9td0o3yb7a7pRvk3213SjfJvtrulAkqzB2SQkQ5pwkqnoUtirpK8JqiIt7fMK9Cxvk3213SjfJvtrulG+TfbXdKN8m+2u6Ub5N9td0o3yb7a7pRvk3213SjfJvtrulG+TfbXdKCRm1tytEpmpqq+tfVs0BspkRFKIiTjuD80b5N9sd0o3yb7Y7pRvk32x3SjfJvtjulG+TfbHdKN8m+2O6Ub5N9sd0o3yb7Y7pRvk32x3SjfJvtjulG+TfbHdKN8m+2O6Ub5N9sd0o3yb7Y7pRvk32x3SjfJvtjulCOjficRFRFcfM6dK+Tnvw2vi+6dzecL4R/cSe/Da+L7p3N5wvhH9xJ78Nr4vunc3nC+Ef3Envw2vi+6dzecL4R/cSe/Da+L7p3Nr/APUL4Rxuk6Y3SdMbpOmN0nTG6TpjdJ0xuk6Y3SdMbpOmN0nTG6TpjdJ0xuk6Y3SdMbpOmN0nTG6TpjdJ0xuk6Y3SdMbpOmN0nTG6TpjdJ0xuk6Y3SdMbpOmN0nTG6TpjdJ0xuk6Y3SdMbpOmN0nTG6TpjdJ0xuk6Y3SdMbpOmN0nTG6TpjdJ0xuk6Y3SdMbpOmN0nTG6TpjdJ0xuk6Y3SdMbpOmN0nTG6TpjdJ0xuk6Y3SdMbpOmN0nTG6TpjdJ0xuk6Y3SdMbpOmN0nTG6TpjdJ0xuk6YnaYdo18X3TszDQPDWtDGsZDLZkYyGWzIxkMtmRjIZbMjGQy2ZGMhlsyMZDLZkYyGWzIxkMtmRjIZbMjGQy2ZGMhlsyMZDLZkYyGWzIxkMtmRjIZbMjGQy2ZGMhlsyMZDLZkYyGWzIxkMtmRjIZbMjGQy2ZGMhlsyMZDLZkYyGWzIxkMtmRjIZbMjGQy2ZGMhlsyMZDLZkYyGWzIxkMtmRjIZbMjGQy2ZGMhlsyMZDLZkYyGWzIxkMtmRjIZbMjGQy2ZGMhlsyMZDLZkYyGWzIxkMtmRjIZbMjGQy2ZGMhlsyMZDLZkYyGWzIxkMtmRjIZbMjGQy2ZGMhlsyMZDLZkYyGWzIxkMtmRjIZbMjGQy2ZGMhlsyMZDLZkYyGWzIxkMtmRjIZbMjGQy2ZGMhlsyMZDLZkYVJZltmuOwCJ/8AmV//xAAuEAACAQIFAgUEAwEBAQAAAAABEQAhMUFRYcHwcYEwkaHR8SBAYLEQUHDhgJD/2gAIAQEAAT8h/wDlU4KQzoD9O2a/JrNfk1mvyazX5NZr8ms1+TWa/JrNfk1mvyazX5NZr8ms1+TWa/JrNfk1mvyazX5NZr8ms1+TWa/JrNfk1mvyazX5NZr8ms1+TWa/JrNfk1mvyazX5NZr8ms1+TWa/JrNfk1mvyazX5NZr8ms1+TWa/JrNfk1mvyazX5NZr8ms1+TWa/JrNfk1mvyazX5NZr8ms1+TWa/JrNfk1mvyazX5NZr8ms1+TWa/JrNfk1mvyazX5NZr8ms1+TWa/JrNfk1mvyazX5NZr8ms1+TWa/JrFdOgAI1v/QjSg9Qe3q9LB3M53vOd7zne853vOd7zne853vOd7zne853vOd7zne853vOd7w0KUQEnz8EROYYKCO853vOd7zne853vOd7zne853vOd7zne8KTsRCAHt9VQhiQATne853vOd7zne853vOd7zne853vOd7zne853vOd7zne853vOd7zne853vKGJaJPL8dQeiCBk8Zx+KT4pPik+KT4pPik+KT4pPik+KT4pPik+KT4pL2pYQfB6NkupD4pPik+KT4pPik+KT4pPik+KQXFtAvqVLxSb4ZPhk+GT4ZPhk+GT4ZPhk+GT4ZPhk+GT4ZPhk+GT4ZPhkAzZSC/OZB6Z95H97QvDgpZasr1j4UYIUsIZ/3hskPmQN18Jh9b+Z78g9MrvFUsIKpG36jDkdgAdCVDdQY5oY2mfpzI0uaCGq8IOcgPSDAlvrBXC1TbBU0lXHkXAsYDziZuDZW0BADpBGwYuI+w95KDLhzCB0OoEc8oYdhZjmABIaYIFDYX8LD636NbAfUYg0AiZ47TS0IQZYSn6esqjNcAYLuSWmIsCvXSAzRLAj2Fcg+dZjn01Fq6qnHASqk6NgaytSrIRg7SimfpAAFC2fYGcERqfRSaKlGJMAMYqJDJVCP5L+QemSBgI21TysZbARAwCzc1cIRtByD7w2nxrQlCsdHAGGapq1SRsIciDJeQk1EuFP2EIQD0jjA9pLchIKA3XECCC1rN1uVgD8T3Vol0HD4pPik+KT4pPik+KT4pPik+KQXFvE/qfW/RhJzpIEATYHKW61WcGQVFE42jyRmwuGTUsjnAFXkWwcJBBWI+xCVmcNKX0SYHCnQQJW10AMDbXuogfx3EmIEJkprSDVdQNlFFYAJamoEEZDoKdYu+IgEzqfkb8g9Mj4EQqBWJfuYhKhwBaDeFTKvAPRCCRM6Bc6AosDGelFKgZwKSCMQG6OZRkjMEDT0Gm7qI5izDtkgtyiGI0voA3AgnsVVZVKHuvGYUIBd5a7270kmsBSZkMEeF7vgjUKSAylXyIpCpCpCpCpCpCpCpCpDTA8EMIDUA2Vfq9b9WpnYExhZ2nGFBTgBMAjDNkCWYCkzRwJpjhdGKSKvAAoEp3notulCYM2LKYD8l/IPTIppGOjXI3agN1NLHQKejvVGBkExAciKF6zVl3s4SwqVWEtLGLyQCkdYwH0LgAgGI20hqTFfYVoiVURjt7TkJrrPSVKXTUSwFyFJUgmkyoQem2FpEsoBDg7zBJw9k5Whs6YQtY9gKyqMqmH3XvJh9b9WB9fChgAVxNKHAuiBDBlgaYMpIRUCLHcwcLmUmOEgKjizlh0ZUYgjRVgD8YEMriibr8n/IPTIDomoFYkAg9ILCfqiNckZJ1P23vI2eiSyuOsPhFpFQwtcDg4UunMFHQRHFg2EFA0oiJwGhFBVVEhBbwcPrf8K35B6Z95AFWE4MFgo4gzMPMA+X3Zy11jHVRGXz+OPWw7eFh9b+X78g9AAVGhAgShoCfH/fv379+/fv379+/fj9jSCgITUZDwRV6wCE3YaPPwv379+/fv379gQF4Am6+pmAIdMKXL7JYsWLFixYsWLFixYsWLFhK6yQCByKgZPP/wBFoPUHqD10y6ASBtOli8eBAgQIECBAgQIECBAcVhyERZNj4JYyQMiLf0PKc4znGc4znGc4znGc4znGc4yhdf2Yp+pL6RIKYDGn2Xz58+fPnz58+fPnz58+fDDIFwIpsGX85QemfeQE8OgoIHVenOAZCICAAGJOUTJxiRUuZvi8LD638z35B6ZdIsiuYsmU4UeOX0uQadNABmX268joa/Y+8jrKt3zAnixxlVoZQO1diZTxm4FIumpzeFh9b9GaRAFCMoUAmDHrZSOwDHeAsAi38lj3OgBWmaHtDAQK2HCgp1P8sV8V1J1EI0y/JvyD0zfQiLDkGBr2gTOddbl9DUs7Ui1hXfrKAmpFcoo3/c1fFI7SAp/QtbKE/o1I6dwVUCAKQSUkBzWawgRxCWgStKj0SdoBQXH3nvJh9b9GFgPMID49QAna3sDFNvWf6jJdwyAIMyuNLQxEZaEigQABJVo0L0oFwmM4RB/OW7w3GbbiZVtI0iEt1FyiDgdJNMzOA0xVUwBJVDCjrDuWKsgVqR30/E/yDp4ywKyFc6TOBUm1HpCwBZBVDl9g9M0YjYJkyITczMToIoRZxHFva3zRpawA6iBD/tH6T7uQUhOkMIE9BBi+R1DQkS4VXvRJDtACAgsBh4nu16ycQJIBQ7vPwgIECBAgQIEDRpAQQlcibD6vW/RjgpEEgGItQy84Ez7RVaxTaXrpXQkkARIBC1vqgCOqL3zjdaQMvCAT2BWOraFGELEdkJXilWkLOr6y7EoA3YwL3QsACgFFRKp9aTOg+0/ICxy0AbiMEFZzQ5Ehtu05/tOf7Tn+05/tOf7Tn+05/tOf7Tn+05/tDpmQFkAZVKQtSN9B0wPpOSDIhtEznG05xtOcbTnG05xtOcbTnG05xtOcbTnG05xtOcbTnG05xtFljoUzgPp1DPkMTtYTn+05/tOf7Tn+05/tOf7Tn+05/tOf7Tn+05/tOf7Tn+05/tOf7Tn+05/tOf7Tn+05/tF/vgbBBIUTmiJyqCWKPXCfPw+fgB7xCxMtBVjR+scALRFWR7Ik8HjPTICbMQealQw7zCZPiLfnoZuEElMLALAClheVBxcMuEOotrKoX0yTYZrF9DpgQFtHRc5RAO3UAAxYS1QUh63PUoQSGLAQlKxbAMTcwWEubNUIBLB7x98jLIGAqpUqQRaPbsBYabOBg2xxwWnhPaS3SQLRCex4SBAgQIECBAgU8zE2MamTf6vW/VvXf1BEOeCSEAIatSGBb+kQTXOy+nT+WkrSmt4YrIlSIAAxawEMhNX6ipxMUOIxw1Q7YfbfkAYM5ioJ0VXoB4YKIQK/MWvAWYUf2SjVS45xV5bisTX9QY7BDEBD7fhXI6TNpoih6dPFemVjfNVGok33ic+EgeizQuHauwriCdigi136mUikQSIZg5OkETMgxbAiAMw5BhEAkiAFtD+slQESL9KDkRLdtCztABrMWBUP7cITEtHLYkXaNSnUUq9DRwy0OCxa0ouuMONUVhNWSTm/F95EsKbwC5HOUODt0NhkRV4y6QuBQSBBAhgFE0MyVERmC5UAhAJQPhYfW/VhFcCi9kY7luoGMNa1qo2pXp00mCnc3AQT9NIMIZQQDRR8hBAsO7yFmoEGtYAFZjAlkk5v7v8AIXrsFeR0FYYfVTjJgDgoMOghqAK7wUgW4B/tJKNVLjtMKSDgSX8v34OW1FmrBr0pCFjReTNqBzk6zMF2BoDUYCAIkOBBVoUzVX/pnpn3kSnT0H0TF0pQCaFACILwgNdIqzgFAZMxeLbr5Sx5DwxNJmXQyw8HD63+g35BvcpirQCploiA8jP+ZFAEkWshWLKPlDbcpqJJGQFLowA2LWVAkmqlaJxoXLoqtLRigoJANb1AhYDZNgNWFV0gGXSP0D4pCevAlPQWtT+gko1UvFfGqydSFdAZQAOq/pF67WmRQkVGHQQ1AFd5oGvU9ZkxgiehA+0wT11HqEhb4cBO0KCrG8dUAFBUdwQxiF8AUj4qEjdQ0KpBZZEBA7wCQ571Cv2j8sYUmYDwNFC4CAEJ6gEPb5Vj0AZMEyVmBfWVR5QeBZzEPWQFTFGCDj/Mc4YCzGX8gqEMewR5rziz6FrRyjcaJEQ7pakCwxbCJTyH+zemfeTD63+g35ATWCSWsObBFaoTuS+PprsVeR1FZVpgJKAgGYODiqAakg+8FqFKAPGko8oSM1yiK7uZbWDcAhpFZxqBSGeoDSYl2VPnW1hUzjCavUUiaeWUmeTZZRgFSI3AoD4h0DQnfoZrAQAkwbHw1Uvv/hCFPVP1nmieYHaAZdI/QPikIpB66j/40nzhAJdE/S9ViQ+TRkm2k9FR1b6s865+fCgrGV+LNW0akQKRw8XodJXOTSo0RDpTznwdI9V5+hlUCl5p/wCpSKlSBmV3pSyjO5SQjoJPX+Y5/wDnqcKcO3nDt4fERVVQoT1AgZthpEdcUAqaSkS6GuvpDBTIjJyRsVfDentTbKAAgI1AnF7k4vcnF7k4vcnF7k4vcnF7k4vcnF7k4vcnF7k4vcnF7k4vchOQgB8DFCcx4JMawNASGuBnF704venF704venF704venF704venF70HLyaAgACp0H1B/TxDzETgfuJwP3E4H7icD9xOB+4nA/cTgfuJwP3E4H7icD9xOB+4nA/cTgfuJwP3E4H7icD9xOB+4R8D8qIV4H7BAuqF5qtqE6MdcDRsiglkRKloftZKMl4kmgoHoEAfuGYBN0XjmUllmvQ2hqJkRg7ZHWJyGl1DQHbyjJjJ1DbQNlwToQxAUDpSd34i1SVjMCCC29t1AXhKpeC+NVmqEK6AygIVX/aMhIErJkfGlUA1JB94nxhanpLsIRHdDFdpinrqPQJA3w4ANo1B3N5jPAjCFCUO0pboEWg0aPeHpNMLbQQB7xdJ0GQanlEwPLHAgCu94GCYAwPQglaz1boAREEmVCRJ6yqfOPKgWDLLsWsNuFEEgUFTX6o5wxhWEsgODXRahYNGPti0hDugyjlTkEo6AX4q9QB7fvKGs+tNDaA6I9bSC5oP1Yf3clGqlx7NyikYcv8AxOX/AIg5aig7RojB8PA3gGOKDVJQCJdDXX0hEb5B0wqsXfw3tGpC0EyjoU5jtOY7TmO05jtOY7TmO05jtOY7TmO05jtOY7TmO05jtOY7RqcHCCUVA18E1OsAhN2Ojy8L8+ffnz58+/YkAeApufqoG7QGhiOk5XtOV7Tle05XtOV7Tle05XtOV7Tle05XtOV7Tle05XtOV7Tle05XtOV7TBxfEC6DQPsEDCbAAILHp8UpSlKUpSlKUr0oE7iY0Pw0b7IRWTSgPMws5FIDVZAulZnROaUPUL+iVS44iJ1D/wCQVCGPYI815xZ9C1o5R9sWkId0GUcqcglHQC/p3pn3kxcDRg1XaaXnqi9i5DKJ1BnQXSjRp+CYRKpBGLUwzyBYI7iEIYrElQob5ktw0bYS6twqdH9EqlxxxAhb3MU/5BBpYBQ5Oo9hAzbDSI64oNU1AIl0NddbQjMcg6YVWLv470y6RZFcxZMpwo8cvpcg06aADMvt15HQ1+x95E57QBBKrVAfAR7lcFq64qaEEqbiEFxNIrS1fGwiWmCBVKZAq4vLrAOsVwBLHH+TlIMk2AlWggCM0hmLdMKk6FfBv+BGIgDMqcFXMijQ1uP6pUgjGY/pkhkCh18oHc5ABQMQSERqJfryTC3YhdjhR6ZrgUTASTqEd0M6BwQaWIrHLZIhDh3IR7OGRXqIIM1AprK5+TLFgfqUOFojGCa6AVQ94FowE04bUD5oAAQswQcR9apervBBOYQ4H2rx48ePHjx48ePHjx48ePHjx4AdjbVUR9foOEKhMAQNq5w6qw4SDRa1EoKzoU01gawlQ8USHUMx0hRLNBhC2BwOurB4r0zfQiLDkGBr2gTOddbl9DUs7Ui1hXfrKAmpFcoo3/c1fFI7SAp/QtbKE/o1I6dwVUCAKQSUkBzWawgRxCWgStKj0SdoBQXH9B7yYRJPRiF9QCakEotZL/VBwRs1+qFh77hRxNUapYeD2DJgJixsYNvxtBhAJWthZaGhpFgh3IIqwEaNjlLxzhOS6rBGvoo4QkrrGAgRY4DSwM4PT+pVIIw3fWxZopUayrViDgolQMdu5j8CUeSUvP13gCL2cA3OVIICHpG75BBhkBUJV04BBa9xNLhWDazqG3sgMDEmywdSAROEhWqBoL1KgDLIRNYAUHb71UW0OKnCzAwb/wA6tQYpOelLXLesICaDTIp7q3loEykk+gpCQClDAQoA1zUQgMc4y9gvUQZQQG4B8hQeK9M0YjYJkyITczMToIoRZxHFva3zRpawA6iBD/tH6T7uQUhOkMIE9BBi+R1DQkS4VXvRJDtACAgsBh4nt2/AkUJIBU9zwjhw4cOHDhw5aEBpCV0mw8IS6VKJi7Gzl90qI3KKPFT1OWaJFTCVRBAEbmirpCc8xNXG4FU6wCwSOJYhE9YWsg1Fq36IVoYnQNwCBQQxpmQT0dofCjMyaIoM+KCQA/rlSCMoMkCMQQksIYrmQAB2H9oqemQE2Yg81Khh3mEyfEW/PQzcIJKYWAWAFLC8qDi4ZcIdRbWVQvpkmwzWL6HTAgLaOi5yiAduoABiwlqgpD1uepQgkMWAhKVi2AYm5gsJc2aoQCWD3j75GWQMBVSpUgi0e3YCw02cDBtjjgtPCewygW8C0pPY8Lp06dOnTp06CQcA0xjUybnxRLgndQioCQThBfYVsCQzyYrV1acgZao2hrh0/ACwlTaOwipnMrtQMGkAN3+SqkEap6ZWN81UaiTfeJz4SB6LNC4dq7CuIJ2KCLXfqZSKRBIhmDk6QRMyDFsCIAzDkGEQCSIAW0P6yVARIv0oOREt20LO0AGsxYFQ/twhMS0ctiRdo1KdRSr0NHDLQ4LFrSi64w41RWE1ZJOb8X3kSwpvALkc5Q4O3Q2GRFXjLpC4FBIEECGAUTQzJURGYLlQCEAlA/YYRIYkgGAAiDRgjCF1YoACEUAGEEHAiJcJWeusP451AMuoLSh7R++ZX6w5KCWLzIFdiInpQMgPz5UgjVPTPvIlOnoPomLpSgE0KAEQXhAa6RVnAKAyZi8W3XyljyHhiaTMuhlh/qmESqQRqnpn3kwiVSF9CgoEYok3PjqlSpUqVKlSpUqVKlTIIBVgWQxiP6x6QKboAEB6gTg/acH7Tg/acH7Tg/acH7Tg/acH7Tg/acH7Tg/acH7Tg/acH7ShVmwRGHTMeCOmb2iCDlwftOD9pwftOD9pwftOD9pwftOD9pwftB9CrgEAAeg+osSroBIIPoZwftOD9pwftOD9pwftOD9pwftOD9pwftOD9pwftOD9pwftOD9pwftOD9pwftKyizAUQnqT/uiD1B7UQ7/AWvWOYY5hjmGOYY5hjmGOYY5hjmGOYY5hjmGOYY5hgAVyDmQgosz4J/lEAsMSWXhSKKKKKKKKI4cFAAmNgMT9THlIoIir2nxSPikfFI+KR8Uj4pHxSPikfFI+KR8Uj4pHxSPikfFI+KR8UgrwYUEnX85IPTPvIMcOEWASDyK85QT+IFBDAnKGgW1INCjUqo6f4rhEqkHpn3kIP3scTALNbgOmi5GJBIyQN2BJQN9QVVVx/PcIlUg9M4SCDf3iOi1gMdFqu0Czhq0hsNBgkhoPUvpM28s4C6kdFVwUaoJ3EOROS8gVTcWfW0/NCjWJh9ytwhQEJI6qRxcgxBtEV/oPeTCJbpKXOKb80SyD6kWv9r5oRZh1cINHHMwWvS4lcLYBhF+YtBXpv2ogsUPUmAoqQSEnlgZxTJ7BjB5jIiPLmkNs9qaQViIbektiT5RNDlBg3FyN/uFSDe8/QaohWO3jAQIECBAgQIECBAgcNUPqSCD9JSlciur/AMngUQ1lCe0rpAY/tnpktPIEXIl5jHMxqcVyTHpBAMIw1CWIOOOsLwWgwUSAYPnDCsD6QYAJdIKwWibYKCkFOllkQKrDRhdLJtoPYCDFAd4Xcmp8T2MNbAgMvCa8ePHjx48ePAVxRAmgBQSw8ISPCEIRVwDLpAw0YbCGaCFLTquGYH/RwnzUVE70K4KL691djgW6uBNEEWKwJaKFgSAQ6pZ1a9odhigBlBkWigh8PmQgchgcBWQ0EdoUZxWHG5JOP2SpA2CFiZW4iBEgdQa/yhY5FdX+wzjTZqLP8ADvCikIAhcb+SlTi3VbIqH7guBWjQDVeAjVgsKsvFCwirIQ553wj+LI/R/aPTIvW4eoE/dhDsT0+WRJetoGvtJ/1veBKBFAD8mLtNItbOM35AwHawcgiral3speG2ZBUAkGQLr4xrC4B6jDGsWMB3BBBIrNeClgXLOokUu8EdsEhGCEWGeUwxCQMJIJCq/KY/HiDqDj4XuvsAQQmCPd4UWLFixYsWLFcJKIADYczPxBNgEEIxFjTGKis48wWMSoAvG3M35gQTAuBthp7SppZu2qdo676Nlc/IGAARg1H2ipAXdFExhPOst1DJhiEUq4qhxgkWrrUr0curM1eoLlTj1cZaACRQLK8XQhDkVz7xmEarmdkkn+vsx0xKVyK6v/AHD0ygJtMBqiJayr1EsgoKoJ0cohFNZU2ALHKPSZW4qSbEDjCtxBbox+5CxaAGAVQSNa+kub0CkGcDIxYfqedeAZR9HhQ4QAQJjs5TAsGYFASGStIO1mqRsZysamCd2BYVtFFRlEurxqhbt4vvI0JAKUZQoBMHlSep0i9fssIkN2wwgUJqgThHgLdFMRlvCe0b1WDANQ9GsNtJQAkVQnU+8MdGj4gQi6ovDYZDQABpgQsiwbxZ/1SpDOOJuB6A0SK/y9elkbhBIoJlwESgcK3yhwmhgtT5T8PemfeS1Wpqqu0cM0fLWrLuNHAYTzsMBMGxL1uZSsD3CTgxm6opGkFv7fCJVIZ0McDqqvDHTB30PgoZmDMjICUDW7iqQXojgxjH1gBADSAWOtOVRE5iEpVeRP8CemfeTCJVIZyfrsF+lJ2uA5I7uYyyw4oOq7RnebgpBVTzOtov0Hge86FDUwwmZd2Y2aw6IrCGoJ1bGlJYjIojoCM50cJ2V6yEUuArj9I4BhC86gsp/yUKMgdNESYIQeKE61kYKxpm4ugL6qDUWpGLIk8ROsW9UowyK9QANcKRqqOMlAFXp/YvQGq3VSUrsny8fLx8vHy8fLx8vHy8fLx8vHy8fLx8vHy8fLwLtOMNoH08EvFg0OMLhT5ePl4+Xj5ePl4+Xj5ePl4+Xg7RpTIA4un1CQUpkBPB1+yMYxjGMYxjGMYxjVgjOQpQ+z7dDOxTdyzBDXVFvWUm2ghmZJ1NZn8qSGiXUtMVS6coaF6TNgEEvUpeygynmoDAVATGIVxAIV82kAAaFgmiaxANb1h5i0HhRsuttPAHTKHbNEtKMKFqv4e2RAI1Qc7opVxdIPMeEkqkK/4K9QzufKAJ6NWGpUF5gk6kYhaM2OB+s4g6eAOBFTqMjJSfKJ+USm9TJ8VYsgIFkk6+aRVihxQ4w+Ilkp0wggonlGgdGMHCgmBKgHZX1Qi5hgLJTd1PnDRagAWiiJslb/AAR6hnBE4GCKfXOkplZCKkDseloV8h1arCcq+GOmEhS3CgNL+cdoNG2VsXpCr8LYK9Iet08Bc6waGRYPsDCNhn4SzfpCr9tF9Qjii3Sn9YPFnJBPiG84pvOKbzim84pvOKbzim84pvOKbzim84pvOKbzim84pvOKbzim84pvOKbzim84pvOKbzim84pvOKbzim84pvOKbzim84pvOKbzim84pvOKbzim84pvOKbzim84pvOKbzim84pvOKbzim84pvOKbzim84pvOKbzim84pvOKbzim84pvOKbzim84pvOKbzim84pvOKbzim84pvOKbzim84pvOKbziG8TUIgHk+wzghgyEAJ2DWnVfyMSKgJTfyiRyAsslx9Q4KPHcjg0n8oULDBb0EMAhQrCAOgsQBcCorQYmdixdSZUtaZbAUCtNJRYtf5HSGqQrsRI2PtC4CBREa6VJvBRpDhKF0AH+sBAcWnfglllllllllllllllllllllllllllllllllllllllllllllllllllllllllllllllllllgUqTdQf2GcimyVEJEeWlIGXxVUIJRDAhGN+RvxSMgFB5vF9I+DeUUCMXSpaNvkxG5csVcs2gG0UBTLUACQQYUCDPnD5CGudcCPgB0wd9D4KGZgzIyAlA1u4qsnoibMbQjLs6C6vIwAOVYSFSdSJQgwQA6TV2qOq3+A52uEiKCsTAyswvwHYJZmqjM07yr64RhCCb7xQ6QQhZrR6Q7ZqQQQVKa6y6vpWbH/cRzAAoaUBjO5lMXrn7YB9I5oSrQRZoI+P5ECDRr0gESYBArGE61kYKxpm4qgJ5Sg1FqTJb0KLJ1MYAoZKFjjnauJjsWEE0UA97QK3wREgDew3wP+I5x0wuDEgUOgeJER8RkDhgKIXWOajk/NlKqhFlVZOWpKABWSrW3+IZxwBRPWwso/yELPyaI4pQDKr4lZDAg2UFJj1CNDJIUygb5idhUdLwT0U1BMKyH+J5xw555LMDSLwyDIADgDF1eWGEUNdsh+X+I5xxPMd0cGoJ8/D5+FXKCrwCwW6QIulImFj2likQfUlog7JAkJ0m+Nv8BJsBEAmCEXDDxjhw4cOHDhw4cOHDh7IoUEEe2fTMeeSzA0hdkS0Cx/iYAsOwJwaT0/l+/KpGFDgGkKdBEHm29qv+LTGBCABRMbQKu0AA1LgF9SCe1ozEOFRhoZldISRLK0dBYzb/ABBGJP3ARhOHbzh28KQtUrAXujMpMf2vBgm1wIwcq4DrF1mSMgmDgVHdphCQM8P687bMhxhxFx/BIECBAgQIECBAgQIECBAgQIECBAgQIECBAgQIECBAgQIECBAgQIECBAgQIECBAgQIECBAgQIECBAgQIBKzlIXbRk/oJjAhAAomNoFXaAAalwC+pI9rQGsJTUUgfMQhIGpPnErVMzIc/w86g1DvnVBytOX/icv/EA9PJMhTlKTH9rwYJtcCMHKuA6wjFWRRHyJR64xFkQ6wTvopN2H/wAjTqB1A6gdQOg5TSyAvIQ0WHjqFChQoUKFChQoUKFDxm6IZZNjn9LD1VgmqS5g8JQoUKFChQoUIpWIWLlS54fVQSgiJG0Ikru+xCBAgQIECBAgQIECBAgQ2BcYANEhzF+cIHTJPgmkB1DksIC6FdnFIB4gANUTAZiSERGjAVuwPhMbvSclk/NkUDpl0iyK5iyZThR45fS5Bp00AGZfbryOhr4hPghiHx7aFCABC6JMCBxsIFiGgn0galIAIQCBDEM16+Exu9JyWT+W0wRJQBmgrA0alnSVH6RGBWwZWoa/y0nRQTIagSbDGmkMYAY1A1aqBtEBH8EyIqzxNpXw/KkUDpm+hEWHIMDXtAmc663L6GpZ2pFrCu/WUBNSK5RRv+5q+KR2kBT+ha2UJ/RqR07gqoEAUgkpIDms1hAjiEtAlaVHok7QCguPuCfDG70nJZP54XPDIvYqkT6EJ6K6BIVM2BpDb4MZyXfQ2HlGqe5VvIdcYr2Y+QIBplWUfWcwC+Dd4CtBKbs8hANKyRxalehhhDD1YE5rhRepYJ0l+a4KUw/KSKB0zRiNgmTIhNzMxOgihFnEcW9rfNGlrADqIEP+0fpPu5BSE6QwgT0EGL5HUNCRLhVe9EkO0AICCwGHgEzg+2qalYc3hePHjx48ePHjHUeAwoAWH6rvSclk/k8aCcMQQYgggFHhdjYgZLo/A6FSMhnBi1f0hJCBKAhuPaj9aqHURzG66ylSUInWEh6YTd4W0lNp+9JWWkQEDYrFkUFtJeinXDVfk6KB0yAmzEHmpUMO8wmT4i356GbhBJTCwCwApYXlQcXDLhDqLayqF9Mk2GaxfQ6YEBbR0XOUQDt1AAMWEtUFIetz1KEEhiwEJSsWwDE3MFhLmzVCASwe8ffIyyBgKqVKkEWj27AWGmzgYNsccFp9QmOUIAE1Vjp4TJkyZMmTJkyVNEBFBJjqSe/1Xek5LJ9RywpWqENCr5yoKp5YFiFdSO4hT6zQyR2h8IgNZJrjHSKSCHR5KGCUYEeBuOh/KUUDplY3zVRqJN94nPhIHos0Lh2rsK4gnYoItd+plIpEEiGYOTpBEzIMWwIgDMOQYRAJIgBbQ/rJUBEi/Sg5ES3bQs7QAazFgVD+3CExLRy2JF2jUp1FKvQ0cMtDgsWtKLrjDjVFYTVkk5vwSfBXQjumV0YCYSnFLBlWcb2IN9KJAagaeEwfKAABIioc2ofhMbvSclk+pk5QWuBGDvMKZ8vPlA/hnFQkwQiuUEnX6XaCJdRBiwMhd0EfKFVI6ig0H58igdMk+At+E5yxC+cotky1EO6wWukMKIIgqIDQANcZbDt7CMzFDQ+Exu9JyWT/ABZFA6ZJ8MbvSclk/MkUDtSJQAEBAQEEEA+OaNGjRo0aNGjRo0aNA1WQGGCwDX6TeHtODTAxifCNGjRo0aNGjWVtA0AZKTYB2+q4rACODwALADB9iGDBgwYMGDBgwYMGDBgxL0thFNA4wH/y6QOoHUDqB1ABZADH/BExjGMYxjGMYxjGMYxjGMYxjGMYxjGMYxjGMYxjGMYxjGMYxjGMYxjGMYx1MBhfiYdGqBhBzRnFNpxTacU2nFNpxTacU2nFNpxTacU2nFNpxTacU2nFNpxTacU2nFNpxTacU2nFNpxTacU2nFNpxTacU2nFNpxTacU2nFNpxTacU2nFNpxTacU2nFNpxTacU2nFNpxTacU2nFNpxTacU2nFNpxTacU2nFNpxTacU2nFNpxTacU2nFNpxTacU2nFNpxTacU2nFNpxTacU2nFNpxTacU2nFNpxTacU2nFNoJElpz1X/sr/9oADAMBAAIAAwAAABAAAAAAAAAAAAAAAAAAAAAAAAAAAAAAAAAAAAAAAAAAAAAAAAAAAAAAAAAAAAAAAAAAAAAAAAAAAAAAAAAAAAAAAAAAAAAAAAAAAAAAAAAAAAAAAAAAAAAAAAAAAAAAAAAAAAAAAAAAAAAAAAAAAAAAAAAAAAAAAAAAAAAAAAAAAAAAAAAAAAAAAAAAAAAAABPDDDDDDDDDDDDDDDDDDDDDDDDDDDDDDDDCAAAAAAAAAAAAAAAAAAAAAAAAAAAAAAAAAAAAAAAAAAEAEEEEEEEkAAAEEEEEQAAQEEEEEEEEAAAAIAAAAAAAAAAAAAAAAAAAAAAAAAAAAAAAAAAAAAAAAAEbDDDDDDAIAAAfDDvDMABUAAAAAAAAQAAAIAAAAAAAAAAAAAAAAAAAAAAAAAAAAAAAAAAAAAAAAAFYBZLp7MAIAABMAIEAcABUALbq1hcBQAAAIAAAAAAAAAAAAAAAAAAAAAAAAAAAAAAAAAAAAAAAAAFZXgQDttMIAAAbPPPOMABUAAKMJ0ABQAAAIAAAAAAAAAAAAAAAAAAAAAAAAAAAAAAAAAAAAAAAAAFYBKAAAAAIAABcA9aAMABUAAAAAAABQAAAIAAAAAAAAAAAAAAAAAAAAAAAAAAAAAAAAAAAAAAAAAEEMMMMMMMMAABEMMMNMABAIIIIIIIIMAAAIAAAAAAAAAAAAAAAAAAAAAAAAAAAAAAAAAAAAAAAAAEIU000000sAAAUIIIIIAAA44444444gAAAIAAAAAAAAAAAAAAAAAAAAAAAAAAAAAAAAAAAAAAAAAFYAcEAIEAIAABcARUAMABUAIkAIAgBQAAAIAAAAAAAAAAAAAAAAAAAAAAAAAAAAAAAAAAAMIAAAAFYAH+qXoAIAABM88880ABUBRU57scBQAAAIAAADsAAAAAMACsAAAAAAMAAAAAAAAAAAAABXMEAAAFZSbEY9nUIAAAQMMgNEABUAAR66IABQAAAIAAAIAdDmsAAACsAAAAAAMAAA8QEQY4U4kCBD0AAAAFYAAAAAAAIAABcAHMAMABUAAAAAAABQAAAIAAAOwBKAEAAACsBc7vKMMAAC2HYGMQPQoABWQoAAAFEEEEEEEGMAAAIEEEFMABEMMMMMMMMMAAAIAAADAAAAAAAACsAA4EAAMAAAAAAAAAAAADDPwoAAAEYEEEEEEGEAABQIYUJAAAYMMMMMMMNIAAAIAAAAAAAAAAAACsAYIkcsMAAgAAAAAAAAACBbMEgAAFYBA8gg4AIAABcBJEAMABcAQtEEg4AMAAAIAAAAAAAAAAAACsCKECIAMAAAAAAAAAAAAABHLIMAAFYQv2BGYwIAABT77770ABcBLSf/JEAMAAAIAAAAAAAAAAAACsAAAAAAMAAAAAAAAAAAAAAAAAAAAFZBEFLCJEIAABcAO4AMABcAAFJMMAAMAAAIAAAAAAAAAAAACc4444440AAAAAAAAAAAAAAAAAAAAFE0000000EAABY0000gABI44444444sAAAIAAAAAAAAAAAAAAAAAAAAAAAAAAAAAAAAAAAAAAAAAEAMMMMMMMMAAAAwwww0AAQAAAAAAAAMAAAIAAAAAAAAAAAAAAAAAAAAAAAAAAAAAAAAAAAAAAAAAFYAAAAAAAIAABcAQUAMABcAAAAAAAAMAAAIAAAAAAY000000gAUAkAAAAAAAAAAAAAAAAAAAAAAAFYBZPjacAIAABIAAAAMABcACMeRc4AMAAAIAAC0oMgAAAAACGAWEAAAAAAAAAAAAAAAAAAAAAAAAFYPptKdzYIAAATL7LKMABcAAfbYsAAMAAAIAABAAAAAAAAAAEAWswoAAAAAAAAAAAAAAAAAAAAAAFYAAAAAAAIAABcCHKAMABcAAAAAAAAMAAAIAAAAAAAdzgD4AGAKrQoAAAAAAAAAAAAAAAAAAAAAAFAEEEEEEGAAAAIEEEEMABPDDDDDDDCIAAAIAAAAAAAAAegAAEBascYkAAAAAAAAAAAAAAAAAAAAAUwwwwwwwwwwwwwwwwwwwwwwwwwwwwwwwwwMAAAAAAASMIegAFDYu1eAAAAAAAAAAAAAAAAAAAAABDDDDDDDDDDDDDDDDDDDDDDDDDDDDDDDDDAAAAAAAAAPPBOMAGAeF+AAAAAAAAAAAAAAAAAAAAAAAAAAAAAAAAAAAAAAAAAAAAAAAAAAAAAAAAAAAAAAAAAAAAAAAEAAiKAAAAAAAAAAAAAAAAAAAAAAAAAAAAAAAAAAAAAAAAAAAAAAAAAAAAAAAAAAAAAAAA8444444KAAgMAAAAAAAAAAAAAAAAAAAAAAAAAAAAAAAAAAAAAAAAAAAAAAAAAAAAAAAAAAAAAAAAAAAAAAAAAccIAAAAAAAAAAAAAAAAAAAAAAAAAAAAAAAAAAAAAAAAAAAAAAAAAAAAAAAAAAAAAAAAAAAAAAAABRaIkAAAAAAAAAAAAAAAAAAAAACgAAAAAAAAAAAAAAAAAAAAAAAAAAAAAAAACEAAAAAAAAAAAAABDBHEAAAAAAAAAAAAAAAAAAAAAACgAAAAAAAAAAAAAAAAAAAAAAAAAAAAAAAAAEAAAAAAAAAAAAAAAAAAAAAAAAAAAAAAAAAAAAAAAACgAAAAAAAAAAAAAAAAAAAAAAAAAAAAAAAAAEAAAAAAAAAAAAAAAAAAAAAAAAAAAAAAAAAAAAAAAAChPLLLLLLIEBDLrfKMABDvDDDDDDDAAAAAAEAAAAAAAAAAAAAAAAAAAAAAAAAAAAAAAAAAAAAAAACgMBA8gg4AAAICGMAAAAChMcBK80AMAAAAAEAAAAAAAAAAAAAAAAAAAAAAAAAAAAAAAAAAAAAAAACgMQv2BGYwAAf7777wAAChLGIrzAAMAAAAAEAAAAAAAAAAAAAAAAAAAAAAAAAAAAAAAAAAAAAAAACgNBEFLCJEAAICM4AAAACgADBPMAAMAAAAAEAAAAAAAAAAAAAAAAAAAAAAAAAAAAAAAAAAAAAAAACgIEEEEEEEIAQEEEEUAAC000000008AAAAAEAAAAAAAAAAAAAAAAAAAAAAAAAAAAAAAAAAAAAAAACgAAAAAAAAAAAAAAAAAAAAAAAAAAAAAAAAAEAAAAAAAAAAAAAAAAAAAAAAAAAAAAAAAAAAAAAAAACgAAAAAAAAAAAAAAAAAAAAAAAAAAAAAAAAAEAAAAAAAAAAAAAAAAAAAAAAAAAAAAAAAAAAAAAAAAAIIIIIIIIIIIIIIIIIIIIIIIIIIIIIIIIIKEAAAAAAAAAAAAAAAAAAAAAAAAAAAAAAAAAAAAAAAAAAAAAAAAAAAAAAAAAAAAAAAAAAAAAAAAAAAAAAAAAAAAAAAAAAAAAAAAAAAAAAAAAAAAAAAAAAAAAAAAAAAAAAAAAAAAAAAAAAAAAAAAAAAAAAAAAD/xAAsEQABAgMHBAIDAQEBAAAAAAABABEhMWEQIEFRcaHwgZGxwTDRUOHxQGBw/9oACAEDAQE/EP8Az8yIYqiqKoqiqKoqiqKoqiqKoqiqKoqiqKoqiqKoqiqKoqiqKoqiqKoqiqKooBg/FT9bKyrKsqyrKsqyBBlcJZVlWVZVkAMrlZVlWVZVlWVZVkwyNzcfip+q2x+DfernkFhgH12DowOzbzzrZL62z9D4+Hg0ubj8VP1W2NmLOHmOyOBX6cZowLCv66V2TA6Rx2cP2i2acAFObvtZvvVzyCyYZGM7JfW2fofFhAFzkfBbdkR4bzHWI7FYh8/YHgk9FMzIPhDSIA0RlCTFt/MOSc7jE823s4NLm4/FT9VtioA2nkBEMWnPY/Qdw1SGej+SPCMz157uxyRM2PlsHYT6VDORr5A9v0LQTxq5z7W+9XCNAqLsqLsqLsqLshsgLZ+h8Wg4Og538kDuB4QLtp/W5OcOxLEV525OFvBpc3H4qfqtsbWu771c8gsJBABGu7020ijFnOT4LJfW2fofHw8Glzcfip+qes3wAAAAYkAu9yemugAAintcB8MAAAAhgbm4/FT9U5E4KmVTKplUyqZVMqmUAe4lp0xGIxGICSWsCStVaq1VqrVWqtVaqCAubj8VP1W2NjIF7ACSwQIMrN96ueQWHJOPhvMVIwz2eXY7CyX1tn6HxZOATgt3szpZSzg0ubj8IS00zO7P1W2NjxZm2LoxFY7/AKJ5IxL6/wB11gjcScwezeWQY1B64etm+9XDsFWCrBVgqwQMRtn6HxYC2+4I9oiXbzDc7LMc33Hpx1RI6B8A+rgk6oxzgPScegO3YHL1fnizg0ubi6CJrxkA1ovn5xBBIpo489oEGVyfqtsU7CzbyCiADCvHfQX6mLtVu71zPETXuwetiMm6+r5zHJwen7Hp2ycapi4Zb71cMiBVz3KIg5J7nMDyWUB3Pcque5RAAm2fofFpMBQAesY6kdg2+SDlnw56sDGXouSDzFvXIW8GlzcXDBMnQIH5h9oASxQgaOhL44y7lkMbovm4xcDNCJZPB8EYmKOZdxPDIouBmnwtYQxRhDy/n6Qg7XJ+q2x+DfernkFjmFPt00G5h9CyX1tn6Hx8PBpc3FydrkSQgYIBrosGE/gEhu4U3UewLvFt6IQKm2M1i/RT2f0RqzI3AArcOqY1Qez4de4UAnEgjuYt45kAqRGJLuTN4pwmfL9ykS32/ZiY4lkCwGBLsGzv0KYYx5G8MnM0C6H0iXh7tjBIpD8l+rsn6ohwxVMqZUyplTKmVMoKDXALAqZUyplTIs4WkPBUyplTKmVMqZUypkCHAubj5haXDqPuB5KcOHMvVp+cqADLDb9XZP1REEGRVcq5VyrlXKuVcisk9yDqCqIgDvwB/CIg74t1j9KoiJCNpEpCqlVKqVUqpVSqlVImBPC5uPmCMA/TyfRsKDHBxuH3AKIYv065dzuiWJfBOxZH5wBIFE4yBlqds/VbY2NFkbcsjA5rtwgjAtrt50mhDBwI3b0eiIQHx+n92b71c8gsMQyMDHX3ZL63YGDm0NYNuQoi4lDxHfwnAiZce3lAHV+nsox6eDeY5IFB8f2fG9k/S5uPmCMWckH26JgRm2wA9cggBCcWdwPkJyAGbns4PkcICAAAMJdH+3JkO7kgPSPzkOgAuqKAYNbP1W2KaLI25ZOROvv6KODJ/Lc/cWiArsBHcJ2D8xRRotybew2qdiAcVvvVx0A4XAy4GXAy4GTdZN6NHGKcD0B7+/tQBhyJgO4/tAgFuvThTWT9Lm4+YXz/AJZ+q2xUw3M0S5fXd/s91zd1/PH0OwXPP2e6ryb+Ypgt96ueQWFiA3Xs/Trmo8c4K2S+t6AkFwmMyId3x/f2e6YEvbP0ubj5hfP+WfqjFDELQWgtBaC0FoLQRgLqRoLQWgtBAVoUgYrRWitFaK0VorRWjdubj8VP1QAc/BJJJA7lcG4VIqkVSKpFN4LQC5VRVFUVRVFUVRVEcYrm4/FT9Vtj8G+9XPILDiE4+Ib7KCCb7P8AsHobJfX5JP0ubj4GTJkyZNaCgAsDODcfxH/RP1W2Njws28uiwDicd+yZk9Is8K/p8xSlVoAhuhD92LZJgAy5u9m+9XRGl3Wl3Wl3Wl3QldIICJCCO7enUzmhsG5qou4mgAO2H6Hw4YoyCTR6fvFkAQ3M/cbJ+lzcXDRc4ERCXOeUDMZC+bB8TkP4QBlv98KDgAA2WjeIf6J+q2xTitDyH22TRIEZ8YtANr2LF2wfy9KDjqfQb9iMWY/W3ynpB4ciB4c1YZsi7sW+9XH2SrERByXC3ktqqxViEwT3o1jyQM7Fh3aPM1NzPuPt2c9m8P3bP0ubi+L5sHAuYp+ZxGRrVjjmWohDnlJ4iQKKgMf88/VbY/BvvVzyCxxan2/lMOFOdS87JfX5JP0ubi+EQCOLDfhTmEy3gt2LIs/Jz2gcN2UIPm7oS7UYcBAEA7+W7WGwNUEc8C+yZ0+RFB6A71TJspyhyB3TU5+ml0b/ADz9UAGKpKkqSpKkqSpIewXRFJUlSVJMotGYlQVBUFQVBUFQVBEXuNxfFrQdH6hh7OT2RO9psCQOww6F9nQuGSKHIHCjYyOSwavlFxFi9UMTmsUYM84QGZo7tOOCJDA3+YwDfNVFUVRVFUVRVFUVRVFUVRVFUVRVFUVRVFUVRVFUVRVFUVRVFUVRVFUVRbi+FAAk4AnsEA5s5VgT4GhwRiBkTs8ATiIxD7Bz2CJxyw29mw2BIHirhFEQgk4pzLgRrBjUNIBiRli7unrF4UMgRsGbKaKUg0tg358IFkwYjmXiGi5sB4ACIcEHFEYuS+h2sNkiBLtHLBFoCUJGg9cdA7s8HwMJP2hpomQ0uCMmd47/APAC+bAmiHWFM8wgiCLVm/nmKm0GZnGEO8v3/wACCydOnTp09o6Fzg4fTdkdkHT9ooMv6+v+KMGAOBw/ngmnoODz7w3RGJzpGsWlCMf+KIcYgOsMU/G3Q7BHmMU2ZncDAEzDGGMAAS9EQSYhj/nfBVBUFQVBUFQVBUFQVBUFQVBUFQVBUFQVBUFQVBUFQVBUFQVBUFQVBUFQUJN/gdmx4FigfNhm+WcdYqAkCg5rmiESfzNO/wCMp34unKoqiqKoqiqKoiJEbDIgVRVE9neH9+iqiMma5UVRVFUVRVFUVREM16d+Lp1jRZG3LIwOa7cIIwLa7edJoQwcCN29HoiEB8fp/dk64PBkQ4yft76xliURILv3DbEEp3EOTeiiAZnik06I3DMH2D+UWB9NwPZ7fBTvxdOTRZG3LJyJ19/RRwZP5bn7i0QFdgI7hOwfmKKNFuTb2G1TsQDip1hARKmqapqmiIBdkmRElSOzPYTCAH8g/fDqiXDkoes5N8NO/F05TDczRLl9d3+z3XN3X88fQ7Bc8/Z7qvJv5imCnXBjBufxD9oyh8Kep/D6HZNzZEPzmZ+Gnfi4HDfAAAGFjYRgXQAjh+SqqiAvenf8ZTv+Mp34pqzLStK0rStK0rStK0rStK0rStK0rStK0rStK0rStK0rStK0rStK0rStK0onL/8Ajf8A/8QALBEAAQIDBgYCAwEBAAAAAAAAAQARITFhIFFxkaHwEEGBscHRMFBA4fFgcP/aAAgBAgEBPxD/AJ+EHKoqiqKoqiqKoqiqKoqiqKoqiqKoqiqKoqiqKoqiqKoqiqKoqiqKoqiqKBmfWThOE4ThOE4Ti04ThOE4suE4ThOE4ThOE4sz/q4zfBKbUTHLUt4TF3MA++9nMvhmsT/q4zcCHNyj2hqgxOnttz5CSYQ5nDw+JnBOIAcwc4tnBzyThITfyfDHqeEptTRe1mXAXAFRk4fR0YM+ZfQQwBBzQlHcH7wQAcASBGTxYsA4qh1nD4Q9kIYR5Advb8JrE/6uMy5WPZ04Omo9jhIxTCQL21A9zogDTQZkEfDEpg5BlLCIdiU82+bvDqObhMGoKlNg2OsCwLAsCdZxMuJkgTY9iiQGcnEbwwfU+E4EdyJupAF0UGODe/XGaxP+rjNwIe1KbUDiTzOzvjGYQYAd78WYy+GaxP8Aq4xDLEmXpl6ZemXpl6ZfZgMZYky9MvTL04f5H8ML2J/1cYfBVVAksEx1gWBYFgThm+QADrE/6uM3AkCCiJ8CQA5RBBY8JTaubHcT+ghEPIhsDfmG6mzGXAkAOVfSHB5V4TjwmsT/AKQSAVM5G1Gbg0Fx9QyDPGUNPJtUJVho3rGKaAUIzePR1EV9n23ThKbDBrIAYn4mXAHbEHIg+EDM+PVgD2CEG6O8UIAag6k2RAGCDLoR1lDMIBBQDRuE1ifZMSG8D5a0RDz/AKHl+Mlsy+cnMyw5u+igANzsxmTRrn1DJnOnh4NTPnBgIBo+QHV9yiwc4DIeSQEQJ9nKF0AeuKI6tvardEIMUN78mU2Ryg4w3A9gJ/acuyc2Iy4mAcwRoQiZgIOC1zADWOlUxBNzbQAOjkmnNBtt9NnjNYn2AXT86TarmndFLxtt6osIXZgGHnoASiADCzJbMrDgh7lKJUXI5oQAjmhA43tk+Ao1E4Ym5R4kL5kUpjr+0KUQwMRZjN8EptQDFxuDIOC4O4+7MZfDNYn2BDiQAYoxLmacmdmTg4ZixAnwYuh2tSHt1RiUPqipI6NwXFD1cRlYcaAHN47pxDmCMyDPo0pJgLgGQQbSJCN5rjIdjBAYYMcmGRO5BcpOUHZwMA80YhQcBmMcSGwKcJw/c7r2CdIOZGMA0fHEGTPv2nwRJzyN9HQA2bpfS1UFQVBUFQVBUEwErBAKoKgqCoIAAysMTExMTExMTEwsT/mk4gINyJ7B8EHLt38TL5279d4639dsmr7pfStmMj8AAARM7I626wUeg/b2nNjkTp06dOnTp0cbE/5pE8lH1A7kJ/fRATCZbUHwSMHQMG69L9EC7NzQLhwjL5zF84QAiCDZHkog4PS8oggsbEZuBJrH0DpnOBqgQOKat7RnBzBOToJMkPZHjhKbU0XQcF+f6azTOATdJ44MSdAU7RTjoT61RckhN26uB4IwPyQYYcx3PSIiA5fod+E9if8ANIm2bEnVC4G59S8kBAAGTti5MIJyYaA9hfEXEohyLm5PUg9wFAzfP2jL5yE4QZiVsAIkk5sRmTwXn0Dpo5at7wTmATPkA+U4YeRA1c+CpA/0uBDNPB9yft6TFibiylNggA6pKkqSpIwsBxmcGdANtEhAAWuJGR7ek4M727I5B+kASOKexP8AmktmX40ZlzB3cmYACmjehko8tsAPATQA3z9nMqO+nkBEOG3Ju0MFGNd+VKbVAS9+jv26NIoEot780s0ziAGK3vMoQZuX69DJAMGHGexP+YoJwnCcJwnCcImH40Ygj4Kqo01gzFmqM4eJDhk5OTk5OTk5OTBsT/rKqqqqqqqqqqqgBlYJj2QABMPkAAAEGVif9XGb4JTaiYx3EvoyDPubWfgjrZpnwz2J9sAmX0gAEZuBEa59QyDExlDSLQf0UDCNPDtcZxqugCDiXboHjejBXnyfDcJTYMwLP+4DxmcBdMAvk7asmAYkHbqSfOiIckGT6P4IBIjE/wAo1ASm6u3cOiQSW+XiHCexPsBQLCcNxjFRpN9d8nTHPPxwkd0T8lGZEPdR7Q1TlMs7DMapvWSY4FD5PL7mCW3w7OOYDq6mMYbG6OuQv/r0zxQDLz73zUpsERAqiBCwO2ftHBVFUREXGZxEj2mP2pi15yeG6xUAAN+1IOFQmF3P+/rjPYn/AIMJhFAjJEN+RGb4JTagDq+m7IEggizTPhnsT/glwY5jp5l1QUA9ucw6AgQZsM3v2/x08wOTOrMD1cnBLe7Zjw9gDuGTTIctFzE/k1BUFQVBUFQVBAJLBABiqCoKgqCKOOJDpiYmJiYmJiYgGsT/AIuYbpGDQPijPLtZHAGTSYluXpXn3NO+CSXATJAzTfdIsMyeiBcCvAz7gkAAb21MMyjaDePZ7DxYAWLp1CHCBROf/ASADFNEHc37xxjNMG7iSNST1QDEEcoZSyQHJufs52AO4ZMpyTyY/wCJjsXTJTH+BJk1NTU1NTUS5fg7KQKJN/inZOJcql/ipF0XBinVL8dsEyqlVKqVUqpVSqlVKqVUqpVSqlVKqVUqpVSqlVKqVUqpVSqlVKqVUqpVSqlVKqRij+BIunH8mk4fRaD6qTh9FoPqpOCFwe9UCoFQKgVAqBUCGmNwEyQqBTINv6KISYcb8qgT1AsUGSpMlSZKkyVJkqTJUmSpMkQAFrQfVScFqOBJrH0DpnOBqgQOKat7RnBzBOToJMkPZHjhpPPDtcDE++fspy7mP84d4WTCOQRYGhuxfUHJEs78n0/eiwiOXsPCN6gG4Wzdu01EB17+GbhprWg+qk4LUJ4Lz6B00ctW94JzAJnyAfKcMPIgaufBUgf6XAhmng+5P29JixNxZaTzwaBNZbbczlkh4HgBYTNgdR8F0xci7WTKBL0QgI3uPfjprWg+qk4LULmDu5MwAFNG9DJR5bYAeAmgBvn7OZUd9PICIcNuTdoYKMa78rSeeHa4OcvL9e46STIPfpuHDvC2BAufpu0Ex3n3igGfe5DjprWg+qk4JoNyoFUCqBVAqgVQKoFGAeTgB4qBVAqgVQKZwWKZ0VM6KmdFTOipnRUzoqZ0VM6IgAGNrQfVScPotB9VJw+i0H1U4MtzLcy3MtzLcy3MtzLcy3MtzLcy3MtzLcy3MtzLcy3MtzLcy3MtzLcy3MtzLcy3MtzLcy3MtzLcy3MmW5/xv//EAC4QAQACAgECBQIHAQEBAQEAAAERIQAxQVFhccHR8PEwgRAgQFBgkaFwsYCQ4f/aAAgBAQABPxD/APKqsXTNBwYr3uf4Jr169evXr169evXr169evXr169evXr169evXr169evXr169evXr169evXr169evXr169evXr169evXrMq11BKNZP/f8A9CDJbEtiAbMVbAmgtD7/AF5kyZMmTJkyZMmTJkwtnF0tAEl+jcPtJCSCJKb7P0pkyZMmTJkyZSIoJAwqYYR+/wCYNhwrrStB+imTJkyZMmTJkyZMmTJkyZMeqD+YmTEw/wBP8dlsF0IoSCwTPbnlntzyz255Z7c8s9ueWe3PLPbnlntzyz255Z7c8s9ueWe3PLPbnlntzywbthAO4H0eBFKh0Jz255Z7c8s9ueWe3PLPbnlntzyz255Z7c8s9ueWaSRCPCPzEWRJR5w9qeWe1PLPanlntTyz2p5Z7U8s9qeWe1PLPanlntTyz2p5Z7U8s9qeWe1PLPanlntTyz2p5ZLMTBE9r+cy2PAJeh8yQ0IrS8FN7wUAnSjZhBA6OM8cyQsAX2Cn+euowaWx429uY6QBkTuPuwk08OYQ0VYIEd8Cw1rYcro5u4Bc6UOdrupd7uwXl4r23oIT6jxQZ0+1KjQCmpGuQyAVMw8LJIdUtIxMnUl1Sk9xaqMFEFiSdRsRpGxE/QAl8blm7OTcvLIG8t3s+HAopl0G3ORYpqyAbiDEVF/WdRtTaAK4AkU1nimiHI/QY7Zq8RmUvBITAJvC43AsoqjpqTpZYQJ5cTahACChWN0N2VBlOpJs0Awaylga0pYSQ0TkLiwCySpLIGveMsm2gvZkqFtNYIg8SBACuAcjGGBwKOYBQBhF1/JQ0tjwys1gSoCfJWTeUaCYekRIJC71kgDhWTCiqwRvq2ZXLdCBY8urtiK8vs2OmbmuA6xcOjh4BieyjGlPvR1RHoUJ04V7X0gKWiJBziNOSmzVCpE19QFwOpXYZz2j557R889o+ee0fPPaPnntHzz2j557R889o+eaCxCPGPpRrprpmUs0or+ssQ3DwODt1hzGDdjHPObSLJCcoMg0GRFdn/DIpd7YmKUh1PQyLMvmTJynAnTv49C+sBStQ+zNgJsgUAFASqRtOs8/c0EM7D/2cgHx0HlJKZTtDWWSYSl4TKzYBxv+RhpbHiFFEUTGDMMfdrK+bNGWYFLq5znlxK6JvSamce4lzok5tAugbMgqpZRqSSexm9zQyDeiCJIBxIASFcVuFgxuEzw3NAETKeLvC+VhGROB4JfFyi/pVOg5RUInaYgASAUlghETYmdMXA9NUbGuuCRYQQsRNnf6QKQXhTLrCwBTb6R06dOnTp06dYoHFYRSpap9SNsBWamCYyGyhF31GPus2SRI4BJOIMg01KcBZhamEUNhXkNpSj7GRrFu1JJYNXWGFYbYJESk5n+ShpbHgL9Oo94VEk+Bzb5MSU/zGprIaUt6g0ToftGbloCpVJWwdvGcG6akpgCZPiZ+1IYMT4qyc2NTQ6HXaJWyM1rieUrIppDswxtD6IFonEivtneYNAgCHejrlWdG3LS2DKd7ZFdSS9C7QQhBgcwgyOpJEoWVKlRH7ACXuoyFBVAC1YaMXseWjUNdu/8AasxdoJcdW61OJjmLRrrwdkIjUse0XtNi4K1rrh7uZokS8UWtcVNS1QFRKgiKdLxo/kwaWx4cfEcZu8GRnWCRDpK0Fi0fpgS8LnObkw4lQzq3ufIlhyMhgpQFVhGRYyolYaEF6IrZVEvApUhiJ46f8TdRg0tjwCXiDYws0ASAI8IJkY+eewbErA9gmcnzPb7uKx3MMeQQD6mJjBw1/OXUYNLYUYrwCsKghXD9fIkSJEiRIkSJEiRIkNcoFjYiAI74+i7S2OEZaw/pfSyJEiRIkSJMjF8WAgBTYn2/NzZSiIrBZoX9E+fPnz58+fPnz58+fPnz6saM0AXEFfB/9Fy2JbEti1jKs5BU1JHj67erVq1atWrVq1atWrGMGaClEZYhPot4KOwoB23+DPb+rPb+rPb+rPb+rPb+rPb+rPb+rPb+rPb+rDbyxrQCWpVfv+aNhQmtBAKYXY/omLFixYsWLFixYsWLFixYhEcXY9dI3nX+cy2PAJf1ipCFIkb1FtdCeJEzlBBU2V5wpZMAsySbpEFlH89dRg0tjx1ZoSSEG2uckvzYCRhEQUciD+W3AnpYkErQ0ZHeq6HTCDwQ/Qgl5vIESxsaVBYKgx367U0rCHQqxOWlnUZEKRQgTbM/WdRtoUKogkFoUYOoluaC/Q8CNMOHuQk8Pxk0sK2IkKCTJhphwNHFAqktGB0Hf8dsDjlqBIJs94/kwaWx45YQnxWTdUz0Z2cgoU1B09Bbj7Z1/vSBkhU0rL9rpJJ5xQd1XlfYxj3GbxeLG5/qDxGzwTjD1K5rguh/SvJwfcj/AKCS9cKHpnb0kaAdBKxUfsAJe6jBehNz/wBE9f4DrIMz847Yv91VgEGK3KZG3p5I4Veb5m+EJchHbJApbArI0L1/WeD3HsKClWykuJXPaaFFB44Kro86OacLsjwx0yM8CQGBIRYfdkmYV2rU2AC3T+JhpTjQm6QBPLSOTP6ApjoukMvGEJQbFdC7e36Cx4gT5rbmJJi2tW4CmiKDSsES6Oc1m/swx2Qa3OHFETBgYBRoUWgrN8OUNuAKeavO/A+hiIL3xJHE/NiCFuuuf6qfhv8AojAllAEA4I+oCiApwcECQVJ6uv0i5cuXLly5cvrKKyAFrAG+PpRmmCGYlIoogj2zrcYT2Tt4WjjAWsD/ADUhD7ORZEbSyDYQRaIw0LyGPUWXeYwJsj5REABtIZ3jxkGLoiIQaYRiaNEs4pYmWNrchy72w5JHCEjr/gCBFAzBkYuQ6uGMJ7/pA0okfRFCAoMKT3zjVcCAABl0+n169evXr169esdJJ2UsjVgkZzkidx4iY1Xb8q7IhcMKKSfXnz58+fPnz58+fPnz91zBBIRmGNfl/pvg+y2sjcHT9L169evXr169evXr169evXr16x8Dl3AKgaiDWbQWiylsmKimwVP4AwahIvKPFodKngMTIMrZwU4KSa6TkJLfBavj4eeY+tY8aEr0pUqk7NisSadcNgAvNt5SSi4dO8Dt/WdUzYbQPt6CgNzDp9gJBTY69fbAehRnJrD0itIVlEuj1JnLkCls50xV+QMVNknM5K2RPhEgkVELklnVFIAJjrt2xoIrYpZnKALrjGs4LlaKdBXBWBEuIQFGLZJ4mmx+kCi/ej1oOkKWdPpZMmTJkyZMmSolA2MItJYnb9SN7n1YwOJXO6o9DNumdzbNE0LP3jIOctV+lYvDSm6vDY2SZGXUx58N24cVaElAffCaSoERJPiplcobP0waWbOFmoQQdoEUJTClzv6YMzKBEDFRCpInmcvAF6KD4g/cjJOgpshmPTBiEgXTQWtYnymoik6YToMTXSVTbZxlZYIo685uSDIQv1bHifQJwoAcjzSOMVrlFkBCTKh8WE8vL/7BFTp75vPW5CamYkuk4lk0oYMoSIkyAUqiSKIJMpC8seXSXcAmiFsnRMowlRqABb1T3wOxw/qGDNdZVWcBoe+0NAREAqcpWRptJUHZqR043o4jqUFalpN71DhIEjlINpK936oJehc5pgzjwy0/bAtlhAUvbD2DswgRyuRsxaAQUuE5qJoGxTUaCl/QOo04kIo3CcZ4tlePV7O+cNQ+yC2GPcnlwiMC5zrPUYmoluCiNbOpUBp9SSzUVFPMWSzeqZRMu8lnNFkDkiS/+fqw0sGc1VGO2FW9AuCvqA10Jw0EyusIHSF60pC+DICSvHmNnIiJsRH90AmSdBTp6jsoWIfyT+LZtDZoqJwISboJ1BWT/wBYABDAy25mMghbQvGIg4OS+reah7SDKXHbx+zWPAJeZ6FVd/vwpqZh1iBacUi4SnSODirQIX9YSTMwQxgyErst5aiFnUk4EAaP2l1GDSlAbSAWw1OwZMJwWYJJ/vPiHFkoLj4Ybp3MJNPD6sMWKpOIcMuGCB+UVyQD0jIF5bwiCj6hX+zmgtgGoAyyHR2rCuTx84gzbibskYZP97D7B0qLcZAuPvMJntfa/YAJknQ6hp1RYQsaUyTwVTRKQUKcoYnE9ndGoJQEqbwi9IVjSkL4MnZXKCcdkzUbmomsQ2lT5vpm9qvLZNOljEtbLHOfYsFshSDAhIYzcgEnQLZQaXGMXIGhyBN1qKnIXEOXWIeyI5y94nURJFUskQZkicKgK72yQmdYqjWC4MowwEcl6uKXAIVNwREkoVJ1x4PAUgWoVDE2ipwbFYP7sgH3wiSlA0gSkRL/ABUx8o5uUM9PxjJdEYWDFJBzMM5ZGgRLKCYamMhj9HsiCltzltkHKWQkVIG2e38TseAS91GDStskcJAQxPMON6ShDVMIf5iG7vmkO16/l510POyUGuEzSBxq0gVgAlVwgfITLQ0J4qyOujx5lo5VVW1VfrATPZGUh8gwMAqjUFqR0Mcjv74UjAagVUAgLfRy2MqHCWJwi8M1TGECZMiObyS2vdYAlJSUguGQiu9mTuUyQXaQvJUIFy7Dskw8hhBkThHp9InQ9w6Y/rEPhCuZz/bB6NcT70sGn+/h9g6VFuM8Rqp4sn2TD7a1np9YPsMXM2qPHOKe9r6MPuLg/wB09oz2YSTkdbyZJ96vwlY7zF4QZEyYu1FdU6VggGwpKwQlzN4P2azT7lLRxPGf0WH7Hv7W8/qwP/mR4t9825IA0FLmsdo5yYMqIUNV0RP4qWL0dMQwZMcfjWrDoOAmpczaluYeuDA/ZA8Rh9pw4vcoTrlBHa4PWkFQwSEkSJ1c/TsJ6SkFUiRHSdPr33333333333333pFv2wuxGAY7fRGSN3AoYMN3d9Issssssssu/SA4SlYAI7fmaYISghESwZBk6fos+fPnz58+fPnz58+fPnzzJdjtZLYBaDq/QSw7S9lyjRIWkFiQYXL6aZskLJICTZ+lAmfiA+oVWIvjlAEC3knJODMs8xK1hB3dXTj0WcjLvsSIrWdbM+icQiUHGDNclFFQGzc9XQ0+a5MCPQCDWOUqRQbucuRpZkrYgvqgJ6iJHb6ROh1DTqigja2jkmhqGiEkpQ4SxGQy3VIGRh6sBtCEy0NCeKs75xglP3Tc7m5m8e8hGDf27pVZbJp0sJhjRQZz/FglkKUZMrLOdtfObbICqHec028QBGImFKPaMh3l6dZUvKGec21qFHU5CSShiYyr3ibkE1MukKhIME2YQixnkPUxFoKJF3JlQSDcHTH/wDAVIlxqUJpLGWZgyuBLc1m3THLStSgSKgAlV/MpsyUOhwSEOjUnGSdENBK098cDituiSC9zWcYoqXO6nw/xWxLSp26lVuqQyFrtTRziiwbCAOwAgA/egJknQUlRSSOapD/AJH4yloHWnpEpkm2ybjFnPdoEFjw6T2wx5QY/mJQQ2vZiXbI2JtQhVXH07DLW2oAFC0J5j6+zZs2bNmzZs2bNmzY46z/ANaCMNPomwNjhOCtP6X0kmDAkwYMGBIRfEgICyWr9/zPhq1RgBTZv9Fo0aNGjRo0aNGjRo0aNGizfi1ItA2I7/oJXI1LS+TRHR1c9/1c9/1c9/1c9/1c9/1c9/1c9/1c9/1c9/1c9/1c9/1c9/1cGVefaykwK8Q+mZfYS1VOYogl6Dk+LA/qCxCmFWmcjkFhSFzoXZfP7EToKQmKN0/FjZdM4WDFJBzMc5ZGgRLKCYamMcDituiSC9zWcYoqXO6nw/s9jwCX1q5Nf+znTuVZkICf7RpN9G8Zh/ZJgQ69EbZ/gjolDlMk62pjklyAx0nritqtCxPrplImoycj0dHMLqzAnr+xE6Cn3kKiSCZztYfaw4BkJIilIZZXllrvODA/ZA8Rh9pwx/YD5mJQR29jE2GQsTahCquPr2PHVmhJIQba5yS/NgJGERBRyIP5bcCeliQStDRkd6rodMIPBD9CCXx4bt9BecoTdXHekcNT3JKCjjLVSRMC3JAjbEfWdEinroU0Ipr3IL7YfUjRkhU0NCGu5+J4VlYASq8HODgcwH0CAdjFiJI57BQOt08REfhJoRNwBPGdwKn5QgsLOP2qHKZeXV/CBJqjYDwySqkqEJIVWJZ1zh8niFQKkDTlxjcXaOE68AYciBhmMoAxHUNJhmlyE6SZ0EmkB2xDEu8W4sT0Vrrmuwg0N7i2ApTmSHIaY6N4AhzuoGWghSkbGxwMCkwwiGxEZ7/nJ7kawaspmt/+v0vLly5cuXLly5cuXLly5cuXLlwkYYG7IK30/JZccMVYQSGVDUffHdhiIOoQhBvidZ0xIclBRda0xlOBHbKLguqZEpiC6uYJDGlkQ6XCKJwCeX1bHjlhCfFZN1TPRnZyChTUHT0FuPtnX+9IGSFTSsv2ukknnFB3VeV9jGPcZvF4sbn+oPEbPBOMPUrmuC6H9K8nB9yP+gkvXCh6Z29JGgHQSsVH7CCXuiVNQBlkrX8swTW17qCMmHEazorFlTE0NkjiIM0bJXch2J//AIzwfU34qi3M81njhk4tTYIIATBmt7MqtgVYwJ30lb4J9AhESOuPHND85ZXCnDtjluvMomnbAu3P7TDlMnS8Fph8PhJk/wBJq8RZIgOQuM6CU2/aM9lP/sMA+hMSZhMGjeH+zSpaBO39WmSmIBUWgUEKDW8oztgaEA23FFxhKR5N8rdw567w0HDSUGjEs9AjKr7e7oG8QP7Av1jgE6k1FC4r9aTJIDZk2KErSb/FOnUTN+dmswy3VeZyG7lkgRJCk8DHHFQJjCbSAxEzpMpmS0xtmwOCDVzhwm8ILxCDuJBePwRKMqqhgStH+7+rY8QJ81tzEkxbWrcBTRFBpWCJdHOazf2YY7INbnDiiJgwMAo0KLQVm+HKG3AFPNXnfgfQxEF74kjifmxBC3XXP9VPw3/RGBLKAIBwR9QEujIuWgeKgs7fSDhw4cOHDhw80hcOgKwYAiYr6RLTJXt4ipipiJ5z+lChsbeSE85IBe8vcb+xyfARCKCWJZYTOaFB0caE0EoWsDZAWWppANgJxsXiSsqZKV3jtj3ArXUAo7Dec+lm0Syy7mIMFOTKqQMqyHLhhWGziAAoO37dDlMkBSREpEiySbswYkllAMLalglVZX90J2PGhK9KVKpOzYrEmnXDYALzbeUkouHTvA7f1nVM2G0D7egoDcw6fYCQU2OvX2wHoUZyaw9IrSFZRLo9SZy5ApbOdMVfkDFTZJzOStkT4RIJFRC5JZ1RSACY67dsaCK2KWZygC64xrOC5WinQVwVgRLiEBRi2SeJpsfpAg6KCT0JpCln6Thw4cOHDhw4Q07yAsRCRiefqksRMeIfVSJVzXGdyktEgnkaZ1DLYgy/YIjvhICjGZDgYQuEyWICEJ3o2s+xSgZBFk0lJ3/ksOUyTseJ9AnCgByPNI4xWuUWQEJMqHxYTy8v/sEVOnvm89bkJqZiS6TiWTShgyhIiTIBSqJIogkykLyx5dJdwCaIWydEyjCVGoAFvVPfA7HD+oYM11lVZwGh77Q0BEQCpylZGm0lQdmpHTjejiOpQVqWk3vUOEgSOUg2kr3fqgl6FzmmDOPDLT9sC2WEBS9sPYOzCBHK5GzFoBBS4TmomgbFNRoKX9A6JCs5KQsgLPDzkRYUqyJi09mS9IhQVBObyiG1/OMRhO7XokskgFatFyhBQBWs1/mH3Ei0JyAgGfRAA7QB/PocpknY8Al5noVV3+/CmpmHWIFpxSLhKdI4OKtAhf1hJMzBDGDISuy3lqIWdSTgQBo/6o6JQ5TJOx4BL3RKHK7uK1Jph6BMRf1+/fv379+/fv379+/eF+75XAeyt5/bLC7Z0KBoI77fXeeeeeeeeeeeeee1YuFG4BIAx2+ikAEhgIhlGzv9J555555557ctkFSoIAT827QIblQySn6LLLLLLLLLLLLLLLLLLxN1vNQV33/7pLYlsawOXeWxggVjQ5GNxjcY3GNxjcY3GNxjcY3GNxjcY3GNxjaR4Qg1TJDN/Rvr2NRJWg419Lvvvvvvvvt6wioVpIkjrn8wRSDpGFDwzXP6K5cuXLly5cuXLly5cuXLlKj21mEJFSVyfzmWx4BL5pwA3YKE7BVlbijk4jMyA2+emCp307sFKRCyo/4q6JQ5bHgEvv8AS4pDShchTGjJxpjGdpAXBdYESvZBAQCNTVf89OiUOWx4gZOgS9gidnVxmxF/E1iwiFnKD9c8yiGa1RzwIqOcWy7CAV66reO2reNo9M2tcI3kvG5ZyEoHKbMo6ohvaITYUWqwOMmeQtix0WRMOfMqADEjChIj+wAl7olPF2M54/rtiafumdH6HsUriIVETgpiu3ZvHYyuoqnVIBWxWKBnmeMkBhDRjKeW4yzgJfH7Q2YySVoYrKOYX0J+KFTxdnEzacIy7ra6mxsJq2HMNcs0U6bCjBCgSTcXH6iHKxbMsHkHA6FqOfrCxYsWLFixYsWLFi+iH711LoiLp/LyILTTNtFPP4xTSMk6DRdJqcSaEeIkSn92seBuu/kQM3FncUZr2TwsPoUQPZ45MOtBFHdCkqdDIGPjZdAFuV/pWX5ebewx048U51yPLjQBK4C+VyOuADCJBQqoqmcjpV6liQJZlHRwd6BCDlSm1Vm/qAlzZR65HCOpOOn0tmzZs2bNmzZK1LHiAAIeOv0iQT5lYQBF6Ie6cJbHROKBgEBSLnLgPZsKQTEsThxibOxayERNkYUHFKykaFNDumsmJsf5Mxg1Ado3mlB2AX0DRpghtViiUINBEx1GWX1yY7K62bOoe9GI/EZ0BSi66fHJgrJCi25Sr/5AfoocqXbBn26ALV6F4WcTzpMIH3Px50Ntpm0QQdf0F9XNmwko/oc+femH4sRRPj2RKvZf45s3NNjCxETg2u6MNhg8/wBkEbeeJyL7v03nLqdHcZucoya2zaUyxJUqTSgJ/wA/dLHhnVDnNGBlLj7GUK/mLZ7qEiBudgVmLKd28b4d8jzzSOQhzNBsg1KpLWZ2BdW6WeMG5Egpailo1guT3I7iokG2GJicPLSOaQ1BW1Ok5LsVs7kEjac9XCEOewADJMyKhxBgspo5shsyEjEdmACjT6ASVlVlc9HYkIKQIidvpAlhg5KHkUAOs9EfSTJkyZMmTJk2/X6GGekWT0cfUJTdzWetSqkWc5utAmEqk254zaE5mcE6Dg2xA8Ab8ouF0d4SIVu02ClBRF7zo74fxmBojgg0ITqRI/pIcpiCUCQQKjYLUmbPMmAlOtQXred+zODbZU0XgnFP3Z0Qro0IsYyD9JkEvQ2GpMjexIsdkPXiLEX0yrl6hJcbVV3/AEZktyILTTNtFPP7xY8cgZ1DstwklesnZYZo0i0CAHJjg/V0aBaO1by1wVAZAkaTS+ciq3fnQikECDH+QsK5qt2FNEswYMXLI0AYajEJ4ZAcHZn2hKOgTvijNPtsYLfQq8d5Utchq6Vu2PX8QobxWKiEhOTJjlE9lKSttMS20nrrAaoClAgW4Gvqgl++VeUVgLQowW63mbWh8GXb9E6JKVxqCcgKWh4ytKTwQkPseHOQFbkj0UVBGHPH7EmggiDc2ItkLzhNrgYSOBpOQJF8YpR04zVPp4AK7sT9/wBLDlSf0t8zufJRcUZaOY3+OPGP1+LWItuhtu6M4J2ewl5MLadTnWIUikE6PBITX8PseAS/nahMxywoqJl4lxzReqeewjODrw5ujRm+dBHaUOMpdk7vYQBdgIEA33/d3RKHLfSCGCOUoUNx3+mZLDxxGESIWZmLK4yRRRzkJLROAJvESnNxTKIkEbUMgXgy5LMqfGMB1/8AdDljNFbxcuhgYMIKaRp5/wCBWPAJe6JQ5b/3OJvjBLkOV/1QsQI9LaiFRcpBsypM8SQIoZFa4Uy7OMX7LAiEkCevDlpMA2e22CXdGVdmiUUXhYgcJa4rqmivg9Uea1SkuUoDaBq1flMwUNyHLg5hnt+PToqtqon00tO6cZYt6THiKFSzWJalhGkkK3ET9sm7f6SdrFdwS3WGa35Qwuj2BPDFkUg1CUMFqcwb/cbDDYoJA9iHYdfr++++++++++++++2TYJRx4uv3+jHSDKolOLT6T333333333Wpm9OTdW/3/NCJG855NxL/AGz5TPymflM/KZ+Uz8pn5TPymflM/KZ+Uz8pn5TPymflM/KZ+UysUAI5BiDd2/Ty3/svOiUqC1Mb8qJbGNPvxxk6TIi1beimBON3VUv/AFm221mumQ7PgLkeOSnembYMtNQdCDP/AFmmET8TGgM1Y0KUSXg1AticPgBMdGQ5VwfnMluzZ8RqQQ2bjIJGRSSalIdOp/CY6wIOQTEFDvJKQZh/fzTvHEZGG1A0EhCrUCxUx/wWxLfn84t3Mo0ZNg74Xi7ogYWgJid8YmdkbSbBjuAN/QMkLE36nhCzFz9un4Roy4Av6ZAgXsPWs58EUr3WFQhis6ZW36wxkVMQaHPuBUaKdp3ici/KI6lviGMcCzasd9pY7leSerbGzlg5EESP/BLEt+8+RcyludnoYcgdS8pkmhv0M4KNyuIG5LlW/pmS0IKsGQJkkFOuJUFWYkdhK3GGhaE8VgZNj2zj3SvE2PXic6MvdeoiftlgAdhFwqlL6sMqssi8ST74hVo1AzEw1MP9P7ZDN/aQRK1/BESpUqVKlSpUqVKlSpUqVKlSpUqVKlSpUqVKlSpUqVKlSpUqVKlSpUqVKlSpUqVKlSpUqVKlSpUqVKkW1JwQayv0F90xhoRKq0GezJPNj8YwgFroA7e346Fp7/MFtLJCfzGY/nj3vkBpkJre5/BatuG+KzXQTQUcu9DhU6EzJUQnuYaU6SJW0ec3MrwYh0zcg6Sl8JxwgwDR8SGYncHrg3Hpt7sDN8ovPF2fohGyGJ003g/aREDDkBcRwTE/tkGDghGEmHm3+89oeWe0PLPaHlntDyz2h5Z7Q8s9oeWe0PLPaHlntDyz2h5Z7Q8s9oeWe0PLPaHlntDyz2h5Z7Q8s9oeWe0PLPaHlntDyz2h5Z7Q8s9oeWe0PLPaHlntDyz2h5Z7Q8s9oeWe0PLPaHlntDyz2h5Z7Q8s9oeWe0PLPaHlntDyz2h5Z7Q8s9oeWe0PLPaHlntDyz2h5Z7Q8s9oeWe0PLPaHlntDyz2h5Z7Q8s9oeWe0PLPaHlntDyz2h5Z7Q8s9oeWe0PLPaHlntDyz2h5Z7Q8s9oeWHFig1d4P0F+ZWYxqE4ZfuHjE3MAECwMO0N26gPfwwnYhbRXPbNfeWmBDayocYlKbmVwksJPwmWhL6lyiLFTQOcGvbgc25U0146yZ5sqBQNxaOdZAoQMjZbGluU+/wCcyWHjiMIkQszMWVxkiijnISWicATebEFcFlESIbUMPjTayUhTBYX0ejhfS/dVCs4nFTYukdGy/bJv7UJFLzonw/4DfgzorzKBsJf7RkcXr6RCQhgKUsd1l2GWyMzu3wdms0XH3oEUVOUdsFtqgWo0S91F4kzcnMAgQRTL9mXEfDMzUnfCu9YL2gz6cRdSbA1m9fu9NQB9l72/lMgRqOJg7BGYn+34377q3aNugF4QcE5Yt6THiKFSzWPalkikkK3ET9sWcg0ukQgoHryay4MJ6EnZe8eGdX4AHO5dlJdc4JTozSG4BJ3CP+I3zJZWMrqZE9BnIeGQ6G0QVOzrgQnUHtrAW5VeeGQndSUTkJViGkA9luOT/iF8zO2WHgjG4Z7Z7fq57fq4fytcNigEV/WMTF0yMiLINsN5xAYlCgkYJAp67wfyKcYKiiVkDjhJGxciQ7KhdcYf8Svmahi75RAqHesmyqGBEE0skHPE4wAP9jtdXXjipkgWtSQJSyX/AMRvmdSYk7fotOpov8QYPhcEy4KTNAAJvriZnbIxsAJZPfbvki4zvkPgN9OJzkCU62g5QuI/4CA7nIT3B8ZQk/WatWrVq1atWrVq1amoqUgSicrezrv+UsYu+UQKh3rI8AZCaNC8b/4nErQD9+u5oNFxM/g2bRHwGf3PGgJDct4wkulyaIgne3/ixZG1w1AAMMbXXGBOG+h1CLZY41lfek+q67E3vIwAvIjHSpTiDYgQQjUhM9d1/wAQM1cSVwuL2djp+NatZbyKpkuDQ8Q4wzedNRekxd8z2zVsc4ASZ2SGLOhWYM0kwhp65vVJCKQlKNSnP7fSK3uoAdzY1PX+Cb9+/fv379+/fv379+/fv379+/fv379+/fv379+/fv379+/fv379+/fv379+/fv379+/fv379+/fv379WWWXSmnUOv7AWRtcNQADDG11xgThvodQi2WONYvLZ11HXYm95ywebYFJAbSaazl2LSaE5HBOD4mABLGERsREh/4fSjcJpiSR2Iq6/wBP4ykj/AgqZqCWYg6dMM3nTUXpMXfM9s1bHOAEmdkhjVcQaoc4zjo7cR56lCtaBEmye2KYnRmFWtBwb8X/API2lHSjpR0o6U/kOw8FAgq39erVq1atWrVq1atWrVqUHa52CtsH5ZhprrPJDoIfSq1atWrVq1avIcswwAi7wTcfmUngOFEQwsJFISot/QjBgwYMGDBgwYMGDBgwYgkCoc5IdxP5xHSPJy4E9LyYxbtySQIQSVlbi86+xEoAadLkDbQYgMUiykTDR9JL/tfzc+FHSPdWaEkhBtrnJL82AkYREFHIg/ltwJ6WJBK0NGR3quh0wg8EPqJy5A61lgN2HAWROWRGjCkZMgxJIQuls+xq0QhaIZJOPg+il/2vyH9onuvJAqhoFxeDjhg62lP9avNSFxMlQAnoh+I5LqUEBJlAJlkgw4EEytYCpVpoceCXKEkSRjjevwmkvvxn+2pM9v5UFHSPcsIT4rJuqZ6M7OQUKag6egtx9s6/3pAyQqaVl+10kk84oO6ryvsYx7jN4vFjc/1B4jZ4Jxh6lc1wXQ/pXk4PuR/0El64UPTO3pI0A6CVio/UJy0v+1+U+7GJmECjwA+KOJDhKzo1sVZ4oSQjqcCPuu1NgHMTtybciIQYAiMwPu4+M8NftSNAEQLci25S+URPLQHWM2rUABA6g46YwkeHHoNDFTExrOmm3H8lFlOL/lIUdI9AnzW3MSTFtatwFNEUGlYIl0c5rN/Zhjsg1ucOKImDAwCjQotBWb4cobcAU81ed+B9DEQXviSOJ+bEELddc/1U/Df9EYEsoAgHBH0E+6cLMNaPE+kTJkyZMmTJk7kQdEGAAdJ1/N/tfkPmBC8iRQERRHrgpgqWoWOEV8TWAgcOZoaBo1GNCq/OypksvD2x8uQw0QCiUkJzahEWbhk+7ndVnWLISCoWjJxTvOESUX+rOEkGkjB2yqRgYrgkiFBk26Ln/tznKEltt/k4UdI9oSvSlSqTs2KxJp1w2AC823lJKLh07wO39Z1TNhtA+3oKA3MOn2AkFNjr19sB6FGcmsPSK0hWUS6PUmcuQKWznTFX5AxU2SczkrZE+ESCRUQuSWdUUgAmOu3bGgitilmcoAuuMazguVop0FcFYES4hAUYtkniabH8yfpDoVSBlw/r6XDhw4cOHDhws6F7jgtYrJ5fm/2vzn9C2jpRBS1HA8eFvAeqbuYneomr1AULMIkcmsm0Q1i3BCYrdxmZqorl34ylmYFRW4T1+ef5SFHSPT6BOFADkeaRxitcosgISZUPiwnl5f8A2CKnT3zeetyE1MxJdJxLJpQwZQkRJkApVEkUQSZSF5Y8uku4BNELZOiZRhKjUAC3qnvgdjh/UMGa6yqs4DQ99oaAiIBU5SsjTaSoOzUjpxvRxHUoK1LSb3qHCQJHKQbSV7v0U5bbY+yOAm+dIvIEcjwfDF3ciMj8rR2wSyClQ2ykq6GTdwCSToT9JL/tfnPyjy/YoZsKh05yvi5fhUqV0i8rhQY7oEaQ9B7ziev9BUEy1CUX1wFITUFG1JSMO2EvskuBIGg0B/Pgo6R5OWO1oqxVUUjaOjhxdwm6NDU0YHgy+nCc8hto38MZE5P13ahw7KJIb+kl/wBr/i58KOkeTlpf9r+Znwo6VEVlFBBmIjIfXZs2bNmzZs2bNmzZs6DPNGOhICSNh+Uw1h2iJSbkm/pM2bNmzZs2bM0Os7Pl+tUD8yUcsAT87oAIgAAOn6EaNGjRo0aNGjRo0aNGjQwgD0oBS7gmv/y6jpR0o6UdKPdvQoMfg/rnwf1z4P658H9c+D+ufB/XPg/rnwf1z4P658H9c+D+ufB/XPg/rnwf1z4P658H9c+D+ufB/XPg/rnwf1z4P658H9c+D+ufB/XPg/rnwf1z4P658H9c+D+ufB/XPg/rnwf1z4P658H9c+D+ufB/XPg/rnwf1z4P658H9c+D+ufB/XPg/rnwf1z4P658H9c+D+ufB/XPg/rnwf1z4P658H9c+D+ufB/XPg/rnwf1z4P658H9c+D+ufB/XPg/rnwf1z4P658H9c+D+ufB/XPg/rmzbNz/ABOW8xHokBQYUnu9f4Jly5cuXLly5cuXLly5cuXLly5cuXLly5cuXLly5cuXLly5cuXLly5cuXLly5cuXLly5cuXLly5cuXLlYhwkLKEElvn/wCyv//Z;" vertex="1" parent="1">
          <mxGeometry x="1127.9999755859376" y="343.9999755859375" width="1204" height="711" as="geometry" />
        </mxCell>
        <mxCell id="SpXCf4IYQGdQFlAL4Hk8-2" value="WEmem" style="text;strokeColor=none;fillColor=none;align=left;verticalAlign=middle;spacingLeft=4;spacingRight=4;overflow=hidden;points=[[0,0.5],[1,0.5]];portConstraint=eastwest;rotatable=0;whiteSpace=wrap;html=1;fontColor=#FD91C0;fontStyle=1;fontSize=8;" vertex="1" parent="1">
          <mxGeometry x="640.22" y="282" width="45" height="20" as="geometry" />
        </mxCell>
        <mxCell id="SpXCf4IYQGdQFlAL4Hk8-4" value="high" style="text;strokeColor=none;fillColor=none;align=left;verticalAlign=middle;spacingLeft=4;spacingRight=4;overflow=hidden;points=[[0,0.5],[1,0.5]];portConstraint=eastwest;rotatable=0;whiteSpace=wrap;html=1;fontColor=#FD91C0;fontStyle=1;fontSize=8;" vertex="1" parent="1">
          <mxGeometry x="665.22" y="229" width="30" height="20" as="geometry" />
        </mxCell>
        <mxCell id="SpXCf4IYQGdQFlAL4Hk8-6" value="" style="shape=trapezoid;perimeter=trapezoidPerimeter;whiteSpace=wrap;html=1;fixedSize=1;rounded=0;shadow=0;fillColor=#FFFFFF;strokeColor=#000000;rotation=90;size=10;" vertex="1" parent="1">
          <mxGeometry x="154.31" y="485" width="30" height="10" as="geometry" />
        </mxCell>
        <mxCell id="SpXCf4IYQGdQFlAL4Hk8-7" value="" style="endArrow=none;html=1;rounded=0;strokeColor=#000000;exitX=0.5;exitY=0;exitDx=0;exitDy=0;" edge="1" parent="1" source="SpXCf4IYQGdQFlAL4Hk8-6">
          <mxGeometry width="50" height="50" relative="1" as="geometry">
            <mxPoint x="175" y="490" as="sourcePoint" />
            <mxPoint x="183" y="490" as="targetPoint" />
          </mxGeometry>
        </mxCell>
        <mxCell id="SpXCf4IYQGdQFlAL4Hk8-11" value="0" style="text;strokeColor=none;fillColor=none;align=center;verticalAlign=middle;spacingLeft=4;spacingRight=4;overflow=hidden;points=[[0,0.5],[1,0.5]];portConstraint=eastwest;rotatable=0;whiteSpace=wrap;html=1;fontColor=light-dark(#000000,#000000);fontStyle=1;fontSize=8;" vertex="1" parent="1">
          <mxGeometry x="150.75" y="476.5" width="17.5" height="14" as="geometry" />
        </mxCell>
        <mxCell id="SpXCf4IYQGdQFlAL4Hk8-12" value="mov" style="text;strokeColor=none;fillColor=none;align=left;verticalAlign=middle;spacingLeft=4;spacingRight=4;overflow=hidden;points=[[0,0.5],[1,0.5]];portConstraint=eastwest;rotatable=0;whiteSpace=wrap;html=1;fontColor=#FD91C0;fontStyle=1;fontSize=8;" vertex="1" parent="1">
          <mxGeometry x="159.5" y="460.5" width="30" height="20" as="geometry" />
        </mxCell>
        <mxCell id="SpXCf4IYQGdQFlAL4Hk8-13" value="" style="endArrow=none;html=1;rounded=0;strokeColor=#000000;fontColor=#959FD0;" edge="1" parent="1">
          <mxGeometry width="50" height="50" relative="1" as="geometry">
            <mxPoint x="145" y="566.5" as="sourcePoint" />
            <mxPoint x="145" y="550.31" as="targetPoint" />
          </mxGeometry>
        </mxCell>
        <mxCell id="SpXCf4IYQGdQFlAL4Hk8-14" value="" style="endArrow=none;html=1;rounded=0;strokeColor=#000000;" edge="1" parent="1">
          <mxGeometry width="50" height="50" relative="1" as="geometry">
            <mxPoint x="144.5" y="566.31" as="sourcePoint" />
            <mxPoint x="164.5" y="566.31" as="targetPoint" />
          </mxGeometry>
        </mxCell>
        <mxCell id="SpXCf4IYQGdQFlAL4Hk8-15" value="" style="endArrow=none;html=1;rounded=0;strokeColor=#000000;" edge="1" parent="1">
          <mxGeometry width="50" height="50" relative="1" as="geometry">
            <mxPoint x="135" y="550.31" as="sourcePoint" />
            <mxPoint x="165" y="550.31" as="targetPoint" />
          </mxGeometry>
        </mxCell>
        <mxCell id="SpXCf4IYQGdQFlAL4Hk8-16" value="Ra1" style="text;strokeColor=none;fillColor=none;align=center;verticalAlign=middle;spacingLeft=4;spacingRight=4;overflow=hidden;points=[[0,0.5],[1,0.5]];portConstraint=eastwest;rotatable=0;whiteSpace=wrap;html=1;fontColor=#959FD0;fontStyle=1;fontSize=8;" vertex="1" parent="1">
          <mxGeometry x="177" y="535" width="30" height="20" as="geometry" />
        </mxCell>
        <mxCell id="SpXCf4IYQGdQFlAL4Hk8-17" value="Rb1" style="text;strokeColor=none;fillColor=none;align=center;verticalAlign=middle;spacingLeft=4;spacingRight=4;overflow=hidden;points=[[0,0.5],[1,0.5]];portConstraint=eastwest;rotatable=0;whiteSpace=wrap;html=1;fontColor=#959FD0;fontStyle=1;fontSize=8;" vertex="1" parent="1">
          <mxGeometry x="159.5" y="556.5" width="30" height="20" as="geometry" />
        </mxCell>
        <mxCell id="SpXCf4IYQGdQFlAL4Hk8-18" value="" style="shape=trapezoid;perimeter=trapezoidPerimeter;whiteSpace=wrap;html=1;fixedSize=1;rounded=0;shadow=0;fillColor=#FFFFFF;strokeColor=#000000;rotation=90;size=10;" vertex="1" parent="1">
          <mxGeometry x="154.31" y="539.5" width="30" height="10" as="geometry" />
        </mxCell>
        <mxCell id="SpXCf4IYQGdQFlAL4Hk8-19" value="" style="endArrow=none;html=1;rounded=0;strokeColor=#000000;exitX=0.5;exitY=0;exitDx=0;exitDy=0;" edge="1" source="SpXCf4IYQGdQFlAL4Hk8-18" parent="1">
          <mxGeometry width="50" height="50" relative="1" as="geometry">
            <mxPoint x="175" y="544.5" as="sourcePoint" />
            <mxPoint x="183" y="544.5" as="targetPoint" />
          </mxGeometry>
        </mxCell>
        <mxCell id="SpXCf4IYQGdQFlAL4Hk8-20" value="0" style="text;strokeColor=none;fillColor=none;align=center;verticalAlign=middle;spacingLeft=4;spacingRight=4;overflow=hidden;points=[[0,0.5],[1,0.5]];portConstraint=eastwest;rotatable=0;whiteSpace=wrap;html=1;fontColor=light-dark(#000000,#000000);fontStyle=1;fontSize=8;" vertex="1" parent="1">
          <mxGeometry x="150.75" y="531" width="17.5" height="14" as="geometry" />
        </mxCell>
        <mxCell id="SpXCf4IYQGdQFlAL4Hk8-22" value="IBrJump" style="text;strokeColor=none;fillColor=none;align=left;verticalAlign=middle;spacingLeft=4;spacingRight=4;overflow=hidden;points=[[0,0.5],[1,0.5]];portConstraint=eastwest;rotatable=0;whiteSpace=wrap;html=1;fontColor=#FD91C0;fontStyle=1;fontSize=8;" vertex="1" parent="1">
          <mxGeometry x="152" y="515" width="45" height="20" as="geometry" />
        </mxCell>
        <mxCell id="SpXCf4IYQGdQFlAL4Hk8-42" value="mov" style="text;strokeColor=none;fillColor=none;align=left;verticalAlign=middle;spacingLeft=4;spacingRight=4;overflow=hidden;points=[[0,0.5],[1,0.5]];portConstraint=eastwest;rotatable=0;whiteSpace=wrap;html=1;fontColor=#FD91C0;fontStyle=1;fontSize=8;" vertex="1" parent="1">
          <mxGeometry x="771" y="324" width="30" height="20" as="geometry" />
        </mxCell>
      </root>
    </mxGraphModel>
  </diagram>
</mxfile>
